<svg width="16" height="13" viewBox="0 0 16 13" fill="none" xmlns="http://www.w3.org/2000/svg">
<path d="M11.0294 12.5H9.88145L8.80345 6.886L6.12945 12.346H5.86345L3.20345 6.886L2.12545 12.5H0.977445L2.41945 4.94H3.41345L6.00345 10.232L8.57945 4.94H9.57345L11.0294 12.5ZM15.958 6.676H12.01V5.92L13.62 4.352C14.0027 3.988 14.2874 3.694 14.474 3.47C14.67 3.23667 14.8007 3.03133 14.866 2.854C14.9407 2.66733 14.978 2.47133 14.978 2.266C14.978 1.96733 14.8894 1.74333 14.712 1.594C14.544 1.44467 14.32 1.37 14.04 1.37C13.76 1.37 13.5034 1.426 13.27 1.538C13.046 1.64067 12.8127 1.78533 12.57 1.972L12.08 1.328C12.3507 1.09467 12.6447 0.908 12.962 0.767999C13.2887 0.627999 13.6527 0.557999 14.054 0.557999C14.6514 0.557999 15.118 0.707333 15.454 1.006C15.7994 1.29533 15.972 1.69667 15.972 2.21C15.972 2.518 15.9067 2.80267 15.776 3.064C15.6547 3.316 15.4727 3.57733 15.23 3.848C14.9967 4.10933 14.7074 4.40333 14.362 4.73L13.228 5.808H15.958V6.676Z" fill="#D1D1D1" fill-opacity="0.8"/>
</svg>
