<svg width="18" height="18" viewBox="0 0 18 18" fill="none" xmlns="http://www.w3.org/2000/svg">
<g clip-path="url(#clip0_1817_12357)">
<path d="M13.0514 9.61229L10.0889 12.5748C10.0173 12.644 9.96012 12.7267 9.92081 12.8182C9.88151 12.9097 9.86082 13.0082 9.85995 13.1077C9.85909 13.2073 9.87806 13.3061 9.91577 13.3983C9.95349 13.4904 10.0092 13.5742 10.0796 13.6446C10.15 13.715 10.2338 13.7707 10.3259 13.8084C10.4181 13.8461 10.5169 13.8651 10.6164 13.8642C10.716 13.8634 10.8144 13.8427 10.9059 13.8034C10.9974 13.7641 11.0802 13.7069 11.1494 13.6353L15.3921 9.39254C15.5327 9.2519 15.6117 9.06117 15.6117 8.86229C15.6117 8.66342 15.5327 8.47269 15.3921 8.33204L11.1494 4.08929C11.0079 3.95267 10.8185 3.87708 10.6218 3.87879C10.4252 3.8805 10.2371 3.95937 10.098 4.09843C9.95897 4.23748 9.88009 4.42559 9.87839 4.62224C9.87668 4.81889 9.95227 5.00834 10.0889 5.14979L13.0514 8.11229H3.11914C2.92023 8.11229 2.72946 8.19131 2.58881 8.33196C2.44816 8.47261 2.36914 8.66338 2.36914 8.86229C2.36914 9.0612 2.44816 9.25197 2.58881 9.39262C2.72946 9.53327 2.92023 9.61229 3.11914 9.61229H13.0514Z" fill="#FBFBFB"/>
</g>
<defs>
<clipPath id="clip0_1817_12357">
<rect width="18" height="18" fill="white"/>
</clipPath>
</defs>
</svg>
