<svg width="24" height="24" viewBox="0 0 24 24" fill="none" xmlns="http://www.w3.org/2000/svg">
<g clip-path="url(#clip0_1123_81451)">
<path fill-rule="evenodd" clip-rule="evenodd" d="M11.7068 6.29303C11.8943 6.48056 11.9996 6.73487 11.9996 7.00003C11.9996 7.26519 11.8943 7.5195 11.7068 7.70703L7.41379 12L11.7068 16.293C11.8889 16.4816 11.9897 16.7342 11.9875 16.9964C11.9852 17.2586 11.88 17.5094 11.6946 17.6948C11.5092 17.8803 11.2584 17.9854 10.9962 17.9877C10.734 17.99 10.4814 17.8892 10.2928 17.707L5.29279 12.707C5.10532 12.5195 5 12.2652 5 12C5 11.7349 5.10532 11.4806 5.29279 11.293L10.2928 6.29303C10.4803 6.10556 10.7346 6.00024 10.9998 6.00024C11.265 6.00024 11.5193 6.10556 11.7068 6.29303ZM17.7068 6.29303C17.8943 6.48056 17.9996 6.73487 17.9996 7.00003C17.9996 7.26519 17.8943 7.5195 17.7068 7.70703L13.4138 12L17.7068 16.293C17.8889 16.4816 17.9897 16.7342 17.9875 16.9964C17.9852 17.2586 17.88 17.5094 17.6946 17.6948C17.5092 17.8803 17.2584 17.9854 16.9962 17.9877C16.734 17.99 16.4814 17.8892 16.2928 17.707L11.2928 12.707C11.1053 12.5195 11 12.2652 11 12C11 11.7349 11.1053 11.4806 11.2928 11.293L16.2928 6.29303C16.4803 6.10556 16.7346 6.00024 16.9998 6.00024C17.265 6.00024 17.5193 6.10556 17.7068 6.29303Z" fill="#050505"/>
</g>
<defs>
<clipPath id="clip0_1123_81451">
<rect width="24" height="24" fill="white"/>
</clipPath>
</defs>
</svg>
