<svg width="18" height="18" viewBox="0 0 18 18" fill="none" xmlns="http://www.w3.org/2000/svg">
<g clip-path="url(#clip0_1870_105110)">
<path d="M8.24806 12.9323L5.28556 9.96975C5.21637 9.89812 5.13362 9.84098 5.04211 9.80167C4.95061 9.76237 4.8522 9.74168 4.75261 9.74081C4.65303 9.73995 4.55427 9.75892 4.46209 9.79663C4.36992 9.83434 4.28618 9.89003 4.21576 9.96045C4.14534 10.0309 4.08965 10.1146 4.05194 10.2068C4.01423 10.299 3.99526 10.3977 3.99612 10.4973C3.99699 10.5969 4.01768 10.6953 4.05698 10.7868C4.09629 10.8783 4.15343 10.9611 4.22506 11.0302L8.46781 15.273C8.60846 15.4136 8.79919 15.4926 8.99806 15.4926C9.19693 15.4926 9.38766 15.4136 9.52831 15.273L13.7711 11.0302C13.9077 10.8888 13.9833 10.6993 13.9816 10.5027C13.9799 10.3061 13.901 10.1179 13.7619 9.97889C13.6229 9.83983 13.4348 9.76095 13.2381 9.75924C13.0415 9.75754 12.852 9.83313 12.7106 9.96975L9.74806 12.9323V3C9.74806 2.80109 9.66904 2.61032 9.52839 2.46967C9.38774 2.32902 9.19697 2.25 8.99806 2.25C8.79915 2.25 8.60838 2.32902 8.46773 2.46967C8.32708 2.61032 8.24806 2.80109 8.24806 3V12.9323Z" fill="#050505"/>
</g>
<defs>
<clipPath id="clip0_1870_105110">
<rect width="18" height="18" fill="white"/>
</clipPath>
</defs>
</svg>
