<svg width="18" height="18" viewBox="0 0 18 18" fill="none" xmlns="http://www.w3.org/2000/svg">
<g clip-path="url(#clip0_1803_23105)">
<path d="M4.92908 8.13136L7.89158 5.16886C7.96321 5.09968 8.02035 5.01692 8.05965 4.92541C8.09896 4.83391 8.11965 4.7355 8.12052 4.63591C8.12138 4.53633 8.1024 4.43757 8.06469 4.3454C8.02698 4.25322 7.97129 4.16948 7.90087 4.09906C7.83045 4.02865 7.74672 3.97296 7.65454 3.93524C7.56237 3.89753 7.46361 3.87856 7.36403 3.87942C7.26444 3.88029 7.16603 3.90098 7.07452 3.94028C6.98302 3.97959 6.90026 4.03673 6.83108 4.10836L2.58833 8.35111C2.44772 8.49176 2.36874 8.68249 2.36874 8.88136C2.36874 9.08023 2.44772 9.27096 2.58833 9.41161L6.83108 13.6544C6.97253 13.791 7.16198 13.8666 7.35863 13.8649C7.55528 13.8632 7.74339 13.7843 7.88244 13.6452C8.0215 13.5062 8.10037 13.3181 8.10208 13.1214C8.10379 12.9248 8.0282 12.7353 7.89158 12.5939L4.92908 9.63136H14.8613C15.0602 9.63136 15.251 9.55234 15.3917 9.41169C15.5323 9.27104 15.6113 9.08027 15.6113 8.88136C15.6113 8.68245 15.5323 8.49168 15.3917 8.35103C15.251 8.21038 15.0602 8.13136 14.8613 8.13136H4.92908Z" fill="#050505"/>
</g>
<defs>
<clipPath id="clip0_1803_23105">
<rect width="18" height="18" fill="white"/>
</clipPath>
</defs>
</svg>
