<svg width="18" height="18" viewBox="0 0 18 18" fill="none" xmlns="http://www.w3.org/2000/svg">
<g clip-path="url(#clip0_2102_114207)">
<path d="M11.927 5.96972L12.6546 10.0957C12.6701 10.194 12.7052 10.2883 12.7576 10.373C12.81 10.4577 12.8787 10.5311 12.9598 10.5889C13.0409 10.6467 13.1327 10.6878 13.2298 10.7098C13.3269 10.7318 13.4275 10.7342 13.5256 10.7169C13.6236 10.6996 13.7173 10.663 13.801 10.6091C13.8848 10.5552 13.957 10.4852 14.0134 10.4031C14.0698 10.3211 14.1093 10.2286 14.1296 10.1311C14.1499 10.0336 14.1505 9.93301 14.1315 9.83525L13.0896 3.92625C13.0551 3.7304 12.9441 3.5563 12.7812 3.44223C12.6183 3.32816 12.4168 3.28346 12.2209 3.31797L6.31192 4.35989C6.11887 4.39739 5.94829 4.50922 5.83689 4.67129C5.7255 4.83335 5.68222 5.03269 5.71637 5.22635C5.75052 5.42002 5.85936 5.59253 6.01947 5.70672C6.17957 5.82091 6.37812 5.86765 6.57235 5.83687L10.6983 5.10936L5.00141 13.2454C4.88731 13.4083 4.84262 13.6099 4.87716 13.8058C4.91171 14.0017 5.02265 14.1758 5.18559 14.2899C5.34853 14.404 5.55012 14.4487 5.74601 14.4142C5.9419 14.3796 6.11604 14.2687 6.23013 14.1057L11.927 5.96972Z" fill="white"/>
</g>
<defs>
<clipPath id="clip0_2102_114207">
<rect width="18" height="18" fill="white"/>
</clipPath>
</defs>
</svg>
