<svg width="16" height="16" viewBox="0 0 16 16" fill="none" xmlns="http://www.w3.org/2000/svg">
<path d="M13.6444 5.08879C13.6292 4.77309 13.6292 4.47175 13.6292 4.1704C13.6292 3.92646 13.4324 3.73991 13.1751 3.73991C11.2827 3.73991 9.84448 3.22332 8.64849 2.11839C8.46683 1.96054 8.19432 1.96054 8.01265 2.11839C6.81667 3.22332 5.37847 3.73991 3.48609 3.73991C3.22873 3.73991 3.03192 3.92646 3.03192 4.1704C3.03192 4.47175 3.03192 4.77309 3.01678 5.08879C2.95623 8.10224 2.86539 12.235 8.17918 13.9713L8.33057 14L8.48196 13.9713C13.7806 12.235 13.7049 8.11659 13.6444 5.08879ZM7.96724 9.26457C7.8764 9.33632 7.77043 9.37937 7.64932 9.37937H7.63418C7.51307 9.37937 7.39196 9.32197 7.31626 9.23587L5.90833 7.75785L6.58959 7.18386L7.69474 8.34619L10.1473 6.13632L10.768 6.76771L7.96724 9.26457Z" fill="#72AA00"/>
</svg>
