<svg width="8" height="13" viewBox="0 0 8 13" fill="none" xmlns="http://www.w3.org/2000/svg">
<path d="M7.39883 8.812C7.39883 9.58667 7.14216 10.226 6.62883 10.73C6.12483 11.2247 5.44349 11.514 4.58483 11.598V12.732H3.57683V11.598C2.63416 11.5233 1.90149 11.2153 1.37883 10.674C0.856161 10.1233 0.594828 9.40933 0.594828 8.532H1.79883C1.79883 9.12933 2.00883 9.60067 2.42883 9.946C2.84883 10.2913 3.39483 10.464 4.06683 10.464C4.66416 10.464 5.16816 10.3147 5.57883 10.016C5.98949 9.708 6.19483 9.31133 6.19483 8.826C6.19483 8.64867 6.16683 8.49 6.11083 8.35C6.06416 8.21 5.9755 8.08867 5.84483 7.986C5.7235 7.88333 5.60683 7.79933 5.49483 7.734C5.39216 7.65933 5.22883 7.58933 5.00483 7.524C4.79016 7.44933 4.61283 7.398 4.47283 7.37C4.34216 7.33267 4.14616 7.286 3.88483 7.23C3.60483 7.16467 3.39016 7.11333 3.24083 7.076C3.09149 7.03867 2.88616 6.98267 2.62483 6.908C2.37283 6.824 2.17216 6.74467 2.02283 6.67C1.88283 6.586 1.71949 6.47867 1.53283 6.348C1.35549 6.208 1.21549 6.05867 1.11283 5.9C1.01949 5.74133 0.940161 5.55 0.874828 5.326C0.809495 5.102 0.776828 4.85467 0.776828 4.584C0.776828 3.84667 1.01483 3.24933 1.49083 2.792C1.97616 2.32533 2.63883 2.05467 3.47883 1.98V0.915999H4.51483V1.98C5.33616 2.07333 5.97549 2.37667 6.43283 2.89C6.8995 3.394 7.13283 4.04733 7.13283 4.85H5.95683C5.95683 4.30867 5.77016 3.87933 5.39683 3.562C5.02349 3.24467 4.54283 3.086 3.95483 3.086C3.37616 3.086 2.90016 3.21667 2.52683 3.478C2.15349 3.73933 1.96683 4.08933 1.96683 4.528C1.96683 4.696 1.99016 4.84533 2.03683 4.976C2.08349 5.10667 2.16749 5.22333 2.28883 5.326C2.41949 5.42867 2.53616 5.51267 2.63883 5.578C2.74149 5.64333 2.90016 5.71333 3.11483 5.788C3.33883 5.85333 3.50683 5.9 3.61883 5.928C3.74016 5.956 3.94083 6.00267 4.22083 6.068C4.4915 6.13333 4.70616 6.18933 4.86483 6.236C5.03283 6.27333 5.24283 6.334 5.49483 6.418C5.74683 6.502 5.94749 6.586 6.09683 6.67C6.2555 6.754 6.4235 6.866 6.60083 7.006C6.7875 7.146 6.93216 7.3 7.03483 7.468C7.1375 7.62667 7.2215 7.82267 7.28683 8.056C7.3615 8.28 7.39883 8.532 7.39883 8.812Z" fill="#D1D1D1" fill-opacity="0.8"/>
</svg>
