<svg width="649" height="268" viewBox="0 0 649 268" fill="none" xmlns="http://www.w3.org/2000/svg">
<mask id="mask0_1462_125657" style="mask-type:alpha" maskUnits="userSpaceOnUse" x="0" y="0" width="649" height="268">
<path d="M193.987 173.76V210.62H169.155V263H128.803V210.62H0.375V202.084L88.451 4.98023H131.131L55.859 173.76H129.579L136.563 101.98H169.155V173.76H193.987Z" fill="#212121"/>
<path d="M326.772 267.656C295.474 267.656 270.642 255.628 252.277 231.572C233.911 207.516 224.729 174.924 224.729 133.796C224.729 92.6682 233.782 60.2056 251.889 36.4082C270.254 12.3522 295.215 0.324219 326.772 0.324219C358.071 0.324219 382.774 12.3522 400.88 36.4082C419.246 60.2056 428.429 92.6682 428.429 133.796C428.429 174.924 419.246 207.516 400.88 231.572C382.515 255.628 357.812 267.656 326.772 267.656ZM326.772 228.08C345.396 228.08 359.882 219.803 370.229 203.248C380.834 186.694 386.137 163.543 386.137 133.796C386.137 114.138 383.679 97.3242 378.764 83.3562C374.108 69.1296 367.254 58.3949 358.201 51.1522C349.406 43.6509 338.93 39.9002 326.772 39.9002C314.356 39.9002 303.622 43.6509 294.569 51.1522C285.515 58.3949 278.66 69.1296 274.004 83.3562C269.348 97.3242 267.021 114.138 267.021 133.796C267.021 163.543 272.194 186.694 282.54 203.248C293.146 219.803 307.89 228.08 326.772 228.08Z" fill="#212121"/>
<path d="M648.932 173.76V210.62H624.1V263H583.748V210.62H455.32V202.084L543.396 4.98023H586.076L510.804 173.76H584.524L591.508 101.98H624.1V173.76H648.932Z" fill="#212121"/>
</mask>
<g mask="url(#mask0_1462_125657)">
<mask id="mask1_1462_125657" style="mask-type:alpha" maskUnits="userSpaceOnUse" x="-114" y="-367" width="878" height="874">
<rect x="-114" y="-367" width="877.166" height="873.352" fill="#D9D9D9"/>
</mask>
<g mask="url(#mask1_1462_125657)">
<path d="M-262.727 506.352V-367H-113.99V2.93521H160.601L549.605 -367H763.176L297.897 67.7692L763.176 506.352H549.605L160.601 136.417H-113.99V506.352H-262.727Z" fill="#050505"/>
<path d="M-114 506.352V136.417H224.348L763.166 -367V506.352H-114Z" fill="#22F100"/>
<path d="M-114 506.352V136.417H224.348L763.166 -367V506.352H-114Z" fill="url(#paint0_linear_1462_125657)" fill-opacity="0.39"/>
</g>
</g>
<defs>
<linearGradient id="paint0_linear_1462_125657" x1="355.093" y1="447.239" x2="656.38" y2="-147.708" gradientUnits="userSpaceOnUse">
<stop stop-color="#001D86"/>
<stop offset="1" stop-color="#0028B5" stop-opacity="0"/>
</linearGradient>
</defs>
</svg>
