<svg width="20" height="20" viewBox="0 0 20 20" fill="none" xmlns="http://www.w3.org/2000/svg">
<g clip-path="url(#clip0_1410_117508)">
<path d="M12.3334 8.49218C11.6429 8.95353 10.8312 9.19985 10.0008 9.2L10 9.2C8.88651 9.19868 7.81899 8.75576 7.03161 7.96839C6.24415 7.18093 5.80122 6.11325 5.8 4.99962C5.80008 4.16907 6.0464 3.35719 6.50783 2.66661C6.96933 1.97592 7.62528 1.4376 8.39273 1.11971C9.16018 0.80182 10.0047 0.718646 10.8194 0.880704C11.6341 1.04276 12.3825 1.44277 12.9698 2.03015C13.5572 2.61753 13.9572 3.3659 14.1193 4.18062C14.2814 4.99534 14.1982 5.83982 13.8803 6.60727C13.5624 7.37472 13.0241 8.03067 12.3334 8.49218ZM12.2964 1.56326C11.6166 1.10908 10.8175 0.866669 10 0.866669C8.90377 0.866669 7.85244 1.30214 7.07729 2.07729C6.30214 2.85244 5.86667 3.90377 5.86667 5C5.86667 5.8175 6.10908 6.61664 6.56326 7.29636C7.01744 7.97608 7.66297 8.50586 8.41824 8.8187C9.17351 9.13155 10.0046 9.2134 10.8064 9.05392C11.6082 8.89443 12.3447 8.50077 12.9227 7.92271C13.5008 7.34465 13.8944 6.60816 14.0539 5.80638C14.2134 5.00459 14.1315 4.17351 13.8187 3.41824C13.5059 2.66298 12.9761 2.01744 12.2964 1.56326Z" stroke="#050505" stroke-opacity="0.7" stroke-width="1.6"/>
<path d="M10 11.6667C8.01155 11.6689 6.10518 12.4598 4.69914 13.8658C3.29309 15.2719 2.50221 17.1782 2.5 19.1667C2.5 19.3877 2.5878 19.5997 2.74408 19.7559C2.90036 19.9122 3.11232 20 3.33333 20C3.55435 20 3.76631 19.9122 3.92259 19.7559C4.07887 19.5997 4.16667 19.3877 4.16667 19.1667C4.16667 17.6196 4.78125 16.1359 5.87521 15.0419C6.96917 13.9479 8.4529 13.3334 10 13.3334C11.5471 13.3334 13.0308 13.9479 14.1248 15.0419C15.2188 16.1359 15.8333 17.6196 15.8333 19.1667C15.8333 19.3877 15.9211 19.5997 16.0774 19.7559C16.2337 19.9122 16.4457 20 16.6667 20C16.8877 20 17.0996 19.9122 17.2559 19.7559C17.4122 19.5997 17.5 19.3877 17.5 19.1667C17.4978 17.1782 16.7069 15.2719 15.3009 13.8658C13.8948 12.4598 11.9884 11.6689 10 11.6667Z" fill="#050505"/>
<path d="M5.26482 14.4315C6.52084 13.1755 8.22374 12.4689 10 12.4667C11.7763 12.4689 13.4792 13.1755 14.7352 14.4315C15.9912 15.6875 16.6978 17.3904 16.7 19.1667C16.7 19.1755 16.6965 19.184 16.6902 19.1903L17.2182 19.7182L16.6902 19.1903C16.684 19.1965 16.6755 19.2 16.6667 19.2C16.6578 19.2 16.6493 19.1965 16.6431 19.1903C16.6368 19.184 16.6333 19.1755 16.6333 19.1667C16.6333 17.4074 15.9345 15.7202 14.6905 14.4762C13.4465 13.2322 11.7593 12.5334 10 12.5334C8.24073 12.5334 6.55352 13.2322 5.30952 14.4762C4.06553 15.7202 3.36667 17.4074 3.36667 19.1667C3.36667 19.1755 3.36315 19.184 3.3569 19.1903C3.35065 19.1965 3.34218 19.2 3.33333 19.2C3.32449 19.2 3.31601 19.1965 3.30976 19.1903C3.30351 19.184 3.3 19.1755 3.3 19.1667H2.5L3.3 19.1676C3.30197 17.391 4.00859 15.6877 5.26482 14.4315Z" stroke="#050505" stroke-opacity="0.7" stroke-width="1.6"/>
</g>
<defs>
<clipPath id="clip0_1410_117508">
<rect width="20" height="20" fill="white"/>
</clipPath>
</defs>
</svg>
