<svg width="20" height="20" viewBox="0 0 20 20" fill="none" xmlns="http://www.w3.org/2000/svg">
<g clip-path="url(#clip0_1410_117518)">
<path d="M10.1833 13.5167H10.8333C11.8525 13.5167 12.6831 12.6862 12.6833 11.6671C12.6831 10.8513 12.1017 10.1648 11.2976 10.0312L11.2973 10.0311L8.76342 9.6087C8.76331 9.60868 8.76321 9.60867 8.76311 9.60865C8.1387 9.50471 7.68333 8.96673 7.68333 8.33417C7.68333 7.51644 8.34726 6.85083 9.16667 6.85083H11.0567C11.5852 6.85083 12.0762 7.13349 12.3416 7.59168L12.3426 7.59336C12.3917 7.6787 12.5019 7.71047 12.5918 7.65915C12.6798 7.60752 12.7085 7.49562 12.6584 7.40924L12.6582 7.40877C12.3283 6.83847 11.7126 6.48333 11.0558 6.48333H10.8325H10.1825V5.83333V5C10.1825 4.89856 10.1006 4.81667 9.99917 4.81667C9.89774 4.81667 9.81583 4.89856 9.81583 5V5.83333V6.48333H9.16583C8.14648 6.48333 7.31583 7.31398 7.31583 8.33333C7.31583 9.14931 7.89729 9.83598 8.70155 9.96963L8.70189 9.96968L11.2357 10.3921L11.2361 10.3922L11.1292 11.0333L10.1833 13.5167ZM10.1833 13.5167V14.1667M10.1833 13.5167V14.1667M10.1833 14.1667V15C10.1833 15.1018 10.1018 15.1833 10 15.1833C9.89815 15.1833 9.81667 15.1018 9.81667 15V14.1667V13.5167M10.1833 14.1667L9.81667 13.5167M9.81667 13.5167H9.16667M9.81667 13.5167H9.16667M9.16667 13.5167H8.94333M9.16667 13.5167H8.94333M8.94333 13.5167C8.28619 13.5167 7.67067 13.162 7.34102 12.5921L8.94333 13.5167ZM0.65 10C0.65 4.84482 4.84482 0.65 10 0.65C15.1552 0.65 19.35 4.84482 19.35 10C19.35 15.1552 15.1552 19.35 10 19.35C4.84482 19.35 0.65 15.1552 0.65 10ZM1.01667 10C1.01667 14.954 5.04601 18.9833 10 18.9833C14.954 18.9833 18.9833 14.954 18.9833 10C18.9833 5.04601 14.954 1.01667 10 1.01667C5.04601 1.01667 1.01667 5.04601 1.01667 10Z" stroke="#050505" stroke-opacity="0.7" stroke-width="1.3"/>
</g>
<defs>
<clipPath id="clip0_1410_117518">
<rect width="20" height="20" fill="white"/>
</clipPath>
</defs>
</svg>
