<svg width="40" height="40" viewBox="0 0 40 40" fill="none" xmlns="http://www.w3.org/2000/svg">
<rect width="40" height="40" rx="20" fill="#FBFBFB"/>
<path d="M22.9153 14.2428C22.5886 13.9161 22.062 13.9161 21.7353 14.2428L16.1953 19.7828C16.1335 19.8445 16.0845 19.9177 16.051 19.9984C16.0176 20.079 16.0003 20.1655 16.0003 20.2528C16.0003 20.3401 16.0176 20.4266 16.051 20.5072C16.0845 20.5879 16.1335 20.6611 16.1953 20.7228L21.7353 26.2628C22.062 26.5895 22.5886 26.5895 22.9153 26.2628C23.242 25.9361 23.242 25.4095 22.9153 25.0828L18.0886 20.2495L22.922 15.4161C23.242 15.0961 23.242 14.5628 22.9153 14.2428Z" fill="#383D54"/>
</svg>
