<svg width="40" height="40" viewBox="0 0 40 40" fill="none" xmlns="http://www.w3.org/2000/svg">
<rect width="40" height="40" rx="20" fill="#FBFBFB"/>
<path d="M16.9197 26.0072C17.2463 26.3339 17.773 26.3339 18.0997 26.0072L23.6397 20.4672C23.7015 20.4055 23.7505 20.3323 23.784 20.2516C23.8174 20.171 23.8346 20.0845 23.8346 19.9972C23.8346 19.9099 23.8174 19.8234 23.784 19.7428C23.7505 19.6621 23.7015 19.5889 23.6397 19.5272L18.0997 13.9872C17.773 13.6605 17.2463 13.6605 16.9197 13.9872C16.593 14.3139 16.593 14.8405 16.9197 15.1672L21.7463 20.0005L16.913 24.8339C16.593 25.1539 16.593 25.6872 16.9197 26.0072Z" fill="#383D54"/>
</svg>
