<svg width="20" height="20" viewBox="0 0 20 20" fill="none" xmlns="http://www.w3.org/2000/svg">
<g clip-path="url(#clip0_1804_199966)">
<path d="M10.8333 13.5167H10.1833V14.1667V15C10.1833 15.1018 10.1018 15.1833 10 15.1833C9.89815 15.1833 9.81667 15.1018 9.81667 15V14.1667V13.5167H9.16667H8.94333C8.28619 13.5167 7.67067 13.162 7.34102 12.5921C7.28987 12.5037 7.32036 12.392 7.4072 12.3418L7.40882 12.3408C7.49511 12.2906 7.6066 12.3199 7.65688 12.4071L7.6571 12.4075C7.92245 12.8671 8.41375 13.15 8.9425 13.15H10.8325C11.6515 13.15 12.3158 12.4857 12.3158 11.6667C12.3158 11.0341 11.8605 10.4961 11.2361 10.3922C11.236 10.3922 11.2359 10.3921 11.2357 10.3921L8.70189 9.96968L8.70155 9.96963C7.89729 9.83598 7.31583 9.14931 7.31583 8.33333C7.31583 7.31398 8.14648 6.48333 9.16583 6.48333H9.81583V5.83333V5C9.81583 4.89856 9.89774 4.81667 9.99917 4.81667C10.1006 4.81667 10.1825 4.89856 10.1825 5V5.83333V6.48333H10.8325H11.0558C11.7126 6.48333 12.3283 6.83847 12.6582 7.40877L12.6584 7.40924C12.7085 7.4956 12.6798 7.60749 12.5918 7.65913C12.5019 7.71048 12.3917 7.67871 12.3426 7.59336L12.3416 7.59168C12.0762 7.13349 11.5852 6.85083 11.0567 6.85083H9.16667C8.34726 6.85083 7.68333 7.51644 7.68333 8.33417C7.68333 8.96673 8.1387 9.50471 8.76311 9.60865C8.76321 9.60867 8.76332 9.60868 8.76342 9.6087L11.2973 10.0311L11.2976 10.0312C12.1017 10.1648 12.6831 10.8513 12.6833 11.6671C12.6831 12.6862 11.8525 13.5167 10.8333 13.5167ZM0.65 10C0.65 4.84482 4.84482 0.65 10 0.65C15.1552 0.65 19.35 4.84482 19.35 10C19.35 15.1552 15.1552 19.35 10 19.35C4.84482 19.35 0.65 15.1552 0.65 10ZM1.01667 10C1.01667 14.954 5.04601 18.9833 10 18.9833C14.954 18.9833 18.9833 14.954 18.9833 10C18.9833 5.04601 14.954 1.01667 10 1.01667C5.04601 1.01667 1.01667 5.04601 1.01667 10Z" stroke="#5C6476" stroke-width="1.3"/>
</g>
<defs>
<clipPath id="clip0_1804_199966">
<rect width="20" height="20" fill="white"/>
</clipPath>
</defs>
</svg>
