<svg width="20" height="20" viewBox="0 0 20 20" fill="none" xmlns="http://www.w3.org/2000/svg">
<g clip-path="url(#clip0_1844_195795)">
<path d="M12.3334 8.49218C11.6429 8.95353 10.8312 9.19985 10.0008 9.2L10 9.2C8.88651 9.19868 7.81899 8.75576 7.03161 7.96839C6.24415 7.18093 5.80122 6.11325 5.8 4.99962C5.80008 4.16907 6.0464 3.35719 6.50783 2.66661C6.96933 1.97592 7.62528 1.4376 8.39273 1.11971C9.16018 0.80182 10.0047 0.718646 10.8194 0.880704C11.6341 1.04276 12.3825 1.44277 12.9698 2.03015C13.5572 2.61753 13.9572 3.3659 14.1193 4.18062C14.2814 4.99534 14.1982 5.83982 13.8803 6.60727C13.5624 7.37472 13.0241 8.03067 12.3334 8.49218ZM12.2964 1.56326C11.6166 1.10908 10.8175 0.866669 10 0.866669C8.90377 0.866669 7.85244 1.30214 7.07729 2.07729C6.30214 2.85244 5.86667 3.90377 5.86667 5C5.86667 5.8175 6.10908 6.61664 6.56326 7.29636C7.01744 7.97608 7.66297 8.50586 8.41824 8.81871C9.17351 9.13155 10.0046 9.2134 10.8064 9.05392C11.6082 8.89443 12.3447 8.50077 12.9227 7.92271C13.5008 7.34465 13.8944 6.60816 14.0539 5.80638C14.2134 5.00459 14.1315 4.17351 13.8187 3.41824C13.5059 2.66298 12.9761 2.01744 12.2964 1.56326Z" stroke="#5C6476" stroke-width="1.6"/>
<path d="M5.26482 14.4289C6.52084 13.1729 8.22374 12.4663 10 12.4641C11.7763 12.4663 13.4792 13.1729 14.7352 14.4289C15.9913 15.685 16.6979 17.3879 16.7 19.1643C16.6999 19.173 16.6964 19.1814 16.6902 19.1876C16.684 19.1939 16.6755 19.1974 16.6667 19.1974C16.6578 19.1974 16.6493 19.1939 16.6431 19.1876C16.6368 19.1814 16.6333 19.1729 16.6333 19.1641C16.6333 17.4048 15.9345 15.7176 14.6905 14.4736C13.4465 13.2296 11.7593 12.5307 10 12.5307C8.24073 12.5307 6.55352 13.2296 5.30952 14.4736C4.06553 15.7176 3.36667 17.4048 3.36667 19.1641C3.36667 19.1729 3.36315 19.1814 3.3569 19.1876C3.35065 19.1939 3.34218 19.1974 3.33333 19.1974C3.32449 19.1974 3.31601 19.1939 3.30976 19.1876C3.30351 19.1814 3.3 19.1729 3.3 19.1641H2.5L3.3 19.1649C3.30197 17.3884 4.00859 15.6851 5.26482 14.4289Z" fill="#22232A" stroke="#5C6476" stroke-width="1.6"/>
</g>
<defs>
<clipPath id="clip0_1844_195795">
<rect width="20" height="20" fill="white"/>
</clipPath>
</defs>
</svg>
