<svg width="20" height="20" viewBox="0 0 20 20" fill="none" xmlns="http://www.w3.org/2000/svg">
<g clip-path="url(#clip0_2067_212046)">
<path d="M8.33333 11.6667V0H2.5C1.12167 0 0 1.12167 0 2.5V17.5C0 18.8783 1.12167 20 2.5 20H17.5C18.8783 20 20 18.8783 20 17.5V11.6667H8.33333ZM18.3333 17.5C18.3333 17.96 17.96 18.3333 17.5 18.3333H2.5C2.04083 18.3333 1.66667 17.96 1.66667 17.5V2.5C1.66667 2.04 2.04083 1.66667 2.5 1.66667H6.66667V5H4.16667V6.66667H6.66667V8.33333H4.16667V10H6.66667V11.6667H4.16667V13.3333H6.66667V15.8333H8.33333V13.3333H10V15.8333H11.6667V13.3333H13.3333V15.8333H15V13.3333H18.3333V17.5Z" fill="#5C6476"/>
</g>
<defs>
<clipPath id="clip0_2067_212046">
<rect width="20" height="20" fill="white"/>
</clipPath>
</defs>
</svg>
