<svg width="129" height="32" viewBox="0 0 129 32" fill="none" xmlns="http://www.w3.org/2000/svg">
<rect width="129" height="32" rx="16" fill="#050505" fill-opacity="0.7"/>
<path d="M21.5 18V15.5M21.5 15.5H17.5M21.5 15.5V14.5M26.5 14H23.5V15M23.5 19V20.5M21.5 19.5V20.5M21.5 11.5V13M26.5 17.5H23.5V16.5" stroke="#FBFBFB" stroke-width="0.8" stroke-linecap="round" stroke-linejoin="round"/>
<path d="M26.5 11.8V20.2C26.5 20.2796 26.4684 20.3559 26.4121 20.4121C26.3559 20.4684 26.2796 20.5 26.2 20.5H17.8C17.7204 20.5 17.6441 20.4684 17.5879 20.4121C17.5316 20.3559 17.5 20.2796 17.5 20.2V11.8C17.5 11.7204 17.5316 11.6441 17.5879 11.5879C17.6441 11.5316 17.7204 11.5 17.8 11.5H26.2C26.2796 11.5 26.3559 11.5316 26.4121 11.5879C26.4684 11.6441 26.5 11.7204 26.5 11.8Z" stroke="#FBFBFB" stroke-width="0.8" stroke-linecap="round" stroke-linejoin="round"/>
<path d="M37.2977 10.6H43.4177V19H42.3497V11.584H38.3417V19H37.2977V10.6ZM46.7958 12.52H51.0438V19H50.0238V13.408H47.6478L47.3118 16.684C47.2238 17.54 47.0038 18.148 46.6518 18.508C46.2998 18.86 45.7718 19.036 45.0678 19.036H44.8878V18.076H45.1158C45.4838 18.076 45.7638 17.972 45.9558 17.764C46.1478 17.548 46.2678 17.208 46.3158 16.744L46.7958 12.52ZM58.718 12.52H59.534V19H58.682L58.574 18.016C58.27 18.376 57.898 18.656 57.458 18.856C57.026 19.048 56.55 19.144 56.03 19.144C55.078 19.144 54.282 18.824 53.642 18.184C53.002 17.536 52.682 16.728 52.682 15.76C52.682 14.792 53.002 13.988 53.642 13.348C54.282 12.7 55.078 12.376 56.03 12.376C56.558 12.376 57.038 12.476 57.47 12.676C57.91 12.876 58.282 13.156 58.586 13.516L58.718 12.52ZM54.398 17.476C54.854 17.932 55.426 18.16 56.114 18.16C56.802 18.16 57.37 17.932 57.818 17.476C58.266 17.02 58.49 16.448 58.49 15.76C58.49 15.072 58.266 14.5 57.818 14.044C57.37 13.588 56.802 13.36 56.114 13.36C55.426 13.36 54.854 13.592 54.398 14.056C53.95 14.512 53.726 15.08 53.726 15.76C53.726 16.44 53.95 17.012 54.398 17.476ZM66.1526 12.52H67.1486V19H66.1526V16.132H62.6846V19H61.6886V12.52H62.6846V15.172H66.1526V12.52ZM74.0401 12.52H75.1321L72.0481 19.264C71.8081 19.792 71.5721 20.2 71.3401 20.488C71.1081 20.776 70.8481 20.984 70.5601 21.112C70.2721 21.248 69.9201 21.316 69.5041 21.316H68.8921V20.392H69.4201C69.8521 20.392 70.1761 20.304 70.3921 20.128C70.6081 19.952 70.8481 19.592 71.1121 19.048L71.3401 18.556L68.4601 12.52H69.5761L71.8801 17.428L74.0401 12.52ZM80.6073 15.64C80.9353 15.76 81.1953 15.96 81.3873 16.24C81.5873 16.52 81.6873 16.836 81.6873 17.188C81.6873 17.708 81.4953 18.14 81.1113 18.484C80.7353 18.828 80.2633 19 79.6953 19H76.4433V12.52H79.6593C80.1953 12.52 80.6313 12.676 80.9673 12.988C81.3033 13.292 81.4713 13.684 81.4713 14.164C81.4713 14.38 81.4353 14.584 81.3633 14.776C81.2913 14.968 81.1913 15.14 81.0633 15.292C80.9353 15.436 80.7833 15.552 80.6073 15.64ZM80.4633 14.344C80.4633 14.08 80.3753 13.872 80.1993 13.72C80.0233 13.56 79.7953 13.48 79.5153 13.48H77.4393V15.196H79.5153C79.8033 15.196 80.0313 15.12 80.1993 14.968C80.3753 14.808 80.4633 14.6 80.4633 14.344ZM79.5753 18.04C79.7753 18.04 79.9553 18 80.1153 17.92C80.2833 17.832 80.4113 17.716 80.4993 17.572C80.5873 17.428 80.6313 17.268 80.6313 17.092C80.6313 16.908 80.5873 16.744 80.4993 16.6C80.4113 16.448 80.2833 16.332 80.1153 16.252C79.9553 16.172 79.7713 16.132 79.5633 16.132H77.4393V18.04H79.5753ZM88.954 12.52H89.77V19H88.918L88.81 18.016C88.506 18.376 88.134 18.656 87.694 18.856C87.262 19.048 86.786 19.144 86.266 19.144C85.314 19.144 84.518 18.824 83.878 18.184C83.238 17.536 82.918 16.728 82.918 15.76C82.918 14.792 83.238 13.988 83.878 13.348C84.518 12.7 85.314 12.376 86.266 12.376C86.794 12.376 87.274 12.476 87.706 12.676C88.146 12.876 88.518 13.156 88.822 13.516L88.954 12.52ZM84.634 17.476C85.09 17.932 85.662 18.16 86.35 18.16C87.038 18.16 87.606 17.932 88.054 17.476C88.502 17.02 88.726 16.448 88.726 15.76C88.726 15.072 88.502 14.5 88.054 14.044C87.606 13.588 87.038 13.36 86.35 13.36C85.662 13.36 85.09 13.592 84.634 14.056C84.186 14.512 83.962 15.08 83.962 15.76C83.962 16.44 84.186 17.012 84.634 17.476ZM96.3886 12.52H97.3846V19H96.3886V16.132H92.9206V19H91.9246V12.52H92.9206V15.172H96.3886V12.52ZM104.012 12.52H105.008V19H104.012V16.132H100.544V19H99.548V12.52H100.544V15.172H104.012V12.52ZM108.863 12.52H111.839V19H110.831V16.516H109.211L107.675 19H106.547L108.167 16.372C107.743 16.236 107.407 16.004 107.159 15.676C106.911 15.348 106.787 14.964 106.787 14.524C106.787 13.948 106.983 13.472 107.375 13.096C107.767 12.712 108.263 12.52 108.863 12.52ZM108.947 15.532H110.831V13.504H108.947C108.611 13.504 108.339 13.6 108.131 13.792C107.923 13.976 107.819 14.22 107.819 14.524C107.819 14.82 107.923 15.064 108.131 15.256C108.339 15.44 108.611 15.532 108.947 15.532Z" fill="#FBFBFB"/>
</svg>
