<svg width="32" height="32" viewBox="0 0 32 32" fill="none" xmlns="http://www.w3.org/2000/svg">
<rect width="32" height="32" rx="16" fill="#050505" fill-opacity="0.7"/>
<path d="M16.0013 16C16.368 16 16.682 15.8693 16.9433 15.608C17.2046 15.3467 17.3351 15.0329 17.3346 14.6667C17.3346 14.3 17.204 13.986 16.9426 13.7247C16.6813 13.4633 16.3675 13.3329 16.0013 13.3333C15.6346 13.3333 15.3206 13.464 15.0593 13.7253C14.798 13.9867 14.6675 14.3004 14.668 14.6667C14.668 15.0333 14.7986 15.3473 15.06 15.6087C15.3213 15.87 15.6351 16.0004 16.0013 16ZM16.0013 20.9C17.3569 19.6556 18.3624 18.5249 19.018 17.508C19.6735 16.4911 20.0013 15.5884 20.0013 14.8C20.0013 13.5889 19.6151 12.5973 18.8426 11.8253C18.0702 11.0533 17.1231 10.6671 16.0013 10.6667C14.8791 10.6667 13.9317 11.0529 13.1593 11.8253C12.3869 12.5978 12.0009 13.5893 12.0013 14.8C12.0013 15.5889 12.3291 16.4918 12.9846 17.5087C13.6402 18.5256 14.6457 19.656 16.0013 20.9ZM16.0013 22.4167C15.9124 22.4167 15.8235 22.4 15.7346 22.3667C15.6457 22.3333 15.568 22.2889 15.5013 22.2333C13.8791 20.8 12.668 19.4693 11.868 18.2413C11.068 17.0133 10.668 15.8662 10.668 14.8C10.668 13.1333 11.2042 11.8056 12.2766 10.8167C13.3491 9.82778 14.5906 9.33334 16.0013 9.33334C17.4124 9.33334 18.6542 9.82778 19.7266 10.8167C20.7991 11.8056 21.3351 13.1333 21.3346 14.8C21.3346 15.8667 20.9346 17.014 20.1346 18.242C19.3346 19.47 18.1235 20.8004 16.5013 22.2333C16.4346 22.2889 16.3569 22.3333 16.268 22.3667C16.1791 22.4 16.0902 22.4167 16.0013 22.4167Z" fill="#FBFBFB"/>
</svg>
