<svg width="165" height="125" viewBox="0 0 165 125" fill="none" xmlns="http://www.w3.org/2000/svg">
<path d="M164.207 8.7071C164.598 8.31657 164.598 7.68341 164.207 7.29289L157.843 0.928925C157.453 0.5384 156.819 0.5384 156.429 0.928925C156.038 1.31945 156.038 1.95261 156.429 2.34314L162.086 7.99999L156.429 13.6568C156.038 14.0474 156.038 14.6805 156.429 15.0711C156.819 15.4616 157.453 15.4616 157.843 15.0711L164.207 8.7071ZM1.72853e-06 123.5C1.75268e-06 124.052 0.447717 124.5 1 124.5C1.55229 124.5 2 124.052 2 123.5L1.72853e-06 123.5ZM2.34796 114.506C2.39074 113.956 1.97904 113.475 1.42842 113.432C0.877793 113.389 0.396745 113.801 0.353968 114.352L2.34796 114.506ZM3.19434 96.2927C3.06583 96.8298 3.39708 97.3695 3.9342 97.498C4.47133 97.6265 5.01093 97.2952 5.13944 96.7581L3.19434 96.2927ZM10.6879 79.6711C10.8995 79.1609 10.6574 78.5758 10.1473 78.3643C9.6371 78.1527 9.05203 78.3948 8.84048 78.9049L10.6879 79.6711ZM17.153 62.6211C16.864 63.0917 17.0112 63.7075 17.4819 63.9965C17.9525 64.2855 18.5683 64.1383 18.8573 63.6677L17.153 62.6211ZM29.4311 49.1377C29.79 48.7179 29.7406 48.0867 29.3208 47.7278C28.901 47.3689 28.2697 47.4183 27.9109 47.8381L29.4311 49.1377ZM40.8381 34.9109C40.4183 35.2697 40.3689 35.901 40.7278 36.3208C41.0867 36.7406 41.7179 36.79 42.1377 36.4311L40.8381 34.9109ZM56.6676 25.8573C57.1383 25.5683 57.2855 24.9525 56.9965 24.4819C56.7075 24.0113 56.0917 23.864 55.6211 24.153L56.6676 25.8573ZM71.9049 15.8405C71.3948 16.052 71.1527 16.6371 71.3643 17.1473C71.5758 17.6574 72.1609 17.8995 72.671 17.6879L71.9049 15.8405ZM89.7581 12.1394C90.2952 12.0109 90.6265 11.4713 90.4979 10.9342C90.3694 10.3971 89.8298 10.0658 89.2927 10.1943L89.7581 12.1394ZM107.352 7.35396C106.801 7.39674 106.389 7.87779 106.432 8.42842C106.475 8.97904 106.956 9.39073 107.506 9.34796L107.352 7.35396ZM128.25 8.99999C128.802 8.99999 129.25 8.55228 129.25 7.99999C129.25 7.44771 128.802 6.99999 128.25 6.99999L128.25 8.99999ZM151.75 6.99999C151.198 6.99999 150.75 7.44771 150.75 7.99999C150.75 8.55228 151.198 8.99999 151.75 8.99999L151.75 6.99999ZM2 123.5C2 120.473 2.11743 117.474 2.34796 114.506L0.353968 114.352C0.119441 117.37 1.59396e-06 120.421 1.72853e-06 123.5L2 123.5ZM5.13944 96.7581C6.54752 90.8728 8.41006 85.1641 10.6879 79.6711L8.84048 78.9049C6.52254 84.4946 4.6272 90.3038 3.19434 96.2927L5.13944 96.7581ZM18.8573 63.6677C22.0038 58.5439 25.5422 53.6867 29.4311 49.1377L27.9109 47.8381C23.9545 52.4661 20.3544 57.4079 17.153 62.6211L18.8573 63.6677ZM42.1377 36.4311C46.6867 32.5422 51.5439 29.0038 56.6676 25.8573L55.6211 24.153C50.4079 27.3544 45.4661 30.9545 40.8381 34.9109L42.1377 36.4311ZM72.671 17.6879C78.1641 15.4101 83.8728 13.5475 89.7581 12.1394L89.2927 10.1943C83.3038 11.6272 77.4946 13.5225 71.9049 15.8405L72.671 17.6879ZM107.506 9.34796C110.474 9.11743 113.473 9 116.5 8.99999L116.5 6.99999C113.421 7 110.37 7.11943 107.352 7.35396L107.506 9.34796ZM116.5 8.99999L128.25 8.99999L128.25 6.99999L116.5 6.99999L116.5 8.99999ZM151.75 8.99999L163.5 8.99999L163.5 6.99999L151.75 6.99999L151.75 8.99999Z" fill="#0E1E40"/>
</svg>
