<svg width="165" height="124" viewBox="0 0 165 124" fill="none" xmlns="http://www.w3.org/2000/svg">
<path d="M164.207 115.793C164.598 116.183 164.598 116.817 164.207 117.207L157.843 123.571C157.453 123.962 156.819 123.962 156.429 123.571C156.038 123.181 156.038 122.547 156.429 122.157L162.086 116.5L156.429 110.843C156.038 110.453 156.038 109.819 156.429 109.429C156.819 109.038 157.453 109.038 157.843 109.429L164.207 115.793ZM1.72853e-06 1C1.75268e-06 0.447715 0.447717 -2.41411e-08 1 0C1.55229 2.41412e-08 2 0.447715 2 1L1.72853e-06 1ZM2.34796 9.99353C2.39074 10.5442 1.97904 11.0252 1.42842 11.068C0.877793 11.1108 0.396745 10.6991 0.353968 10.1484L2.34796 9.99353ZM3.19434 28.2073C3.06583 27.6702 3.39708 27.1305 3.9342 27.002C4.47133 26.8735 5.01093 27.2048 5.13944 27.7419L3.19434 28.2073ZM10.6879 44.8289C10.8995 45.3391 10.6574 45.9242 10.1473 46.1357C9.6371 46.3473 9.05203 46.1052 8.84048 45.5951L10.6879 44.8289ZM17.153 61.8789C16.864 61.4083 17.0112 60.7925 17.4819 60.5035C17.9525 60.2145 18.5683 60.3617 18.8573 60.8323L17.153 61.8789ZM29.4311 75.3623C29.79 75.7821 29.7406 76.4133 29.3208 76.7722C28.901 77.1311 28.2697 77.0817 27.9109 76.6619L29.4311 75.3623ZM40.8381 89.5891C40.4183 89.2303 40.3689 88.599 40.7278 88.1792C41.0867 87.7594 41.7179 87.71 42.1377 88.0689L40.8381 89.5891ZM56.6676 98.6427C57.1383 98.9317 57.2855 99.5475 56.9965 100.018C56.7075 100.489 56.0917 100.636 55.6211 100.347L56.6676 98.6427ZM71.9049 108.66C71.3948 108.448 71.1527 107.863 71.3643 107.353C71.5758 106.843 72.1609 106.601 72.671 106.812L71.9049 108.66ZM89.7581 112.361C90.2952 112.489 90.6265 113.029 90.4979 113.566C90.3694 114.103 89.8298 114.434 89.2927 114.306L89.7581 112.361ZM107.352 117.146C106.801 117.103 106.389 116.622 106.432 116.072C106.475 115.521 106.956 115.109 107.506 115.152L107.352 117.146ZM128.25 115.5C128.802 115.5 129.25 115.948 129.25 116.5C129.25 117.052 128.802 117.5 128.25 117.5L128.25 115.5ZM151.75 117.5C151.198 117.5 150.75 117.052 150.75 116.5C150.75 115.948 151.198 115.5 151.75 115.5L151.75 117.5ZM2 1C2 4.0269 2.11743 7.02617 2.34796 9.99353L0.353968 10.1484C0.119441 7.12959 1.59396e-06 4.07865 1.72853e-06 1L2 1ZM5.13944 27.7419C6.54752 33.6272 8.41006 39.3359 10.6879 44.8289L8.84048 45.5951C6.52254 40.0054 4.6272 34.1962 3.19434 28.2073L5.13944 27.7419ZM18.8573 60.8323C22.0038 65.9561 25.5422 70.8133 29.4311 75.3623L27.9109 76.6619C23.9545 72.0339 20.3544 67.0921 17.153 61.8789L18.8573 60.8323ZM42.1377 88.0689C46.6867 91.9578 51.5439 95.4962 56.6676 98.6427L55.6211 100.347C50.4079 97.1456 45.4661 93.5455 40.8381 89.5891L42.1377 88.0689ZM72.671 106.812C78.1641 109.09 83.8728 110.952 89.7581 112.361L89.2927 114.306C83.3038 112.873 77.4946 110.977 71.9049 108.66L72.671 106.812ZM107.506 115.152C110.474 115.383 113.473 115.5 116.5 115.5L116.5 117.5C113.421 117.5 110.37 117.381 107.352 117.146L107.506 115.152ZM116.5 115.5L128.25 115.5L128.25 117.5L116.5 117.5L116.5 115.5ZM151.75 115.5L163.5 115.5L163.5 117.5L151.75 117.5L151.75 115.5Z" fill="#0E1E40"/>
</svg>
