<svg width="87" height="32" viewBox="0 0 87 32" fill="none" xmlns="http://www.w3.org/2000/svg">
<rect width="87" height="32" rx="16" fill="#050505" fill-opacity="0.7"/>
<g clip-path="url(#clip0_1912_61218)">
<path d="M24.1975 15.061L21.6015 13.6395C21.265 13.45 20.865 13.4535 20.5325 13.648C20.199 13.843 20.0005 14.1895 20.0005 14.5755V17.425C20.0005 17.811 20.199 18.1575 20.5325 18.3525C20.7025 18.452 20.8895 18.501 21.076 18.501C21.255 18.501 21.434 18.4555 21.5965 18.364L24.2025 16.937C24.546 16.744 24.7505 16.394 24.7505 16.0005C24.7505 15.607 24.546 15.257 24.198 15.0615L24.1975 15.061ZM23.717 16.0625L21.111 17.49C21.1015 17.495 21.0725 17.511 21.0375 17.4895C21.0005 17.468 21.0005 17.436 21.0005 17.4255V14.576C21.0005 14.5655 21.0005 14.5335 21.0375 14.512C21.051 14.504 21.0635 14.5015 21.0745 14.5015C21.0925 14.5015 21.107 14.5095 21.116 14.5145L23.712 15.9365C23.7215 15.942 23.75 15.958 23.75 16.0015C23.75 16.045 23.721 16.061 23.717 16.064V16.0625ZM22 10C18.6915 10 16 12.6915 16 16C16 19.3085 18.6915 22 22 22C25.3085 22 28 19.3085 28 16C28 12.6915 25.3085 10 22 10ZM22 21C19.243 21 17 18.757 17 16C17 13.243 19.243 11 22 11C24.757 11 27 13.243 27 16C27 18.757 24.757 21 22 21Z" fill="#FBFBFB"/>
</g>
<path d="M42.1331 14.644C42.5251 14.812 42.8331 15.08 43.0571 15.448C43.2811 15.816 43.3931 16.228 43.3931 16.684C43.3931 17.34 43.1491 17.892 42.6611 18.34C42.1731 18.78 41.5691 19 40.8491 19H37.4891V10.6H40.8011C41.4891 10.6 42.0531 10.804 42.4931 11.212C42.9411 11.62 43.1651 12.132 43.1651 12.748C43.1651 13.124 43.0691 13.488 42.8771 13.84C42.6931 14.192 42.4451 14.46 42.1331 14.644ZM42.0971 12.892C42.0971 12.652 42.0371 12.436 41.9171 12.244C41.8051 12.052 41.6491 11.904 41.4491 11.8C41.2491 11.688 41.0251 11.632 40.7771 11.632H38.5211V14.152H40.7891C41.1571 14.152 41.4651 14.032 41.7131 13.792C41.9691 13.544 42.0971 13.244 42.0971 12.892ZM40.8371 17.956C41.2531 17.956 41.6011 17.824 41.8811 17.56C42.1611 17.296 42.3011 16.964 42.3011 16.564C42.3011 16.172 42.1611 15.844 41.8811 15.58C41.6011 15.316 41.2531 15.184 40.8371 15.184H38.5211V17.956H40.8371ZM45.0969 11.392V10.228H46.2009V11.392H45.0969ZM45.1449 19V12.52H46.1649V19H45.1449ZM53.7392 18.04H54.6152V20.716H53.6792V19H48.4592V20.716H47.5232V18.04H48.2192C48.4112 17.864 48.5592 17.616 48.6632 17.296C48.7672 16.968 48.8592 16.472 48.9392 15.808C49.0272 15.136 49.1312 14.04 49.2512 12.52H53.7392V18.04ZM50.1632 13.42C50.0912 14.492 50.0152 15.328 49.9352 15.928C49.8632 16.52 49.7792 16.976 49.6832 17.296C49.5872 17.608 49.4632 17.856 49.3112 18.04H52.7432V13.42H50.1632ZM62.1627 15.784C62.1627 15.872 62.1547 15.996 62.1387 16.156H56.6067C56.6867 16.756 56.9347 17.24 57.3507 17.608C57.7667 17.968 58.2787 18.148 58.8867 18.148C59.3347 18.148 59.7307 18.052 60.0747 17.86C60.4267 17.66 60.7067 17.38 60.9147 17.02H61.9827C61.7107 17.692 61.3027 18.216 60.7587 18.592C60.2147 18.96 59.5907 19.144 58.8867 19.144C57.9507 19.144 57.1667 18.82 56.5347 18.172C55.9027 17.524 55.5867 16.72 55.5867 15.76C55.5867 14.792 55.9027 13.988 56.5347 13.348C57.1667 12.7 57.9507 12.376 58.8867 12.376C59.8547 12.376 60.6427 12.704 61.2507 13.36C61.8587 14.016 62.1627 14.824 62.1627 15.784ZM58.8867 13.348C58.5027 13.348 58.1507 13.424 57.8307 13.576C57.5187 13.728 57.2587 13.948 57.0507 14.236C56.8427 14.516 56.7027 14.84 56.6307 15.208H61.1307C61.0587 14.832 60.9187 14.504 60.7107 14.224C60.5027 13.936 60.2427 13.72 59.9307 13.576C59.6187 13.424 59.2707 13.348 58.8867 13.348ZM66.7007 19.144C66.0607 19.144 65.4767 19 64.9487 18.712C64.4207 18.416 64.0087 18.012 63.7127 17.5C63.4167 16.98 63.2687 16.4 63.2687 15.76C63.2687 14.784 63.5927 13.976 64.2407 13.336C64.8967 12.696 65.7167 12.376 66.7007 12.376C67.3487 12.376 67.9327 12.524 68.4527 12.82C68.9807 13.108 69.3927 13.512 69.6887 14.032C69.9927 14.544 70.1447 15.12 70.1447 15.76C70.1447 16.728 69.8167 17.536 69.1607 18.184C68.5047 18.824 67.6847 19.144 66.7007 19.144ZM64.9847 17.488C65.4407 17.936 66.0127 18.16 66.7007 18.16C67.3967 18.16 67.9687 17.936 68.4167 17.488C68.8727 17.032 69.1007 16.456 69.1007 15.76C69.1007 15.064 68.8727 14.492 68.4167 14.044C67.9687 13.588 67.3967 13.36 66.7007 13.36C66.0127 13.36 65.4407 13.588 64.9847 14.044C64.5367 14.492 64.3127 15.064 64.3127 15.76C64.3127 16.456 64.5367 17.032 64.9847 17.488Z" fill="#FBFBFB"/>
<defs>
<clipPath id="clip0_1912_61218">
<rect width="12" height="12" fill="white" transform="translate(16 10)"/>
</clipPath>
</defs>
</svg>
