<svg width="18" height="18" viewBox="0 0 18 18" fill="none" xmlns="http://www.w3.org/2000/svg">
<path d="M12.375 3.75V12.375C12.375 14.0325 11.0325 15.375 9.375 15.375C7.7175 15.375 6.375 14.0325 6.375 12.375V3C6.375 2.50272 6.57254 2.02581 6.92417 1.67417C7.27581 1.32254 7.75272 1.125 8.25 1.125C8.74728 1.125 9.22419 1.32254 9.57583 1.67417C9.92746 2.02581 10.125 2.50272 10.125 3V10.875C10.125 11.2875 9.7875 11.625 9.375 11.625C8.9625 11.625 8.625 11.2875 8.625 10.875V3.75H7.5V10.875C7.5 11.3723 7.69754 11.8492 8.04917 12.2008C8.40081 12.5525 8.87772 12.75 9.375 12.75C9.87228 12.75 10.3492 12.5525 10.7008 12.2008C11.0525 11.8492 11.25 11.3723 11.25 10.875V3C11.25 1.3425 9.9075 0 8.25 0C6.5925 0 5.25 1.3425 5.25 3V12.375C5.25 14.655 7.095 16.5 9.375 16.5C11.655 16.5 13.5 14.655 13.5 12.375V3.75H12.375Z" fill="#FBFBFB"/>
</svg>
