<svg width="18" height="18" viewBox="0 0 18 18" fill="none" xmlns="http://www.w3.org/2000/svg">
<g clip-path="url(#clip0_1732_3605)">
<path d="M11.9272 5.96968L12.6547 10.0956C12.6703 10.194 12.7053 10.2883 12.7577 10.373C12.8101 10.4576 12.8789 10.531 12.9599 10.5889C13.041 10.6467 13.1328 10.6878 13.2299 10.7098C13.3271 10.7317 13.4276 10.7342 13.5257 10.7169C13.6237 10.6996 13.7174 10.6629 13.8012 10.609C13.8849 10.5552 13.9571 10.4852 14.0135 10.4031C14.0699 10.321 14.1094 10.2285 14.1297 10.131C14.15 10.0335 14.1507 9.93297 14.1317 9.83521L13.0898 3.92621C13.0552 3.73036 12.9443 3.55626 12.7813 3.44219C12.6184 3.32812 12.4169 3.28343 12.221 3.31793L6.31204 4.35985C6.119 4.39736 5.94841 4.50919 5.83701 4.67125C5.72562 4.83331 5.68234 5.03265 5.71649 5.22631C5.75064 5.41998 5.85949 5.59249 6.01959 5.70668C6.17969 5.82087 6.37824 5.86761 6.57247 5.83684L10.6984 5.10932L5.00153 13.2453C4.88744 13.4083 4.84275 13.6099 4.87729 13.8058C4.91183 14.0017 5.02277 14.1758 5.18571 14.2899C5.34865 14.404 5.55024 14.4487 5.74613 14.4141C5.94202 14.3796 6.11617 14.2686 6.23026 14.1057L11.9272 5.96968Z" fill="#050505"/>
</g>
<defs>
<clipPath id="clip0_1732_3605">
<rect width="18" height="18" fill="white"/>
</clipPath>
</defs>
</svg>
