<svg width="40" height="40" viewBox="0 0 40 40" fill="none" xmlns="http://www.w3.org/2000/svg">
<rect width="40" height="40" rx="20" fill="#FBFBFB"/>
<path d="M17.333 13.3359H13.9997C13.8229 13.3359 13.6533 13.4062 13.5283 13.5312C13.4032 13.6562 13.333 13.8258 13.333 14.0026V17.3359C13.333 17.5127 13.4032 17.6823 13.5283 17.8073C13.6533 17.9324 13.8229 18.0026 13.9997 18.0026C14.1765 18.0026 14.3461 17.9324 14.4711 17.8073C14.5961 17.6823 14.6663 17.5127 14.6663 17.3359V14.6693H17.333C17.5098 14.6693 17.6794 14.599 17.8044 14.474C17.9294 14.349 17.9997 14.1794 17.9997 14.0026C17.9997 13.8258 17.9294 13.6562 17.8044 13.5312C17.6794 13.4062 17.5098 13.3359 17.333 13.3359ZM17.333 25.3359H14.6663V22.6693C14.6663 22.4925 14.5961 22.3229 14.4711 22.1979C14.3461 22.0728 14.1765 22.0026 13.9997 22.0026C13.8229 22.0026 13.6533 22.0728 13.5283 22.1979C13.4032 22.3229 13.333 22.4925 13.333 22.6693V26.0026C13.333 26.1794 13.4032 26.349 13.5283 26.474C13.6533 26.599 13.8229 26.6693 13.9997 26.6693H17.333C17.5098 26.6693 17.6794 26.599 17.8044 26.474C17.9294 26.349 17.9997 26.1794 17.9997 26.0026C17.9997 25.8258 17.9294 25.6562 17.8044 25.5312C17.6794 25.4062 17.5098 25.3359 17.333 25.3359ZM25.9997 13.3359H22.6663C22.4895 13.3359 22.32 13.4062 22.1949 13.5312C22.0699 13.6562 21.9997 13.8258 21.9997 14.0026C21.9997 14.1794 22.0699 14.349 22.1949 14.474C22.32 14.599 22.4895 14.6693 22.6663 14.6693H25.333V17.3359C25.333 17.5127 25.4032 17.6823 25.5283 17.8073C25.6533 17.9324 25.8229 18.0026 25.9997 18.0026C26.1765 18.0026 26.3461 17.9324 26.4711 17.8073C26.5961 17.6823 26.6663 17.5127 26.6663 17.3359V14.0026C26.6663 13.8258 26.5961 13.6562 26.4711 13.5312C26.3461 13.4062 26.1765 13.3359 25.9997 13.3359ZM25.9997 22.0026C25.8229 22.0026 25.6533 22.0728 25.5283 22.1979C25.4032 22.3229 25.333 22.4925 25.333 22.6693V25.3359H22.6663C22.4895 25.3359 22.32 25.4062 22.1949 25.5312C22.0699 25.6562 21.9997 25.8258 21.9997 26.0026C21.9997 26.1794 22.0699 26.349 22.1949 26.474C22.32 26.599 22.4895 26.6693 22.6663 26.6693H25.9997C26.1765 26.6693 26.3461 26.599 26.4711 26.474C26.5961 26.349 26.6663 26.1794 26.6663 26.0026V22.6693C26.6663 22.4925 26.5961 22.3229 26.4711 22.1979C26.3461 22.0728 26.1765 22.0026 25.9997 22.0026Z" fill="#383D54"/>
</svg>
