<svg width="17" height="16" viewBox="0 0 17 16" fill="none" xmlns="http://www.w3.org/2000/svg">
<path d="M11.6546 2.24281C11.3279 1.91614 10.8012 1.91614 10.4746 2.24281L4.93455 7.78281C4.87275 7.84449 4.82372 7.91775 4.79026 7.9984C4.75681 8.07905 4.73959 8.1655 4.73959 8.25281C4.73959 8.34012 4.75681 8.42658 4.79026 8.50723C4.82372 8.58788 4.87275 8.66114 4.93455 8.72281L10.4746 14.2628C10.8012 14.5895 11.3279 14.5895 11.6546 14.2628C11.9812 13.9361 11.9812 13.4095 11.6546 13.0828L6.82788 8.24948L11.6612 3.41614C11.9812 3.09614 11.9812 2.56281 11.6546 2.24281Z" fill="#383D54"/>
</svg>
