<svg width="274" height="24" viewBox="0 0 274 24" fill="none" xmlns="http://www.w3.org/2000/svg">
<path d="M14.091 13.1897C14.091 13.5755 13.7782 13.8883 13.3924 13.8883C13.0066 13.8883 12.6938 13.5755 12.6938 13.1897C12.6938 12.8038 13.0066 12.4911 13.3924 12.4911C13.7782 12.4911 14.091 12.8038 14.091 13.1897Z" fill="#050505" fill-opacity="0.7"/>
<path d="M14.4442 16.0664C14.4442 16.4523 14.1314 16.765 13.7456 16.765C13.3598 16.765 13.047 16.4523 13.047 16.0664C13.047 15.6806 13.3598 15.3678 13.7456 15.3678C14.1314 15.3678 14.4442 15.6806 14.4442 16.0664Z" fill="#050505" fill-opacity="0.7"/>
<path d="M12.3158 13.4247C12.3158 13.8105 12.0031 14.1233 11.6172 14.1233C11.2314 14.1233 10.9186 13.8105 10.9186 13.4247C10.9186 13.0389 11.2314 12.7261 11.6172 12.7261C12.0031 12.7261 12.3158 13.0389 12.3158 13.4247Z" fill="#050505" fill-opacity="0.7"/>
<path d="M10.6158 5.45646C10.6158 5.84228 10.303 6.15505 9.91718 6.15505C9.53136 6.15505 9.21859 5.84228 9.21859 5.45646C9.21859 5.07064 9.53136 4.75787 9.91718 4.75787C10.303 4.75787 10.6158 5.07064 10.6158 5.45646Z" fill="#050505" fill-opacity="0.7"/>
<path d="M19.2528 7.22748C19.2528 7.6133 18.94 7.92607 18.5542 7.92607C18.1684 7.92607 17.8556 7.6133 17.8556 7.22748C17.8556 6.84166 18.1684 6.52889 18.5542 6.52889C18.94 6.52889 19.2528 6.84166 19.2528 7.22748Z" fill="#050505" fill-opacity="0.7"/>
<path d="M1.88544 16.7569C1.88544 17.1428 1.57267 17.4555 1.18684 17.4555C0.801023 17.4555 0.488253 17.1428 0.488253 16.7569C0.488253 16.3711 0.801023 16.0584 1.18684 16.0584C1.57267 16.0584 1.88544 16.3711 1.88544 16.7569Z" fill="#050505" fill-opacity="0.7"/>
<path d="M19.6672 2.37269C19.6672 2.75851 19.3545 3.07128 18.9686 3.07128C18.5828 3.07128 18.27 2.75851 18.27 2.37269C18.27 1.98687 18.5828 1.6741 18.9686 1.6741C19.3545 1.6741 19.6672 1.98687 19.6672 2.37269Z" fill="#050505" fill-opacity="0.7"/>
<path d="M10.01 0.933134C10.01 1.31896 9.69725 1.63173 9.31143 1.63173C8.92561 1.63173 8.61284 1.31896 8.61284 0.933134C8.61284 0.547312 8.92561 0.234541 9.31143 0.234541C9.69725 0.234541 10.01 0.547312 10.01 0.933134Z" fill="#050505" fill-opacity="0.7"/>
<path d="M6.50569 21.5465C6.50569 21.9323 6.19292 22.2451 5.8071 22.2451C5.42127 22.2451 5.1085 21.9323 5.1085 21.5465C5.1085 21.1607 5.42127 20.8479 5.8071 20.8479C6.19292 20.8479 6.50569 21.1607 6.50569 21.5465Z" fill="#050505" fill-opacity="0.7"/>
<path d="M22.712 16.7775C22.712 17.1633 22.3993 17.4761 22.0135 17.4761C21.6276 17.4761 21.3149 17.1633 21.3149 16.7775C21.3149 16.3917 21.6276 16.0789 22.0135 16.0789C22.3993 16.0789 22.712 16.3917 22.712 16.7775Z" fill="#050505" fill-opacity="0.7"/>
<path d="M7.84561 6.76086C7.84561 7.14668 7.53284 7.45945 7.14701 7.45945C6.76119 7.45945 6.44842 7.14668 6.44842 6.76086C6.44842 6.37504 6.76119 6.06227 7.14701 6.06227C7.53284 6.06227 7.84561 6.37504 7.84561 6.76086Z" fill="#050505" fill-opacity="0.7"/>
<path d="M18.098 11.4843C18.098 11.8701 17.7853 12.1829 17.3994 12.1829C17.0136 12.1829 16.7008 11.8701 16.7008 11.4843C16.7008 11.0985 17.0136 10.7857 17.3994 10.7857C17.7853 10.7857 18.098 11.0985 18.098 11.4843Z" fill="#050505" fill-opacity="0.7"/>
<path d="M1.39718 11.2689C1.39718 11.6547 1.08441 11.9675 0.698592 11.9675C0.31277 11.9675 0 11.6547 0 11.2689C0 10.8831 0.31277 10.5703 0.698592 10.5703C1.08441 10.5703 1.39718 10.8831 1.39718 11.2689Z" fill="#050505" fill-opacity="0.7"/>
<path d="M14.1732 19.6667C14.1732 20.0525 13.8604 20.3653 13.4746 20.3653C13.0888 20.3653 12.776 20.0525 12.776 19.6667C12.776 19.2809 13.0888 18.9681 13.4746 18.9681C13.8604 18.9681 14.1732 19.2809 14.1732 19.6667Z" fill="#050505" fill-opacity="0.7"/>
<path d="M14.7089 11.8253C14.7089 12.2111 14.3962 12.5239 14.0104 12.5239C13.6245 12.5239 13.3118 12.2111 13.3118 11.8253C13.3118 11.4395 13.6245 11.1267 14.0104 11.1267C14.3962 11.1267 14.7089 11.4395 14.7089 11.8253Z" fill="#050505" fill-opacity="0.7"/>
<path d="M19.3743 20.1487C19.3743 20.5346 19.0615 20.8473 18.6757 20.8473C18.2898 20.8473 17.9771 20.5346 17.9771 20.1487C17.9771 19.7629 18.2898 19.4502 18.6757 19.4502C19.0615 19.4502 19.3743 19.7629 19.3743 20.1487Z" fill="#050505" fill-opacity="0.7"/>
<path d="M19.4898 5.77665C19.4898 6.16247 19.1771 6.47524 18.7912 6.47524C18.4054 6.47524 18.0926 6.16247 18.0926 5.77665C18.0926 5.39083 18.4054 5.07806 18.7912 5.07806C19.1771 5.07806 19.4898 5.39083 19.4898 5.77665Z" fill="#050505" fill-opacity="0.7"/>
<path d="M8.24387 16.9621C8.24387 17.3479 7.9311 17.6607 7.54527 17.6607C7.15945 17.6607 6.84668 17.3479 6.84668 16.9621C6.84668 16.5763 7.15945 16.2635 7.54527 16.2635C7.9311 16.2635 8.24387 16.5763 8.24387 16.9621Z" fill="#050505" fill-opacity="0.7"/>
<path d="M10.1469 3.96989C10.1469 4.35571 9.83414 4.66848 9.44831 4.66848C9.06249 4.66848 8.74972 4.35571 8.74972 3.96989C8.74972 3.58407 9.06249 3.2713 9.44831 3.2713C9.83414 3.2713 10.1469 3.58407 10.1469 3.96989Z" fill="#050505" fill-opacity="0.7"/>
<path d="M20.1873 22.3713C20.1873 22.7572 19.8746 23.0699 19.4887 23.0699C19.1029 23.0699 18.7901 22.7572 18.7901 22.3713C18.7901 21.9855 19.1029 21.6728 19.4887 21.6728C19.8746 21.6728 20.1873 21.9855 20.1873 22.3713Z" fill="#050505" fill-opacity="0.7"/>
<path d="M11.0335 10.5836C11.0335 10.9694 10.7208 11.2821 10.3349 11.2821C9.94911 11.2821 9.63634 10.9694 9.63634 10.5836C9.63634 10.1977 9.94911 9.88496 10.3349 9.88496C10.7208 9.88496 11.0335 10.1977 11.0335 10.5836Z" fill="#050505" fill-opacity="0.7"/>
<path d="M10.0485 2.72884C10.0485 3.11466 9.73571 3.42743 9.34989 3.42743C8.96407 3.42743 8.6513 3.11466 8.6513 2.72884C8.6513 2.34302 8.96407 2.03025 9.34989 2.03025C9.73571 2.03025 10.0485 2.34302 10.0485 2.72884Z" fill="#050505" fill-opacity="0.7"/>
<path d="M14.385 16.5936C14.385 16.9794 14.0722 17.2922 13.6864 17.2922C13.3006 17.2922 12.9878 16.9794 12.9878 16.5936C12.9878 16.2078 13.3006 15.895 13.6864 15.895C14.0722 15.895 14.385 16.2078 14.385 16.5936Z" fill="#050505" fill-opacity="0.7"/>
<path d="M6.67842 18.6125C6.67842 18.9983 6.36565 19.3111 5.97983 19.3111C5.594 19.3111 5.28123 18.9983 5.28123 18.6125C5.28123 18.2266 5.594 17.9139 5.97983 17.9139C6.36565 17.9139 6.67842 18.2266 6.67842 18.6125Z" fill="#050505" fill-opacity="0.7"/>
<path d="M1.50535 14.667C1.50535 15.0528 1.19258 15.3656 0.806758 15.3656C0.420936 15.3656 0.108166 15.0528 0.108166 14.667C0.108166 14.2812 0.420936 13.9684 0.806758 13.9684C1.19258 13.9684 1.50535 14.2812 1.50535 14.667Z" fill="#050505" fill-opacity="0.7"/>
<path d="M43.4644 17.1196C43.4644 17.5054 43.1516 17.8182 42.7658 17.8182C42.3799 17.8182 42.0672 17.5054 42.0672 17.1196C42.0672 16.7338 42.3799 16.421 42.7658 16.421C43.1516 16.421 43.4644 16.7338 43.4644 17.1196Z" fill="#050505" fill-opacity="0.7"/>
<path d="M36.9101 13.8641C36.9101 14.2499 36.5973 14.5627 36.2115 14.5627C35.8257 14.5627 35.5129 14.2499 35.5129 13.8641C35.5129 13.4783 35.8257 13.1655 36.2115 13.1655C36.5973 13.1655 36.9101 13.4783 36.9101 13.8641Z" fill="#050505" fill-opacity="0.7"/>
<path d="M32.5854 11.2789C32.5854 11.6647 32.2726 11.9775 31.8868 11.9775C31.501 11.9775 31.1882 11.6647 31.1882 11.2789C31.1882 10.8931 31.501 10.5803 31.8868 10.5803C32.2726 10.5803 32.5854 10.8931 32.5854 11.2789Z" fill="#050505" fill-opacity="0.7"/>
<path d="M44.0513 22.0964C44.0513 22.4823 43.7385 22.795 43.3527 22.795C42.9669 22.795 42.6541 22.4823 42.6541 22.0964C42.6541 21.7106 42.9669 21.3979 43.3527 21.3979C43.7385 21.3979 44.0513 21.7106 44.0513 22.0964Z" fill="#050505" fill-opacity="0.7"/>
<path d="M36.8454 21.9549C36.8454 22.3407 36.5326 22.6535 36.1468 22.6535C35.761 22.6535 35.4482 22.3407 35.4482 21.9549C35.4482 21.5691 35.761 21.2563 36.1468 21.2563C36.5326 21.2563 36.8454 21.5691 36.8454 21.9549Z" fill="#050505" fill-opacity="0.7"/>
<path d="M26.6207 20.6093C26.6207 20.9951 26.3079 21.3079 25.9221 21.3079C25.5363 21.3079 25.2235 20.9951 25.2235 20.6093C25.2235 20.2235 25.5363 19.9107 25.9221 19.9107C26.3079 19.9107 26.6207 20.2235 26.6207 20.6093Z" fill="#050505" fill-opacity="0.7"/>
<path d="M40.0467 17.3559C40.0467 17.7418 39.7339 18.0545 39.3481 18.0545C38.9623 18.0545 38.6495 17.7418 38.6495 17.3559C38.6495 16.9701 38.9623 16.6573 39.3481 16.6573C39.7339 16.6573 40.0467 16.9701 40.0467 17.3559Z" fill="#050505" fill-opacity="0.7"/>
<path d="M37.1222 20.0596C37.1222 20.4454 36.8094 20.7582 36.4236 20.7582C36.0377 20.7582 35.725 20.4454 35.725 20.0596C35.725 19.6737 36.0377 19.361 36.4236 19.361C36.8094 19.361 37.1222 19.6737 37.1222 20.0596Z" fill="#050505" fill-opacity="0.7"/>
<path d="M38.8412 12.0266C38.8412 12.4124 38.5285 12.7251 38.1426 12.7251C37.7568 12.7251 37.4441 12.4124 37.4441 12.0266C37.4441 11.6407 37.7568 11.328 38.1426 11.328C38.5285 11.328 38.8412 11.6407 38.8412 12.0266Z" fill="#050505" fill-opacity="0.7"/>
<path d="M32.8006 7.81589C32.8006 8.20171 32.4878 8.51448 32.102 8.51448C31.7162 8.51448 31.4034 8.20171 31.4034 7.81589C31.4034 7.43007 31.7162 7.1173 32.102 7.1173C32.4878 7.1173 32.8006 7.43007 32.8006 7.81589Z" fill="#050505" fill-opacity="0.7"/>
<path d="M39.1354 17.3794C39.1354 17.7652 38.8227 18.078 38.4368 18.078C38.051 18.078 37.7382 17.7652 37.7382 17.3794C37.7382 16.9936 38.051 16.6808 38.4368 16.6808C38.8227 16.6808 39.1354 16.9936 39.1354 17.3794Z" fill="#050505" fill-opacity="0.7"/>
<path d="M24.0973 20.2792C24.0973 20.665 23.7845 20.9778 23.3987 20.9778C23.0129 20.9778 22.7001 20.665 22.7001 20.2792C22.7001 19.8933 23.0129 19.5806 23.3987 19.5806C23.7845 19.5806 24.0973 19.8933 24.0973 20.2792Z" fill="#050505" fill-opacity="0.7"/>
<path d="M43.5036 6.58958C43.5036 6.9754 43.1909 7.28817 42.8051 7.28817C42.4192 7.28817 42.1065 6.9754 42.1065 6.58958C42.1065 6.20375 42.4192 5.89098 42.8051 5.89098C43.1909 5.89098 43.5036 6.20375 43.5036 6.58958Z" fill="#050505" fill-opacity="0.7"/>
<path d="M24.9637 8.43439C24.9637 8.82022 24.6509 9.13299 24.2651 9.13299C23.8793 9.13299 23.5665 8.82022 23.5665 8.43439C23.5665 8.04857 23.8793 7.7358 24.2651 7.7358C24.6509 7.7358 24.9637 8.04857 24.9637 8.43439Z" fill="#050505" fill-opacity="0.7"/>
<path d="M44.9045 18.7341C44.9045 19.1199 44.5918 19.4327 44.2059 19.4327C43.8201 19.4327 43.5073 19.1199 43.5073 18.7341C43.5073 18.3483 43.8201 18.0355 44.2059 18.0355C44.5918 18.0355 44.9045 18.3483 44.9045 18.7341Z" fill="#050505" fill-opacity="0.7"/>
<path d="M41.6319 11.4037C41.6319 11.7895 41.3191 12.1022 40.9333 12.1022C40.5475 12.1022 40.2347 11.7895 40.2347 11.4037C40.2347 11.0178 40.5475 10.7051 40.9333 10.7051C41.3191 10.7051 41.6319 11.0178 41.6319 11.4037Z" fill="#050505" fill-opacity="0.7"/>
<path d="M44.1944 20.5537C44.1944 20.9395 43.8817 21.2523 43.4958 21.2523C43.11 21.2523 42.7973 20.9395 42.7973 20.5537C42.7973 20.1679 43.11 19.8551 43.4958 19.8551C43.8817 19.8551 44.1944 20.1679 44.1944 20.5537Z" fill="#050505" fill-opacity="0.7"/>
<path d="M44.1689 17.2694C44.1689 17.6552 43.8561 17.968 43.4703 17.968C43.0845 17.968 42.7717 17.6552 42.7717 17.2694C42.7717 16.8836 43.0845 16.5708 43.4703 16.5708C43.8561 16.5708 44.1689 16.8836 44.1689 17.2694Z" fill="#050505" fill-opacity="0.7"/>
<path d="M31.0012 16.5839C31.0012 16.9697 30.6884 17.2824 30.3026 17.2824C29.9168 17.2824 29.604 16.9697 29.604 16.5839C29.604 16.198 29.9168 15.8853 30.3026 15.8853C30.6884 15.8853 31.0012 16.198 31.0012 16.5839Z" fill="#050505" fill-opacity="0.7"/>
<path d="M36.9047 16.1843C36.9047 16.5701 36.5919 16.8829 36.2061 16.8829C35.8203 16.8829 35.5075 16.5701 35.5075 16.1843C35.5075 15.7985 35.8203 15.4857 36.2061 15.4857C36.5919 15.4857 36.9047 15.7985 36.9047 16.1843Z" fill="#050505" fill-opacity="0.7"/>
<path d="M29.6543 10.7524C29.6543 11.1382 29.3415 11.4509 28.9557 11.4509C28.5699 11.4509 28.2571 11.1382 28.2571 10.7524C28.2571 10.3665 28.5699 10.0538 28.9557 10.0538C29.3415 10.0538 29.6543 10.3665 29.6543 10.7524Z" fill="#050505" fill-opacity="0.7"/>
<path d="M44.3743 1.39049C44.3743 1.77631 44.0615 2.08908 43.6757 2.08908C43.2899 2.08908 42.9771 1.77631 42.9771 1.39049C42.9771 1.00467 43.2899 0.6919 43.6757 0.6919C44.0615 0.6919 44.3743 1.00467 44.3743 1.39049Z" fill="#050505" fill-opacity="0.7"/>
<path d="M26.1272 7.70632C26.1272 8.09214 25.8144 8.40491 25.4286 8.40491C25.0428 8.40491 24.73 8.09214 24.73 7.70632C24.73 7.3205 25.0428 7.00773 25.4286 7.00773C25.8144 7.00773 26.1272 7.3205 26.1272 7.70632Z" fill="#050505" fill-opacity="0.7"/>
<path d="M35.8468 4.45432C35.8468 4.84014 35.534 5.15291 35.1482 5.15291C34.7624 5.15291 34.4496 4.84014 34.4496 4.45432C34.4496 4.0685 34.7624 3.75573 35.1482 3.75573C35.534 3.75573 35.8468 4.0685 35.8468 4.45432Z" fill="#050505" fill-opacity="0.7"/>
<path d="M38.5361 17.5147C38.5361 17.9005 38.2234 18.2133 37.8375 18.2133C37.4517 18.2133 37.139 17.9005 37.139 17.5147C37.139 17.1289 37.4517 16.8161 37.8375 16.8161C38.2234 16.8161 38.5361 17.1289 38.5361 17.5147Z" fill="#050505" fill-opacity="0.7"/>
<path d="M53.2001 5.1992C53.2001 5.58502 52.8874 5.89779 52.5015 5.89779C52.1157 5.89779 51.8029 5.58502 51.8029 5.1992C51.8029 4.81338 52.1157 4.50061 52.5015 4.50061C52.8874 4.50061 53.2001 4.81338 53.2001 5.1992Z" fill="#050505" fill-opacity="0.7"/>
<path d="M59.5446 19.3396C59.5446 19.7254 59.2318 20.0382 58.846 20.0382C58.4601 20.0382 58.1474 19.7254 58.1474 19.3396C58.1474 18.9538 58.4601 18.641 58.846 18.641C59.2318 18.641 59.5446 18.9538 59.5446 19.3396Z" fill="#050505" fill-opacity="0.7"/>
<path d="M56.6798 14.8843C56.6798 15.2701 56.367 15.5829 55.9812 15.5829C55.5954 15.5829 55.2826 15.2701 55.2826 14.8843C55.2826 14.4985 55.5954 14.1857 55.9812 14.1857C56.367 14.1857 56.6798 14.4985 56.6798 14.8843Z" fill="#050505" fill-opacity="0.7"/>
<path d="M65.4899 12.9414C65.4899 13.3272 65.1771 13.64 64.7913 13.64C64.4055 13.64 64.0927 13.3272 64.0927 12.9414C64.0927 12.5555 64.4055 12.2428 64.7913 12.2428C65.1771 12.2428 65.4899 12.5555 65.4899 12.9414Z" fill="#050505" fill-opacity="0.7"/>
<path d="M61.6097 21.271C61.6097 21.6568 61.2969 21.9695 60.9111 21.9695C60.5253 21.9695 60.2125 21.6568 60.2125 21.271C60.2125 20.8851 60.5253 20.5724 60.9111 20.5724C61.2969 20.5724 61.6097 20.8851 61.6097 21.271Z" fill="#050505" fill-opacity="0.7"/>
<path d="M52.5111 18.3555C52.5111 18.7414 52.1983 19.0541 51.8125 19.0541C51.4267 19.0541 51.1139 18.7414 51.1139 18.3555C51.1139 17.9697 51.4267 17.6569 51.8125 17.6569C52.1983 17.6569 52.5111 17.9697 52.5111 18.3555Z" fill="#050505" fill-opacity="0.7"/>
<path d="M52.5181 6.98969C52.5181 7.37551 52.2054 7.68828 51.8195 7.68828C51.4337 7.68828 51.1209 7.37551 51.1209 6.98969C51.1209 6.60387 51.4337 6.29109 51.8195 6.29109C52.2054 6.29109 52.5181 6.60387 52.5181 6.98969Z" fill="#050505" fill-opacity="0.7"/>
<path d="M68.5986 13.108C68.5986 13.4938 68.2858 13.8066 67.9 13.8066C67.5142 13.8066 67.2014 13.4938 67.2014 13.108C67.2014 12.7222 67.5142 12.4094 67.9 12.4094C68.2858 12.4094 68.5986 12.7222 68.5986 13.108Z" fill="#050505" fill-opacity="0.7"/>
<path d="M63.5773 11.9548C63.5773 12.3406 63.2645 12.6533 62.8787 12.6533C62.4929 12.6533 62.1801 12.3406 62.1801 11.9548C62.1801 11.5689 62.4929 11.2562 62.8787 11.2562C63.2645 11.2562 63.5773 11.5689 63.5773 11.9548Z" fill="#050505" fill-opacity="0.7"/>
<path d="M67.0019 2.25086C67.0019 2.63668 66.6891 2.94946 66.3033 2.94946C65.9175 2.94946 65.6047 2.63668 65.6047 2.25086C65.6047 1.86504 65.9175 1.55227 66.3033 1.55227C66.6891 1.55227 67.0019 1.86504 67.0019 2.25086Z" fill="#050505" fill-opacity="0.7"/>
<path d="M58.6515 20.9053C58.6515 21.2911 58.3387 21.6039 57.9529 21.6039C57.567 21.6039 57.2543 21.2911 57.2543 20.9053C57.2543 20.5195 57.567 20.2067 57.9529 20.2067C58.3387 20.2067 58.6515 20.5195 58.6515 20.9053Z" fill="#050505" fill-opacity="0.7"/>
<path d="M56.1849 20.2595C56.1849 20.6453 55.8721 20.958 55.4863 20.958C55.1004 20.958 54.7877 20.6453 54.7877 20.2595C54.7877 19.8736 55.1004 19.5609 55.4863 19.5609C55.8721 19.5609 56.1849 19.8736 56.1849 20.2595Z" fill="#050505" fill-opacity="0.7"/>
<path d="M52.1299 13.8607C52.1299 14.2465 51.8171 14.5593 51.4313 14.5593C51.0455 14.5593 50.7327 14.2465 50.7327 13.8607C50.7327 13.4749 51.0455 13.1621 51.4313 13.1621C51.8171 13.1621 52.1299 13.4749 52.1299 13.8607Z" fill="#050505" fill-opacity="0.7"/>
<path d="M60.8019 20.4047C60.8019 20.7905 60.4891 21.1033 60.1033 21.1033C59.7175 21.1033 59.4047 20.7905 59.4047 20.4047C59.4047 20.0189 59.7175 19.7061 60.1033 19.7061C60.4891 19.7061 60.8019 20.0189 60.8019 20.4047Z" fill="#050505" fill-opacity="0.7"/>
<path d="M53.3768 18.0352C53.3768 18.4211 53.064 18.7338 52.6782 18.7338C52.2924 18.7338 51.9796 18.4211 51.9796 18.0352C51.9796 17.6494 52.2924 17.3366 52.6782 17.3366C53.064 17.3366 53.3768 17.6494 53.3768 18.0352Z" fill="#050505" fill-opacity="0.7"/>
<path d="M50.8379 22.9663C50.8379 23.3522 50.5251 23.6649 50.1393 23.6649C49.7534 23.6649 49.4407 23.3522 49.4407 22.9663C49.4407 22.5805 49.7534 22.2677 50.1393 22.2677C50.5251 22.2677 50.8379 22.5805 50.8379 22.9663Z" fill="#050505" fill-opacity="0.7"/>
<path d="M55.3205 9.6687C55.3205 10.0545 55.0078 10.3673 54.6219 10.3673C54.2361 10.3673 53.9234 10.0545 53.9234 9.6687C53.9234 9.28287 54.2361 8.9701 54.6219 8.9701C55.0078 8.9701 55.3205 9.28287 55.3205 9.6687Z" fill="#050505" fill-opacity="0.7"/>
<path d="M46.2468 12.7846C46.2468 13.1705 45.934 13.4832 45.5482 13.4832C45.1624 13.4832 44.8496 13.1705 44.8496 12.7846C44.8496 12.3988 45.1624 12.0861 45.5482 12.0861C45.934 12.0861 46.2468 12.3988 46.2468 12.7846Z" fill="#050505" fill-opacity="0.7"/>
<path d="M53.2176 4.40216C53.2176 4.78799 52.9048 5.10076 52.519 5.10076C52.1331 5.10076 51.8204 4.78799 51.8204 4.40216C51.8204 4.01634 52.1331 3.70357 52.519 3.70357C52.9048 3.70357 53.2176 4.01634 53.2176 4.40216Z" fill="#050505" fill-opacity="0.7"/>
<path d="M48.1079 0.946823C48.1079 1.33264 47.7951 1.64541 47.4093 1.64541C47.0235 1.64541 46.7107 1.33264 46.7107 0.946823C46.7107 0.561001 47.0235 0.24823 47.4093 0.24823C47.7951 0.24823 48.1079 0.561001 48.1079 0.946823Z" fill="#050505" fill-opacity="0.7"/>
<path d="M62.4039 9.25725C62.4039 9.64307 62.0911 9.95584 61.7053 9.95584C61.3195 9.95584 61.0067 9.64307 61.0067 9.25725C61.0067 8.87143 61.3195 8.55866 61.7053 8.55866C62.0911 8.55866 62.4039 8.87143 62.4039 9.25725Z" fill="#050505" fill-opacity="0.7"/>
<path d="M59.5306 18.4197C59.5306 18.8055 59.2178 19.1183 58.832 19.1183C58.4462 19.1183 58.1334 18.8055 58.1334 18.4197C58.1334 18.0339 58.4462 17.7211 58.832 17.7211C59.2178 17.7211 59.5306 18.0339 59.5306 18.4197Z" fill="#050505" fill-opacity="0.7"/>
<path d="M68.8063 18.9733C68.8063 19.3591 68.4936 19.6718 68.1077 19.6718C67.7219 19.6718 67.4092 19.3591 67.4092 18.9733C67.4092 18.5874 67.7219 18.2747 68.1077 18.2747C68.4936 18.2747 68.8063 18.5874 68.8063 18.9733Z" fill="#050505" fill-opacity="0.7"/>
<path d="M48.7585 13.1568C48.7585 13.5426 48.4458 13.8554 48.0599 13.8554C47.6741 13.8554 47.3614 13.5426 47.3614 13.1568C47.3614 12.771 47.6741 12.4582 48.0599 12.4582C48.4458 12.4582 48.7585 12.771 48.7585 13.1568Z" fill="#050505" fill-opacity="0.7"/>
<path d="M49.5735 6.89767C49.5735 7.28349 49.2607 7.59626 48.8749 7.59626C48.489 7.59626 48.1763 7.28349 48.1763 6.89767C48.1763 6.51185 48.489 6.19908 48.8749 6.19908C49.2607 6.19908 49.5735 6.51185 49.5735 6.89767Z" fill="#050505" fill-opacity="0.7"/>
<path d="M82.8707 22.9427C82.8707 23.3286 82.5579 23.6413 82.1721 23.6413C81.7863 23.6413 81.4735 23.3286 81.4735 22.9427C81.4735 22.5569 81.7863 22.2441 82.1721 22.2441C82.5579 22.2441 82.8707 22.5569 82.8707 22.9427Z" fill="#050505" fill-opacity="0.7"/>
<path d="M70.999 11.3592C70.999 11.745 70.6862 12.0578 70.3004 12.0578C69.9146 12.0578 69.6018 11.745 69.6018 11.3592C69.6018 10.9734 69.9146 10.6606 70.3004 10.6606C70.6862 10.6606 70.999 10.9734 70.999 11.3592Z" fill="#050505" fill-opacity="0.7"/>
<path d="M79.2134 20.1458C79.2134 20.5316 78.9007 20.8444 78.5148 20.8444C78.129 20.8444 77.8162 20.5316 77.8162 20.1458C77.8162 19.76 78.129 19.4472 78.5148 19.4472C78.9007 19.4472 79.2134 19.76 79.2134 20.1458Z" fill="#050505" fill-opacity="0.7"/>
<path d="M74.0366 15.1761C74.0366 15.562 73.7238 15.8747 73.338 15.8747C72.9522 15.8747 72.6394 15.562 72.6394 15.1761C72.6394 14.7903 72.9522 14.4776 73.338 14.4776C73.7238 14.4776 74.0366 14.7903 74.0366 15.1761Z" fill="#050505" fill-opacity="0.7"/>
<path d="M72.2746 15.8433C72.2746 16.2291 71.9618 16.5419 71.576 16.5419C71.1902 16.5419 70.8774 16.2291 70.8774 15.8433C70.8774 15.4575 71.1902 15.1447 71.576 15.1447C71.9618 15.1447 72.2746 15.4575 72.2746 15.8433Z" fill="#050505" fill-opacity="0.7"/>
<path d="M84.3949 17.757C84.3949 18.1428 84.0822 18.4556 83.6963 18.4556C83.3105 18.4556 82.9977 18.1428 82.9977 17.757C82.9977 17.3712 83.3105 17.0584 83.6963 17.0584C84.0822 17.0584 84.3949 17.3712 84.3949 17.757Z" fill="#050505" fill-opacity="0.7"/>
<path d="M73.2693 10.5494C73.2693 10.9353 72.9566 11.248 72.5707 11.248C72.1849 11.248 71.8722 10.9353 71.8722 10.5494C71.8722 10.1636 72.1849 9.85085 72.5707 9.85085C72.9566 9.85085 73.2693 10.1636 73.2693 10.5494Z" fill="#050505" fill-opacity="0.7"/>
<path d="M88.6151 18.5515C88.6151 18.9373 88.3024 19.2501 87.9165 19.2501C87.5307 19.2501 87.2179 18.9373 87.2179 18.5515C87.2179 18.1657 87.5307 17.8529 87.9165 17.8529C88.3024 17.8529 88.6151 18.1657 88.6151 18.5515Z" fill="#050505" fill-opacity="0.7"/>
<path d="M73.3815 9.39585C73.3815 9.78167 73.0687 10.0944 72.6829 10.0944C72.2971 10.0944 71.9843 9.78167 71.9843 9.39585C71.9843 9.01002 72.2971 8.69725 72.6829 8.69725C73.0687 8.69725 73.3815 9.01002 73.3815 9.39585Z" fill="#050505" fill-opacity="0.7"/>
<path d="M81.0212 19.0966C81.0212 19.4824 80.7085 19.7952 80.3226 19.7952C79.9368 19.7952 79.6241 19.4824 79.6241 19.0966C79.6241 18.7108 79.9368 18.398 80.3226 18.398C80.7085 18.398 81.0212 18.7108 81.0212 19.0966Z" fill="#050505" fill-opacity="0.7"/>
<path d="M71.0322 6.87932C71.0322 7.26514 70.7194 7.57791 70.3336 7.57791C69.9478 7.57791 69.635 7.26514 69.635 6.87932C69.635 6.4935 69.9478 6.18073 70.3336 6.18073C70.7194 6.18073 71.0322 6.4935 71.0322 6.87932Z" fill="#050505" fill-opacity="0.7"/>
<path d="M83.0537 21.0962C83.0537 21.4821 82.7409 21.7948 82.3551 21.7948C81.9693 21.7948 81.6565 21.4821 81.6565 21.0962C81.6565 20.7104 81.9693 20.3976 82.3551 20.3976C82.7409 20.3976 83.0537 20.7104 83.0537 21.0962Z" fill="#050505" fill-opacity="0.7"/>
<path d="M90.68 6.6803C90.68 7.06612 90.3673 7.37889 89.9815 7.37889C89.5956 7.37889 89.2829 7.06612 89.2829 6.6803C89.2829 6.29448 89.5956 5.98171 89.9815 5.98171C90.3673 5.98171 90.68 6.29448 90.68 6.6803Z" fill="#050505" fill-opacity="0.7"/>
<path d="M83.7182 16.1746C83.7182 16.5604 83.4054 16.8732 83.0196 16.8732C82.6338 16.8732 82.321 16.5604 82.321 16.1746C82.321 15.7888 82.6338 15.476 83.0196 15.476C83.4054 15.476 83.7182 15.7888 83.7182 16.1746Z" fill="#050505" fill-opacity="0.7"/>
<path d="M81.2287 10.0196C81.2287 10.4054 80.9159 10.7182 80.5301 10.7182C80.1443 10.7182 79.8315 10.4054 79.8315 10.0196C79.8315 9.6338 80.1443 9.32103 80.5301 9.32103C80.9159 9.32103 81.2287 9.6338 81.2287 10.0196Z" fill="#050505" fill-opacity="0.7"/>
<path d="M71.8252 15.9663C71.8252 16.3522 71.5125 16.6649 71.1266 16.6649C70.7408 16.6649 70.4281 16.3522 70.4281 15.9663C70.4281 15.5805 70.7408 15.2677 71.1266 15.2677C71.5125 15.2677 71.8252 15.5805 71.8252 15.9663Z" fill="#050505" fill-opacity="0.7"/>
<path d="M83.1145 17.0872C83.1145 17.473 82.8017 17.7858 82.4159 17.7858C82.0301 17.7858 81.7173 17.473 81.7173 17.0872C81.7173 16.7014 82.0301 16.3886 82.4159 16.3886C82.8017 16.3886 83.1145 16.7014 83.1145 17.0872Z" fill="#050505" fill-opacity="0.7"/>
<path d="M79.0658 21.439C79.0658 21.8248 78.753 22.1376 78.3672 22.1376C77.9814 22.1376 77.6686 21.8248 77.6686 21.439C77.6686 21.0532 77.9814 20.7404 78.3672 20.7404C78.753 20.7404 79.0658 21.0532 79.0658 21.439Z" fill="#050505" fill-opacity="0.7"/>
<path d="M86.2487 16.3768C86.2487 16.7627 85.9359 17.0754 85.5501 17.0754C85.1642 17.0754 84.8515 16.7627 84.8515 16.3768C84.8515 15.991 85.1642 15.6782 85.5501 15.6782C85.9359 15.6782 86.2487 15.991 86.2487 16.3768Z" fill="#050505" fill-opacity="0.7"/>
<path d="M81.3618 0.698592C81.3618 1.08441 81.049 1.39718 80.6632 1.39718C80.2774 1.39718 79.9646 1.08441 79.9646 0.698592C79.9646 0.31277 80.2774 0 80.6632 0C81.049 0 81.3618 0.31277 81.3618 0.698592Z" fill="#050505" fill-opacity="0.7"/>
<path d="M90.8803 5.28858C90.8803 5.6744 90.5675 5.98717 90.1817 5.98717C89.7959 5.98717 89.4831 5.6744 89.4831 5.28858C89.4831 4.90276 89.7959 4.58999 90.1817 4.58999C90.5675 4.58999 90.8803 4.90276 90.8803 5.28858Z" fill="#050505" fill-opacity="0.7"/>
<path d="M72.1674 8.05248C72.1674 8.4383 71.8546 8.75107 71.4688 8.75107C71.083 8.75107 70.7702 8.4383 70.7702 8.05248C70.7702 7.66666 71.083 7.35389 71.4688 7.35389C71.8546 7.35389 72.1674 7.66666 72.1674 8.05248Z" fill="#050505" fill-opacity="0.7"/>
<path d="M75.1195 4.65562C75.1195 5.04144 74.8067 5.35421 74.4209 5.35421C74.035 5.35421 73.7223 5.04144 73.7223 4.65562C73.7223 4.2698 74.035 3.95703 74.4209 3.95703C74.8067 3.95703 75.1195 4.2698 75.1195 4.65562Z" fill="#050505" fill-opacity="0.7"/>
<path d="M70.5751 17.5085C70.5751 17.8944 70.2624 18.2071 69.8765 18.2071C69.4907 18.2071 69.1779 17.8944 69.1779 17.5085C69.1779 17.1227 69.4907 16.8099 69.8765 16.8099C70.2624 16.8099 70.5751 17.1227 70.5751 17.5085Z" fill="#050505" fill-opacity="0.7"/>
<path d="M82.7873 12.9138C82.7873 13.2996 82.4745 13.6124 82.0887 13.6124C81.7028 13.6124 81.3901 13.2996 81.3901 12.9138C81.3901 12.5279 81.7028 12.2152 82.0887 12.2152C82.4745 12.2152 82.7873 12.5279 82.7873 12.9138Z" fill="#050505" fill-opacity="0.7"/>
<path d="M105.594 19.881C105.594 20.2668 105.281 20.5796 104.895 20.5796C104.509 20.5796 104.197 20.2668 104.197 19.881C104.197 19.4952 104.509 19.1824 104.895 19.1824C105.281 19.1824 105.594 19.4952 105.594 19.881Z" fill="#050505" fill-opacity="0.7"/>
<path d="M103.711 12.396C103.711 12.7818 103.399 13.0946 103.013 13.0946C102.627 13.0946 102.314 12.7818 102.314 12.396C102.314 12.0102 102.627 11.6974 103.013 11.6974C103.399 11.6974 103.711 12.0102 103.711 12.396Z" fill="#050505" fill-opacity="0.7"/>
<path d="M112.496 4.9622C112.496 5.34802 112.183 5.66079 111.797 5.66079C111.412 5.66079 111.099 5.34802 111.099 4.9622C111.099 4.57637 111.412 4.2636 111.797 4.2636C112.183 4.2636 112.496 4.57637 112.496 4.9622Z" fill="#050505" fill-opacity="0.7"/>
<path d="M100.525 19.26C100.525 19.6458 100.212 19.9586 99.8262 19.9586C99.4404 19.9586 99.1276 19.6458 99.1276 19.26C99.1276 18.8742 99.4404 18.5614 99.8262 18.5614C100.212 18.5614 100.525 18.8742 100.525 19.26Z" fill="#050505" fill-opacity="0.7"/>
<path d="M110.092 16.0271C110.092 16.4129 109.78 16.7256 109.394 16.7256C109.008 16.7256 108.695 16.4129 108.695 16.0271C108.695 15.6412 109.008 15.3285 109.394 15.3285C109.78 15.3285 110.092 15.6412 110.092 16.0271Z" fill="#050505" fill-opacity="0.7"/>
<path d="M107.254 17.6594C107.254 18.0452 106.941 18.358 106.555 18.358C106.169 18.358 105.857 18.0452 105.857 17.6594C105.857 17.2736 106.169 16.9608 106.555 16.9608C106.941 16.9608 107.254 17.2736 107.254 17.6594Z" fill="#050505" fill-opacity="0.7"/>
<path d="M113.46 21.773C113.46 22.1588 113.147 22.4716 112.762 22.4716C112.376 22.4716 112.063 22.1588 112.063 21.773C112.063 21.3872 112.376 21.0744 112.762 21.0744C113.147 21.0744 113.46 21.3872 113.46 21.773Z" fill="#050505" fill-opacity="0.7"/>
<path d="M101.908 19.1149C101.908 19.5007 101.596 19.8135 101.21 19.8135C100.824 19.8135 100.511 19.5007 100.511 19.1149C100.511 18.7291 100.824 18.4163 101.21 18.4163C101.596 18.4163 101.908 18.7291 101.908 19.1149Z" fill="#050505" fill-opacity="0.7"/>
<path d="M94.6284 17.5052C94.6284 17.8911 94.3156 18.2038 93.9298 18.2038C93.544 18.2038 93.2312 17.8911 93.2312 17.5052C93.2312 17.1194 93.544 16.8066 93.9298 16.8066C94.3156 16.8066 94.6284 17.1194 94.6284 17.5052Z" fill="#050505" fill-opacity="0.7"/>
<path d="M94.9262 1.29315C94.9262 1.67897 94.6134 1.99174 94.2276 1.99174C93.8418 1.99174 93.529 1.67897 93.529 1.29315C93.529 0.907325 93.8418 0.594555 94.2276 0.594555C94.6134 0.594555 94.9262 0.907325 94.9262 1.29315Z" fill="#050505" fill-opacity="0.7"/>
<path d="M111.144 15.027C111.144 15.4128 110.831 15.7256 110.446 15.7256C110.06 15.7256 109.747 15.4128 109.747 15.027C109.747 14.6412 110.06 14.3284 110.446 14.3284C110.831 14.3284 111.144 14.6412 111.144 15.027Z" fill="#050505" fill-opacity="0.7"/>
<path d="M97.236 18.071C97.236 18.4569 96.9233 18.7696 96.5374 18.7696C96.1516 18.7696 95.8388 18.4569 95.8388 18.071C95.8388 17.6852 96.1516 17.3725 96.5374 17.3725C96.9233 17.3725 97.236 17.6852 97.236 18.071Z" fill="#050505" fill-opacity="0.7"/>
<path d="M100.598 12.0064C100.598 12.3923 100.285 12.705 99.8992 12.705C99.5134 12.705 99.2006 12.3923 99.2006 12.0064C99.2006 11.6206 99.5134 11.3078 99.8992 11.3078C100.285 11.3078 100.598 11.6206 100.598 12.0064Z" fill="#050505" fill-opacity="0.7"/>
<path d="M91.8236 6.00073C91.8236 6.38656 91.5108 6.69933 91.125 6.69933C90.7392 6.69933 90.4264 6.38656 90.4264 6.00073C90.4264 5.61491 90.7392 5.30214 91.125 5.30214C91.5108 5.30214 91.8236 5.61491 91.8236 6.00073Z" fill="#050505" fill-opacity="0.7"/>
<path d="M103.232 9.36213C103.232 9.74795 102.919 10.0607 102.533 10.0607C102.148 10.0607 101.835 9.74795 101.835 9.36213C101.835 8.97631 102.148 8.66353 102.533 8.66353C102.919 8.66353 103.232 8.97631 103.232 9.36213Z" fill="#050505" fill-opacity="0.7"/>
<path d="M100.914 1.08887C100.914 1.47469 100.601 1.78746 100.215 1.78746C99.8292 1.78746 99.5164 1.47469 99.5164 1.08887C99.5164 0.703043 99.8292 0.390273 100.215 0.390273C100.601 0.390273 100.914 0.703043 100.914 1.08887Z" fill="#050505" fill-opacity="0.7"/>
<path d="M100.292 4.16003C100.292 4.54585 99.9794 4.85862 99.5935 4.85862C99.2077 4.85862 98.8949 4.54585 98.8949 4.16003C98.8949 3.77421 99.2077 3.46144 99.5935 3.46144C99.9794 3.46144 100.292 3.77421 100.292 4.16003Z" fill="#050505" fill-opacity="0.7"/>
<path d="M112.193 1.19963C112.193 1.58546 111.881 1.89823 111.495 1.89823C111.109 1.89823 110.796 1.58546 110.796 1.19963C110.796 0.813812 111.109 0.501042 111.495 0.501042C111.881 0.501042 112.193 0.813812 112.193 1.19963Z" fill="#050505" fill-opacity="0.7"/>
<path d="M111.313 19.4027C111.313 19.7885 111.001 20.1013 110.615 20.1013C110.229 20.1013 109.916 19.7885 109.916 19.4027C109.916 19.0169 110.229 18.7041 110.615 18.7041C111.001 18.7041 111.313 19.0169 111.313 19.4027Z" fill="#050505" fill-opacity="0.7"/>
<path d="M99.9231 13.4602C99.9231 13.846 99.6103 14.1588 99.2245 14.1588C98.8386 14.1588 98.5259 13.846 98.5259 13.4602C98.5259 13.0743 98.8386 12.7616 99.2245 12.7616C99.6103 12.7616 99.9231 13.0743 99.9231 13.4602Z" fill="#050505" fill-opacity="0.7"/>
<path d="M99.0548 1.04788C99.0548 1.4337 98.742 1.74647 98.3562 1.74647C97.9704 1.74647 97.6576 1.4337 97.6576 1.04788C97.6576 0.66206 97.9704 0.34929 98.3562 0.34929C98.742 0.34929 99.0548 0.66206 99.0548 1.04788Z" fill="#050505" fill-opacity="0.7"/>
<path d="M94.184 2.31106C94.184 2.69689 93.8712 3.00966 93.4854 3.00966C93.0996 3.00966 92.7868 2.69689 92.7868 2.31106C92.7868 1.92524 93.0996 1.61247 93.4854 1.61247C93.8712 1.61247 94.184 1.92524 94.184 2.31106Z" fill="#050505" fill-opacity="0.7"/>
<path d="M105.244 3.17907C105.244 3.56489 104.931 3.87766 104.545 3.87766C104.159 3.87766 103.846 3.56489 103.846 3.17907C103.846 2.79325 104.159 2.48048 104.545 2.48048C104.931 2.48048 105.244 2.79325 105.244 3.17907Z" fill="#050505" fill-opacity="0.7"/>
<path d="M113.893 17.178C113.893 17.5639 113.58 17.8766 113.194 17.8766C112.808 17.8766 112.496 17.5639 112.496 17.178C112.496 16.7922 112.808 16.4794 113.194 16.4794C113.58 16.4794 113.893 16.7922 113.893 17.178Z" fill="#050505" fill-opacity="0.7"/>
<path d="M111.192 16.9501C111.192 17.3359 110.88 17.6487 110.494 17.6487C110.108 17.6487 109.795 17.3359 109.795 16.9501C109.795 16.5643 110.108 16.2515 110.494 16.2515C110.88 16.2515 111.192 16.5643 111.192 16.9501Z" fill="#050505" fill-opacity="0.7"/>
<path d="M117.81 4.94525C117.81 5.33107 117.497 5.64384 117.111 5.64384C116.725 5.64384 116.413 5.33107 116.413 4.94525C116.413 4.55943 116.725 4.24666 117.111 4.24666C117.497 4.24666 117.81 4.55943 117.81 4.94525Z" fill="#050505" fill-opacity="0.7"/>
<path d="M119.332 11.9808C119.332 12.3666 119.019 12.6794 118.633 12.6794C118.247 12.6794 117.935 12.3666 117.935 11.9808C117.935 11.595 118.247 11.2822 118.633 11.2822C119.019 11.2822 119.332 11.595 119.332 11.9808Z" fill="#050505" fill-opacity="0.7"/>
<path d="M130.112 15.6483C130.112 16.0341 129.799 16.3469 129.414 16.3469C129.028 16.3469 128.715 16.0341 128.715 15.6483C128.715 15.2625 129.028 14.9497 129.414 14.9497C129.799 14.9497 130.112 15.2625 130.112 15.6483Z" fill="#050505" fill-opacity="0.7"/>
<path d="M117.151 16.2587C117.151 16.6446 116.838 16.9573 116.452 16.9573C116.066 16.9573 115.753 16.6446 115.753 16.2587C115.753 15.8729 116.066 15.5601 116.452 15.5601C116.838 15.5601 117.151 15.8729 117.151 16.2587Z" fill="#050505" fill-opacity="0.7"/>
<path d="M133.76 12.3508C133.76 12.7367 133.447 13.0494 133.061 13.0494C132.675 13.0494 132.363 12.7367 132.363 12.3508C132.363 11.965 132.675 11.6522 133.061 11.6522C133.447 11.6522 133.76 11.965 133.76 12.3508Z" fill="#050505" fill-opacity="0.7"/>
<path d="M130.158 2.62107C130.158 3.00689 129.846 3.31966 129.46 3.31966C129.074 3.31966 128.761 3.00689 128.761 2.62107C128.761 2.23525 129.074 1.92248 129.46 1.92248C129.846 1.92248 130.158 2.23525 130.158 2.62107Z" fill="#050505" fill-opacity="0.7"/>
<path d="M125.949 6.54734C125.949 6.93317 125.636 7.24594 125.25 7.24594C124.864 7.24594 124.551 6.93317 124.551 6.54734C124.551 6.16152 124.864 5.84875 125.25 5.84875C125.636 5.84875 125.949 6.16152 125.949 6.54734Z" fill="#050505" fill-opacity="0.7"/>
<path d="M124.886 21.1064C124.886 21.4922 124.573 21.805 124.187 21.805C123.802 21.805 123.489 21.4922 123.489 21.1064C123.489 20.7206 123.802 20.4078 124.187 20.4078C124.573 20.4078 124.886 20.7206 124.886 21.1064Z" fill="#050505" fill-opacity="0.7"/>
<path d="M122.258 15.6218C122.258 16.0076 121.945 16.3204 121.559 16.3204C121.173 16.3204 120.861 16.0076 120.861 15.6218C120.861 15.236 121.173 14.9232 121.559 14.9232C121.945 14.9232 122.258 15.236 122.258 15.6218Z" fill="#050505" fill-opacity="0.7"/>
<path d="M127.943 18.7845C127.943 19.1703 127.63 19.4831 127.244 19.4831C126.859 19.4831 126.546 19.1703 126.546 18.7845C126.546 18.3986 126.859 18.0859 127.244 18.0859C127.63 18.0859 127.943 18.3986 127.943 18.7845Z" fill="#050505" fill-opacity="0.7"/>
<path d="M125.748 17.1196C125.748 17.5054 125.435 17.8182 125.049 17.8182C124.663 17.8182 124.35 17.5054 124.35 17.1196C124.35 16.7338 124.663 16.421 125.049 16.421C125.435 16.421 125.748 16.7338 125.748 17.1196Z" fill="#050505" fill-opacity="0.7"/>
<path d="M134.996 22.876C134.996 23.2619 134.683 23.5746 134.297 23.5746C133.911 23.5746 133.598 23.2619 133.598 22.876C133.598 22.4902 133.911 22.1775 134.297 22.1775C134.683 22.1775 134.996 22.4902 134.996 22.876Z" fill="#050505" fill-opacity="0.7"/>
<path d="M117.388 21.7697C117.388 22.1556 117.075 22.4683 116.689 22.4683C116.304 22.4683 115.991 22.1556 115.991 21.7697C115.991 21.3839 116.304 21.0711 116.689 21.0711C117.075 21.0711 117.388 21.3839 117.388 21.7697Z" fill="#050505" fill-opacity="0.7"/>
<path d="M122.364 20.3405C122.364 20.7264 122.052 21.0391 121.666 21.0391C121.28 21.0391 120.967 20.7264 120.967 20.3405C120.967 19.9547 121.28 19.6419 121.666 19.6419C122.052 19.6419 122.364 19.9547 122.364 20.3405Z" fill="#050505" fill-opacity="0.7"/>
<path d="M133.64 23.2549C133.64 23.6407 133.327 23.9534 132.941 23.9534C132.556 23.9534 132.243 23.6407 132.243 23.2549C132.243 22.869 132.556 22.5563 132.941 22.5563C133.327 22.5563 133.64 22.869 133.64 23.2549Z" fill="#050505" fill-opacity="0.7"/>
<path d="M117.609 9.4949C117.609 9.88072 117.297 10.1935 116.911 10.1935C116.525 10.1935 116.212 9.88072 116.212 9.4949C116.212 9.10908 116.525 8.79631 116.911 8.79631C117.297 8.79631 117.609 9.10908 117.609 9.4949Z" fill="#050505" fill-opacity="0.7"/>
<path d="M124.669 22.2228C124.669 22.6086 124.356 22.9214 123.971 22.9214C123.585 22.9214 123.272 22.6086 123.272 22.2228C123.272 21.837 123.585 21.5242 123.971 21.5242C124.356 21.5242 124.669 21.837 124.669 22.2228Z" fill="#050505" fill-opacity="0.7"/>
<path d="M123.351 22.2258C123.351 22.6116 123.038 22.9244 122.652 22.9244C122.266 22.9244 121.953 22.6116 121.953 22.2258C121.953 21.8399 122.266 21.5272 122.652 21.5272C123.038 21.5272 123.351 21.8399 123.351 22.2258Z" fill="#050505" fill-opacity="0.7"/>
<path d="M129.158 22.4481C129.158 22.834 128.845 23.1467 128.459 23.1467C128.074 23.1467 127.761 22.834 127.761 22.4481C127.761 22.0623 128.074 21.7496 128.459 21.7496C128.845 21.7496 129.158 22.0623 129.158 22.4481Z" fill="#050505" fill-opacity="0.7"/>
<path d="M126.207 17.2945C126.207 17.6803 125.894 17.9931 125.508 17.9931C125.123 17.9931 124.81 17.6803 124.81 17.2945C124.81 16.9087 125.123 16.5959 125.508 16.5959C125.894 16.5959 126.207 16.9087 126.207 17.2945Z" fill="#050505" fill-opacity="0.7"/>
<path d="M124.809 4.8868C124.809 5.27263 124.496 5.5854 124.11 5.5854C123.725 5.5854 123.412 5.27263 123.412 4.8868C123.412 4.50098 123.725 4.18821 124.11 4.18821C124.496 4.18821 124.809 4.50098 124.809 4.8868Z" fill="#050505" fill-opacity="0.7"/>
<path d="M125.059 21.7343C125.059 22.1201 124.746 22.4328 124.36 22.4328C123.975 22.4328 123.662 22.1201 123.662 21.7343C123.662 21.3484 123.975 21.0357 124.36 21.0357C124.746 21.0357 125.059 21.3484 125.059 21.7343Z" fill="#050505" fill-opacity="0.7"/>
<path d="M127.708 6.23138C127.708 6.6172 127.395 6.92997 127.009 6.92997C126.624 6.92997 126.311 6.6172 126.311 6.23138C126.311 5.84555 126.624 5.53278 127.009 5.53278C127.395 5.53278 127.708 5.84555 127.708 6.23138Z" fill="#050505" fill-opacity="0.7"/>
<path d="M130.066 3.53269C130.066 3.91851 129.753 4.23128 129.367 4.23128C128.981 4.23128 128.669 3.91851 128.669 3.53269C128.669 3.14686 128.981 2.83409 129.367 2.83409C129.753 2.83409 130.066 3.14686 130.066 3.53269Z" fill="#050505" fill-opacity="0.7"/>
<path d="M125.886 13.3907C125.886 13.7765 125.573 14.0893 125.187 14.0893C124.801 14.0893 124.489 13.7765 124.489 13.3907C124.489 13.0049 124.801 12.6921 125.187 12.6921C125.573 12.6921 125.886 13.0049 125.886 13.3907Z" fill="#050505" fill-opacity="0.7"/>
<path d="M141.349 16.1231C141.349 16.509 141.036 16.8217 140.65 16.8217C140.264 16.8217 139.951 16.509 139.951 16.1231C139.951 15.7373 140.264 15.4246 140.65 15.4246C141.036 15.4246 141.349 15.7373 141.349 16.1231Z" fill="#050505" fill-opacity="0.7"/>
<path d="M145.582 5.36587C145.582 5.75169 145.269 6.06446 144.883 6.06446C144.498 6.06446 144.185 5.75169 144.185 5.36587C144.185 4.98005 144.498 4.66728 144.883 4.66728C145.269 4.66728 145.582 4.98005 145.582 5.36587Z" fill="#050505" fill-opacity="0.7"/>
<path d="M147.303 4.97006C147.303 5.35588 146.99 5.66865 146.604 5.66865C146.218 5.66865 145.906 5.35588 145.906 4.97006C145.906 4.58424 146.218 4.27147 146.604 4.27147C146.99 4.27147 147.303 4.58424 147.303 4.97006Z" fill="#050505" fill-opacity="0.7"/>
<path d="M149.194 19.3633C149.194 19.7491 148.881 20.0619 148.495 20.0619C148.11 20.0619 147.797 19.7491 147.797 19.3633C147.797 18.9775 148.11 18.6647 148.495 18.6647C148.881 18.6647 149.194 18.9775 149.194 19.3633Z" fill="#050505" fill-opacity="0.7"/>
<path d="M145.573 16.1425C145.573 16.5283 145.26 16.8411 144.874 16.8411C144.489 16.8411 144.176 16.5283 144.176 16.1425C144.176 15.7567 144.489 15.4439 144.874 15.4439C145.26 15.4439 145.573 15.7567 145.573 16.1425Z" fill="#050505" fill-opacity="0.7"/>
<path d="M144.64 20.7746C144.64 21.1604 144.327 21.4731 143.942 21.4731C143.556 21.4731 143.243 21.1604 143.243 20.7746C143.243 20.3887 143.556 20.076 143.942 20.076C144.327 20.076 144.64 20.3887 144.64 20.7746Z" fill="#050505" fill-opacity="0.7"/>
<path d="M152.3 7.25162C152.3 7.63745 151.987 7.95022 151.601 7.95022C151.215 7.95022 150.903 7.63745 150.903 7.25162C150.903 6.8658 151.215 6.55303 151.601 6.55303C151.987 6.55303 152.3 6.8658 152.3 7.25162Z" fill="#050505" fill-opacity="0.7"/>
<path d="M149.775 11.5164C149.775 11.9022 149.463 12.215 149.077 12.215C148.691 12.215 148.378 11.9022 148.378 11.5164C148.378 11.1306 148.691 10.8178 149.077 10.8178C149.463 10.8178 149.775 11.1306 149.775 11.5164Z" fill="#050505" fill-opacity="0.7"/>
<path d="M140.941 19.2534C140.941 19.6392 140.628 19.952 140.242 19.952C139.856 19.952 139.544 19.6392 139.544 19.2534C139.544 18.8676 139.856 18.5548 140.242 18.5548C140.628 18.5548 140.941 18.8676 140.941 19.2534Z" fill="#050505" fill-opacity="0.7"/>
<path d="M148.26 6.55279C148.26 6.93861 147.947 7.25138 147.561 7.25138C147.175 7.25138 146.863 6.93861 146.863 6.55279C146.863 6.16697 147.175 5.8542 147.561 5.8542C147.947 5.8542 148.26 6.16697 148.26 6.55279Z" fill="#050505" fill-opacity="0.7"/>
<path d="M141.438 6.25966C141.438 6.64548 141.125 6.95825 140.739 6.95825C140.353 6.95825 140.041 6.64548 140.041 6.25966C140.041 5.87384 140.353 5.56107 140.739 5.56107C141.125 5.56107 141.438 5.87384 141.438 6.25966Z" fill="#050505" fill-opacity="0.7"/>
<path d="M152.94 13.5036C152.94 13.8895 152.627 14.2022 152.241 14.2022C151.855 14.2022 151.543 13.8895 151.543 13.5036C151.543 13.1178 151.855 12.8051 152.241 12.8051C152.627 12.8051 152.94 13.1178 152.94 13.5036Z" fill="#050505" fill-opacity="0.7"/>
<path d="M138.26 20.0619C138.26 20.4477 137.947 20.7605 137.561 20.7605C137.175 20.7605 136.863 20.4477 136.863 20.0619C136.863 19.6761 137.175 19.3633 137.561 19.3633C137.947 19.3633 138.26 19.6761 138.26 20.0619Z" fill="#050505" fill-opacity="0.7"/>
<path d="M139.152 11.9637C139.152 12.3495 138.839 12.6623 138.454 12.6623C138.068 12.6623 137.755 12.3495 137.755 11.9637C137.755 11.5779 138.068 11.2651 138.454 11.2651C138.839 11.2651 139.152 11.5779 139.152 11.9637Z" fill="#050505" fill-opacity="0.7"/>
<path d="M144.786 22.5957C144.786 22.9815 144.473 23.2942 144.087 23.2942C143.701 23.2942 143.388 22.9815 143.388 22.5957C143.388 22.2098 143.701 21.8971 144.087 21.8971C144.473 21.8971 144.786 22.2098 144.786 22.5957Z" fill="#050505" fill-opacity="0.7"/>
<path d="M153.406 9.21583C153.406 9.60166 153.093 9.91442 152.707 9.91442C152.321 9.91442 152.009 9.60166 152.009 9.21583C152.009 8.83001 152.321 8.51724 152.707 8.51724C153.093 8.51724 153.406 8.83001 153.406 9.21583Z" fill="#050505" fill-opacity="0.7"/>
<path d="M155.211 22.0591C155.211 22.4449 154.898 22.7577 154.513 22.7577C154.127 22.7577 153.814 22.4449 153.814 22.0591C153.814 21.6733 154.127 21.3605 154.513 21.3605C154.898 21.3605 155.211 21.6733 155.211 22.0591Z" fill="#050505" fill-opacity="0.7"/>
<path d="M147.327 18.8798C147.327 19.2656 147.014 19.5784 146.628 19.5784C146.242 19.5784 145.929 19.2656 145.929 18.8798C145.929 18.494 146.242 18.1812 146.628 18.1812C147.014 18.1812 147.327 18.494 147.327 18.8798Z" fill="#050505" fill-opacity="0.7"/>
<path d="M140.754 13.2962C140.754 13.682 140.442 13.9948 140.056 13.9948C139.67 13.9948 139.357 13.682 139.357 13.2962C139.357 12.9104 139.67 12.5976 140.056 12.5976C140.442 12.5976 140.754 12.9104 140.754 13.2962Z" fill="#050505" fill-opacity="0.7"/>
<path d="M139.311 2.65196C139.311 3.03778 138.998 3.35055 138.612 3.35055C138.226 3.35055 137.913 3.03778 137.913 2.65196C137.913 2.26614 138.226 1.95337 138.612 1.95337C138.998 1.95337 139.311 2.26614 139.311 2.65196Z" fill="#050505" fill-opacity="0.7"/>
<path d="M141.803 16.3579C141.803 16.7438 141.49 17.0565 141.104 17.0565C140.718 17.0565 140.406 16.7438 140.406 16.3579C140.406 15.9721 140.718 15.6594 141.104 15.6594C141.49 15.6594 141.803 15.9721 141.803 16.3579Z" fill="#050505" fill-opacity="0.7"/>
<path d="M157.57 21.5575C157.57 21.9433 157.257 22.256 156.871 22.256C156.485 22.256 156.172 21.9433 156.172 21.5575C156.172 21.1716 156.485 20.8589 156.871 20.8589C157.257 20.8589 157.57 21.1716 157.57 21.5575Z" fill="#050505" fill-opacity="0.7"/>
<path d="M138.015 14.3339C138.015 14.7197 137.702 15.0325 137.316 15.0325C136.93 15.0325 136.617 14.7197 136.617 14.3339C136.617 13.9481 136.93 13.6353 137.316 13.6353C137.702 13.6353 138.015 13.9481 138.015 14.3339Z" fill="#050505" fill-opacity="0.7"/>
<path d="M139.512 5.96653C139.512 6.35236 139.2 6.66513 138.814 6.66513C138.428 6.66513 138.115 6.35236 138.115 5.96653C138.115 5.58071 138.428 5.26794 138.814 5.26794C139.2 5.26794 139.512 5.58071 139.512 5.96653Z" fill="#050505" fill-opacity="0.7"/>
<path d="M139.031 8.89053C139.031 9.27635 138.718 9.58912 138.332 9.58912C137.946 9.58912 137.633 9.27635 137.633 8.89053C137.633 8.50471 137.946 8.19194 138.332 8.19194C138.718 8.19194 139.031 8.50471 139.031 8.89053Z" fill="#050505" fill-opacity="0.7"/>
<path d="M173.404 10.3269C173.404 10.7127 173.091 11.0255 172.705 11.0255C172.319 11.0255 172.006 10.7127 172.006 10.3269C172.006 9.94109 172.319 9.62832 172.705 9.62832C173.091 9.62832 173.404 9.94109 173.404 10.3269Z" fill="#050505" fill-opacity="0.7"/>
<path d="M163.398 21.128C163.398 21.5138 163.085 21.8266 162.699 21.8266C162.314 21.8266 162.001 21.5138 162.001 21.128C162.001 20.7422 162.314 20.4294 162.699 20.4294C163.085 20.4294 163.398 20.7422 163.398 21.128Z" fill="#050505" fill-opacity="0.7"/>
<path d="M164.123 9.84886C164.123 10.2347 163.81 10.5475 163.425 10.5475C163.039 10.5475 162.726 10.2347 162.726 9.84886C162.726 9.46304 163.039 9.15027 163.425 9.15027C163.81 9.15027 164.123 9.46304 164.123 9.84886Z" fill="#050505" fill-opacity="0.7"/>
<path d="M162.502 6.8995C162.502 7.28532 162.189 7.59809 161.803 7.59809C161.418 7.59809 161.105 7.28532 161.105 6.8995C161.105 6.51368 161.418 6.20091 161.803 6.20091C162.189 6.20091 162.502 6.51368 162.502 6.8995Z" fill="#050505" fill-opacity="0.7"/>
<path d="M180.17 14.3861C180.17 14.7719 179.857 15.0847 179.471 15.0847C179.086 15.0847 178.773 14.7719 178.773 14.3861C178.773 14.0003 179.086 13.6875 179.471 13.6875C179.857 13.6875 180.17 14.0003 180.17 14.3861Z" fill="#050505" fill-opacity="0.7"/>
<path d="M180.684 17.1632C180.684 17.549 180.371 17.8618 179.985 17.8618C179.599 17.8618 179.287 17.549 179.287 17.1632C179.287 16.7774 179.599 16.4646 179.985 16.4646C180.371 16.4646 180.684 16.7774 180.684 17.1632Z" fill="#050505" fill-opacity="0.7"/>
<path d="M173.139 4.38858C173.139 4.7744 172.826 5.08717 172.44 5.08717C172.055 5.08717 171.742 4.7744 171.742 4.38858C171.742 4.00276 172.055 3.68999 172.44 3.68999C172.826 3.68999 173.139 4.00276 173.139 4.38858Z" fill="#050505" fill-opacity="0.7"/>
<path d="M165.064 20.0117C165.064 20.3976 164.752 20.7103 164.366 20.7103C163.98 20.7103 163.667 20.3976 163.667 20.0117C163.667 19.6259 163.98 19.3131 164.366 19.3131C164.752 19.3131 165.064 19.6259 165.064 20.0117Z" fill="#050505" fill-opacity="0.7"/>
<path d="M170.853 8.24539C170.853 8.63121 170.54 8.94398 170.154 8.94398C169.769 8.94398 169.456 8.63121 169.456 8.24539C169.456 7.85956 169.769 7.54679 170.154 7.54679C170.54 7.54679 170.853 7.85956 170.853 8.24539Z" fill="#050505" fill-opacity="0.7"/>
<path d="M181.837 18.271C181.837 18.6568 181.524 18.9696 181.139 18.9696C180.753 18.9696 180.44 18.6568 180.44 18.271C180.44 17.8851 180.753 17.5724 181.139 17.5724C181.524 17.5724 181.837 17.8851 181.837 18.271Z" fill="#050505" fill-opacity="0.7"/>
<path d="M168.913 20.0258C168.913 20.4116 168.601 20.7244 168.215 20.7244C167.829 20.7244 167.516 20.4116 167.516 20.0258C167.516 19.64 167.829 19.3272 168.215 19.3272C168.601 19.3272 168.913 19.64 168.913 20.0258Z" fill="#050505" fill-opacity="0.7"/>
<path d="M173.304 22.1005C173.304 22.4863 172.991 22.7991 172.605 22.7991C172.22 22.7991 171.907 22.4863 171.907 22.1005C171.907 21.7147 172.22 21.4019 172.605 21.4019C172.991 21.4019 173.304 21.7147 173.304 22.1005Z" fill="#050505" fill-opacity="0.7"/>
<path d="M181.302 19.4157C181.302 19.8016 180.989 20.1143 180.604 20.1143C180.218 20.1143 179.905 19.8016 179.905 19.4157C179.905 19.0299 180.218 18.7172 180.604 18.7172C180.989 18.7172 181.302 19.0299 181.302 19.4157Z" fill="#050505" fill-opacity="0.7"/>
<path d="M173.353 9.17479C173.353 9.56061 173.04 9.87338 172.655 9.87338C172.269 9.87338 171.956 9.56061 171.956 9.17479C171.956 8.78897 172.269 8.4762 172.655 8.4762C173.04 8.4762 173.353 8.78897 173.353 9.17479Z" fill="#050505" fill-opacity="0.7"/>
<path d="M174.638 6.12239C174.638 6.50821 174.325 6.82098 173.939 6.82098C173.553 6.82098 173.24 6.50821 173.24 6.12239C173.24 5.73657 173.553 5.4238 173.939 5.4238C174.325 5.4238 174.638 5.73657 174.638 6.12239Z" fill="#050505" fill-opacity="0.7"/>
<path d="M171.088 9.50311C171.088 9.88893 170.776 10.2017 170.39 10.2017C170.004 10.2017 169.691 9.88893 169.691 9.50311C169.691 9.11728 170.004 8.80451 170.39 8.80451C170.776 8.80451 171.088 9.11728 171.088 9.50311Z" fill="#050505" fill-opacity="0.7"/>
<path d="M171.17 23.2665C171.17 23.6524 170.857 23.9651 170.472 23.9651C170.086 23.9651 169.773 23.6524 169.773 23.2665C169.773 22.8807 170.086 22.568 170.472 22.568C170.857 22.568 171.17 22.8807 171.17 23.2665Z" fill="#050505" fill-opacity="0.7"/>
<path d="M169.62 12.7751C169.62 13.1609 169.307 13.4737 168.921 13.4737C168.535 13.4737 168.223 13.1609 168.223 12.7751C168.223 12.3892 168.535 12.0765 168.921 12.0765C169.307 12.0765 169.62 12.3892 169.62 12.7751Z" fill="#050505" fill-opacity="0.7"/>
<path d="M160.328 22.3192C160.328 22.705 160.015 23.0178 159.629 23.0178C159.244 23.0178 158.931 22.705 158.931 22.3192C158.931 21.9334 159.244 21.6206 159.629 21.6206C160.015 21.6206 160.328 21.9334 160.328 22.3192Z" fill="#050505" fill-opacity="0.7"/>
<path d="M164.053 5.39771C164.053 5.78354 163.74 6.09631 163.354 6.09631C162.968 6.09631 162.656 5.78354 162.656 5.39771C162.656 5.01189 162.968 4.69912 163.354 4.69912C163.74 4.69912 164.053 5.01189 164.053 5.39771Z" fill="#050505" fill-opacity="0.7"/>
<path d="M171.777 22.0459C171.777 22.4318 171.465 22.7445 171.079 22.7445C170.693 22.7445 170.38 22.4318 170.38 22.0459C170.38 21.6601 170.693 21.3473 171.079 21.3473C171.465 21.3473 171.777 21.6601 171.777 22.0459Z" fill="#050505" fill-opacity="0.7"/>
<path d="M174.13 2.55865C174.13 2.94447 173.817 3.25724 173.432 3.25724C173.046 3.25724 172.733 2.94447 172.733 2.55865C172.733 2.17282 173.046 1.86005 173.432 1.86005C173.817 1.86005 174.13 2.17282 174.13 2.55865Z" fill="#050505" fill-opacity="0.7"/>
<path d="M181.952 20.6894C181.952 21.0752 181.639 21.388 181.253 21.388C180.867 21.388 180.555 21.0752 180.555 20.6894C180.555 20.3036 180.867 19.9908 181.253 19.9908C181.639 19.9908 181.952 20.3036 181.952 20.6894Z" fill="#050505" fill-opacity="0.7"/>
<path d="M172.418 2.53796C172.418 2.92378 172.106 3.23655 171.72 3.23655C171.334 3.23655 171.021 2.92378 171.021 2.53796C171.021 2.15214 171.334 1.83937 171.72 1.83937C172.106 1.83937 172.418 2.15214 172.418 2.53796Z" fill="#050505" fill-opacity="0.7"/>
<path d="M160.803 18.884C160.803 19.2699 160.49 19.5826 160.105 19.5826C159.719 19.5826 159.406 19.2699 159.406 18.884C159.406 18.4982 159.719 18.1854 160.105 18.1854C160.49 18.1854 160.803 18.4982 160.803 18.884Z" fill="#050505" fill-opacity="0.7"/>
<path d="M192.409 5.24211C192.409 5.62793 192.096 5.9407 191.71 5.9407C191.325 5.9407 191.012 5.62793 191.012 5.24211C191.012 4.85629 191.325 4.54352 191.71 4.54352C192.096 4.54352 192.409 4.85629 192.409 5.24211Z" fill="#050505" fill-opacity="0.7"/>
<path d="M198.652 8.70514C198.652 9.09096 198.34 9.40373 197.954 9.40373C197.568 9.40373 197.255 9.09096 197.255 8.70514C197.255 8.31932 197.568 8.00655 197.954 8.00655C198.34 8.00655 198.652 8.31932 198.652 8.70514Z" fill="#050505" fill-opacity="0.7"/>
<path d="M191.602 17.5396C191.602 17.9255 191.289 18.2382 190.903 18.2382C190.518 18.2382 190.205 17.9255 190.205 17.5396C190.205 17.1538 190.518 16.841 190.903 16.841C191.289 16.841 191.602 17.1538 191.602 17.5396Z" fill="#050505" fill-opacity="0.7"/>
<path d="M183.471 10.818C183.471 11.2038 183.158 11.5166 182.772 11.5166C182.386 11.5166 182.073 11.2038 182.073 10.818C182.073 10.4322 182.386 10.1194 182.772 10.1194C183.158 10.1194 183.471 10.4322 183.471 10.818Z" fill="#050505" fill-opacity="0.7"/>
<path d="M195.362 7.82855C195.362 8.21438 195.05 8.52715 194.664 8.52715C194.278 8.52715 193.965 8.21438 193.965 7.82855C193.965 7.44273 194.278 7.12996 194.664 7.12996C195.05 7.12996 195.362 7.44273 195.362 7.82855Z" fill="#050505" fill-opacity="0.7"/>
<path d="M203.045 22.9642C203.045 23.35 202.732 23.6628 202.346 23.6628C201.96 23.6628 201.648 23.35 201.648 22.9642C201.648 22.5783 201.96 22.2656 202.346 22.2656C202.732 22.2656 203.045 22.5783 203.045 22.9642Z" fill="#050505" fill-opacity="0.7"/>
<path d="M188.887 1.50902C188.887 1.89484 188.574 2.20761 188.188 2.20761C187.802 2.20761 187.489 1.89484 187.489 1.50902C187.489 1.1232 187.802 0.810425 188.188 0.810425C188.574 0.810425 188.887 1.1232 188.887 1.50902Z" fill="#050505" fill-opacity="0.7"/>
<path d="M197.245 20.7637C197.245 21.1496 196.932 21.4623 196.546 21.4623C196.16 21.4623 195.847 21.1496 195.847 20.7637C195.847 20.3779 196.16 20.0652 196.546 20.0652C196.932 20.0652 197.245 20.3779 197.245 20.7637Z" fill="#050505" fill-opacity="0.7"/>
<path d="M199.715 2.25542C199.715 2.64124 199.402 2.95401 199.017 2.95401C198.631 2.95401 198.318 2.64124 198.318 2.25542C198.318 1.8696 198.631 1.55683 199.017 1.55683C199.402 1.55683 199.715 1.8696 199.715 2.25542Z" fill="#050505" fill-opacity="0.7"/>
<path d="M184.323 11.5455C184.323 11.9313 184.01 12.244 183.624 12.244C183.238 12.244 182.926 11.9313 182.926 11.5455C182.926 11.1596 183.238 10.8469 183.624 10.8469C184.01 10.8469 184.323 11.1596 184.323 11.5455Z" fill="#050505" fill-opacity="0.7"/>
<path d="M193.415 2.79281C193.415 3.17863 193.102 3.4914 192.716 3.4914C192.33 3.4914 192.018 3.17863 192.018 2.79281C192.018 2.40698 192.33 2.09421 192.716 2.09421C193.102 2.09421 193.415 2.40698 193.415 2.79281Z" fill="#050505" fill-opacity="0.7"/>
<path d="M183.637 17.3297C183.637 17.7155 183.324 18.0283 182.938 18.0283C182.553 18.0283 182.24 17.7155 182.24 17.3297C182.24 16.9439 182.553 16.6311 182.938 16.6311C183.324 16.6311 183.637 16.9439 183.637 17.3297Z" fill="#050505" fill-opacity="0.7"/>
<path d="M188.593 8.81585C188.593 9.20167 188.28 9.51444 187.894 9.51444C187.509 9.51444 187.196 9.20167 187.196 8.81585C187.196 8.43003 187.509 8.11726 187.894 8.11726C188.28 8.11726 188.593 8.43003 188.593 8.81585Z" fill="#050505" fill-opacity="0.7"/>
<path d="M187.598 14.1287C187.598 14.5146 187.285 14.8273 186.899 14.8273C186.514 14.8273 186.201 14.5146 186.201 14.1287C186.201 13.7429 186.514 13.4301 186.899 13.4301C187.285 13.4301 187.598 13.7429 187.598 14.1287Z" fill="#050505" fill-opacity="0.7"/>
<path d="M188.481 12.2334C188.481 12.6192 188.168 12.932 187.783 12.932C187.397 12.932 187.084 12.6192 187.084 12.2334C187.084 11.8476 187.397 11.5348 187.783 11.5348C188.168 11.5348 188.481 11.8476 188.481 12.2334Z" fill="#050505" fill-opacity="0.7"/>
<path d="M182.849 12.38C182.849 12.7659 182.536 13.0786 182.15 13.0786C181.764 13.0786 181.451 12.7659 181.451 12.38C181.451 11.9942 181.764 11.6814 182.15 11.6814C182.536 11.6814 182.849 11.9942 182.849 12.38Z" fill="#050505" fill-opacity="0.7"/>
<path d="M183.518 8.46466C183.518 8.85048 183.206 9.16325 182.82 9.16325C182.434 9.16325 182.121 8.85048 182.121 8.46466C182.121 8.07884 182.434 7.76607 182.82 7.76607C183.206 7.76607 183.518 8.07884 183.518 8.46466Z" fill="#050505" fill-opacity="0.7"/>
<path d="M192.944 16.1483C192.944 16.5341 192.631 16.8469 192.245 16.8469C191.859 16.8469 191.547 16.5341 191.547 16.1483C191.547 15.7625 191.859 15.4497 192.245 15.4497C192.631 15.4497 192.944 15.7625 192.944 16.1483Z" fill="#050505" fill-opacity="0.7"/>
<path d="M199.715 3.36458C199.715 3.7504 199.402 4.06317 199.016 4.06317C198.63 4.06317 198.318 3.7504 198.318 3.36458C198.318 2.97875 198.63 2.66598 199.016 2.66598C199.402 2.66598 199.715 2.97875 199.715 3.36458Z" fill="#050505" fill-opacity="0.7"/>
<path d="M190.63 1.60904C190.63 1.99486 190.317 2.30763 189.931 2.30763C189.546 2.30763 189.233 1.99486 189.233 1.60904C189.233 1.22321 189.546 0.910445 189.931 0.910445C190.317 0.910445 190.63 1.22321 190.63 1.60904Z" fill="#050505" fill-opacity="0.7"/>
<path d="M185.882 2.49075C185.882 2.87657 185.569 3.18934 185.183 3.18934C184.798 3.18934 184.485 2.87657 184.485 2.49075C184.485 2.10493 184.798 1.79216 185.183 1.79216C185.569 1.79216 185.882 2.10493 185.882 2.49075Z" fill="#050505" fill-opacity="0.7"/>
<path d="M199.851 6.09985C199.851 6.48567 199.538 6.79844 199.152 6.79844C198.767 6.79844 198.454 6.48567 198.454 6.09985C198.454 5.71403 198.767 5.40126 199.152 5.40126C199.538 5.40126 199.851 5.71403 199.851 6.09985Z" fill="#050505" fill-opacity="0.7"/>
<path d="M197.45 2.1352C197.45 2.52102 197.137 2.83379 196.751 2.83379C196.365 2.83379 196.053 2.52102 196.053 2.1352C196.053 1.74938 196.365 1.43661 196.751 1.43661C197.137 1.43661 197.45 1.74938 197.45 2.1352Z" fill="#050505" fill-opacity="0.7"/>
<path d="M194.789 1.81418C194.789 2.2 194.477 2.51277 194.091 2.51277C193.705 2.51277 193.392 2.2 193.392 1.81418C193.392 1.42836 193.705 1.11558 194.091 1.11558C194.477 1.11558 194.789 1.42836 194.789 1.81418Z" fill="#050505" fill-opacity="0.7"/>
<path d="M203.184 14.7485C203.184 15.1344 202.871 15.4471 202.485 15.4471C202.099 15.4471 201.787 15.1344 201.787 14.7485C201.787 14.3627 202.099 14.0499 202.485 14.0499C202.871 14.0499 203.184 14.3627 203.184 14.7485Z" fill="#050505" fill-opacity="0.7"/>
<path d="M222.151 23.3014C222.151 23.6872 221.838 24 221.452 24C221.066 24 220.754 23.6872 220.754 23.3014C220.754 22.9156 221.066 22.6028 221.452 22.6028C221.838 22.6028 222.151 22.9156 222.151 23.3014Z" fill="#050505" fill-opacity="0.7"/>
<path d="M218.488 16.6695C218.488 17.0553 218.175 17.3681 217.789 17.3681C217.403 17.3681 217.09 17.0553 217.09 16.6695C217.09 16.2836 217.403 15.9709 217.789 15.9709C218.175 15.9709 218.488 16.2836 218.488 16.6695Z" fill="#050505" fill-opacity="0.7"/>
<path d="M208.331 4.2893C208.331 4.67512 208.018 4.98789 207.632 4.98789C207.246 4.98789 206.934 4.67512 206.934 4.2893C206.934 3.90348 207.246 3.59071 207.632 3.59071C208.018 3.59071 208.331 3.90348 208.331 4.2893Z" fill="#050505" fill-opacity="0.7"/>
<path d="M205.404 18.0486C205.404 18.4344 205.091 18.7472 204.705 18.7472C204.32 18.7472 204.007 18.4344 204.007 18.0486C204.007 17.6627 204.32 17.35 204.705 17.35C205.091 17.35 205.404 17.6627 205.404 18.0486Z" fill="#050505" fill-opacity="0.7"/>
<path d="M205.645 15.5792C205.645 15.965 205.332 16.2778 204.946 16.2778C204.56 16.2778 204.247 15.965 204.247 15.5792C204.247 15.1934 204.56 14.8806 204.946 14.8806C205.332 14.8806 205.645 15.1934 205.645 15.5792Z" fill="#050505" fill-opacity="0.7"/>
<path d="M206.474 6.60661C206.474 6.99243 206.162 7.3052 205.776 7.3052C205.39 7.3052 205.077 6.99243 205.077 6.60661C205.077 6.22079 205.39 5.90802 205.776 5.90802C206.162 5.90802 206.474 6.22079 206.474 6.60661Z" fill="#050505" fill-opacity="0.7"/>
<path d="M209.029 21.9274C209.029 22.3132 208.716 22.626 208.33 22.626C207.944 22.626 207.631 22.3132 207.631 21.9274C207.631 21.5416 207.944 21.2288 208.33 21.2288C208.716 21.2288 209.029 21.5416 209.029 21.9274Z" fill="#050505" fill-opacity="0.7"/>
<path d="M213.763 13.5596C213.763 13.9454 213.45 14.2582 213.064 14.2582C212.679 14.2582 212.366 13.9454 212.366 13.5596C212.366 13.1737 212.679 12.861 213.064 12.861C213.45 12.861 213.763 13.1737 213.763 13.5596Z" fill="#050505" fill-opacity="0.7"/>
<path d="M225.837 23.2865C225.837 23.6723 225.524 23.9851 225.138 23.9851C224.752 23.9851 224.44 23.6723 224.44 23.2865C224.44 22.9007 224.752 22.5879 225.138 22.5879C225.524 22.5879 225.837 22.9007 225.837 23.2865Z" fill="#050505" fill-opacity="0.7"/>
<path d="M221.955 2.89445C221.955 3.28027 221.642 3.59304 221.256 3.59304C220.871 3.59304 220.558 3.28027 220.558 2.89445C220.558 2.50863 220.871 2.19586 221.256 2.19586C221.642 2.19586 221.955 2.50863 221.955 2.89445Z" fill="#050505" fill-opacity="0.7"/>
<path d="M210.781 11.8742C210.781 12.26 210.469 12.5728 210.083 12.5728C209.697 12.5728 209.384 12.26 209.384 11.8742C209.384 11.4884 209.697 11.1756 210.083 11.1756C210.469 11.1756 210.781 11.4884 210.781 11.8742Z" fill="#050505" fill-opacity="0.7"/>
<path d="M223.959 5.65819C223.959 6.04401 223.646 6.35678 223.26 6.35678C222.875 6.35678 222.562 6.04401 222.562 5.65819C222.562 5.27236 222.875 4.95959 223.26 4.95959C223.646 4.95959 223.959 5.27236 223.959 5.65819Z" fill="#050505" fill-opacity="0.7"/>
<path d="M205.445 6.92696C205.445 7.31279 205.132 7.62556 204.746 7.62556C204.36 7.62556 204.048 7.31279 204.048 6.92696C204.048 6.54114 204.36 6.22837 204.746 6.22837C205.132 6.22837 205.445 6.54114 205.445 6.92696Z" fill="#050505" fill-opacity="0.7"/>
<path d="M227.009 4.85024C227.009 5.23606 226.697 5.54883 226.311 5.54883C225.925 5.54883 225.612 5.23606 225.612 4.85024C225.612 4.46442 225.925 4.15165 226.311 4.15165C226.697 4.15165 227.009 4.46442 227.009 4.85024Z" fill="#050505" fill-opacity="0.7"/>
<path d="M227.222 10.5369C227.222 10.9227 226.909 11.2355 226.523 11.2355C226.137 11.2355 225.825 10.9227 225.825 10.5369C225.825 10.151 226.137 9.83827 226.523 9.83827C226.909 9.83827 227.222 10.151 227.222 10.5369Z" fill="#050505" fill-opacity="0.7"/>
<path d="M211.123 12.1032C211.123 12.489 210.81 12.8018 210.424 12.8018C210.038 12.8018 209.726 12.489 209.726 12.1032C209.726 11.7174 210.038 11.4046 210.424 11.4046C210.81 11.4046 211.123 11.7174 211.123 12.1032Z" fill="#050505" fill-opacity="0.7"/>
<path d="M212.337 14.6449C212.337 15.0307 212.024 15.3435 211.638 15.3435C211.252 15.3435 210.939 15.0307 210.939 14.6449C210.939 14.2591 211.252 13.9463 211.638 13.9463C212.024 13.9463 212.337 14.2591 212.337 14.6449Z" fill="#050505" fill-opacity="0.7"/>
<path d="M221.411 14.7245C221.411 15.1103 221.098 15.4231 220.712 15.4231C220.327 15.4231 220.014 15.1103 220.014 14.7245C220.014 14.3387 220.327 14.0259 220.712 14.0259C221.098 14.0259 221.411 14.3387 221.411 14.7245Z" fill="#050505" fill-opacity="0.7"/>
<path d="M220.435 16.0465C220.435 16.4324 220.122 16.7451 219.736 16.7451C219.35 16.7451 219.038 16.4324 219.038 16.0465C219.038 15.6607 219.35 15.3479 219.736 15.3479C220.122 15.3479 220.435 15.6607 220.435 16.0465Z" fill="#050505" fill-opacity="0.7"/>
<path d="M208.975 0.988756C208.975 1.37458 208.662 1.68735 208.277 1.68735C207.891 1.68735 207.578 1.37458 207.578 0.988756C207.578 0.602934 207.891 0.290163 208.277 0.290163C208.662 0.290163 208.975 0.602934 208.975 0.988756Z" fill="#050505" fill-opacity="0.7"/>
<path d="M225.278 1.70795C225.278 2.09377 224.965 2.40654 224.579 2.40654C224.194 2.40654 223.881 2.09377 223.881 1.70795C223.881 1.32213 224.194 1.00935 224.579 1.00935C224.965 1.00935 225.278 1.32213 225.278 1.70795Z" fill="#050505" fill-opacity="0.7"/>
<path d="M213.45 4.53846C213.45 4.92428 213.137 5.23705 212.752 5.23705C212.366 5.23705 212.053 4.92428 212.053 4.53846C212.053 4.15264 212.366 3.83987 212.752 3.83987C213.137 3.83987 213.45 4.15264 213.45 4.53846Z" fill="#050505" fill-opacity="0.7"/>
<path d="M217.813 11.8006C217.813 12.1864 217.5 12.4992 217.115 12.4992C216.729 12.4992 216.416 12.1864 216.416 11.8006C216.416 11.4147 216.729 11.102 217.115 11.102C217.5 11.102 217.813 11.4147 217.813 11.8006Z" fill="#050505" fill-opacity="0.7"/>
<path d="M207.006 17.6061C207.006 17.992 206.693 18.3047 206.307 18.3047C205.921 18.3047 205.609 17.992 205.609 17.6061C205.609 17.2203 205.921 16.9076 206.307 16.9076C206.693 16.9076 207.006 17.2203 207.006 17.6061Z" fill="#050505" fill-opacity="0.7"/>
<path d="M210.84 17.3442C210.84 17.73 210.527 18.0428 210.141 18.0428C209.756 18.0428 209.443 17.73 209.443 17.3442C209.443 16.9583 209.756 16.6456 210.141 16.6456C210.527 16.6456 210.84 16.9583 210.84 17.3442Z" fill="#050505" fill-opacity="0.7"/>
<path d="M233.868 6.15119C233.868 6.53701 233.555 6.84978 233.17 6.84978C232.784 6.84978 232.471 6.53701 232.471 6.15119C232.471 5.76537 232.784 5.4526 233.17 5.4526C233.555 5.4526 233.868 5.76537 233.868 6.15119Z" fill="#050505" fill-opacity="0.7"/>
<path d="M238.599 11.1691C238.599 11.5549 238.286 11.8677 237.9 11.8677C237.514 11.8677 237.201 11.5549 237.201 11.1691C237.201 10.7832 237.514 10.4705 237.9 10.4705C238.286 10.4705 238.599 10.7832 238.599 11.1691Z" fill="#050505" fill-opacity="0.7"/>
<path d="M244.511 21.42C244.511 21.8058 244.198 22.1185 243.812 22.1185C243.426 22.1185 243.113 21.8058 243.113 21.42C243.113 21.0341 243.426 20.7214 243.812 20.7214C244.198 20.7214 244.511 21.0341 244.511 21.42Z" fill="#050505" fill-opacity="0.7"/>
<path d="M235.878 20.2753C235.878 20.6611 235.565 20.9739 235.179 20.9739C234.793 20.9739 234.481 20.6611 234.481 20.2753C234.481 19.8895 234.793 19.5767 235.179 19.5767C235.565 19.5767 235.878 19.8895 235.878 20.2753Z" fill="#050505" fill-opacity="0.7"/>
<path d="M227.986 9.97296C227.986 10.3588 227.673 10.6716 227.287 10.6716C226.901 10.6716 226.588 10.3588 226.588 9.97296C226.588 9.58714 226.901 9.27437 227.287 9.27437C227.673 9.27437 227.986 9.58714 227.986 9.97296Z" fill="#050505" fill-opacity="0.7"/>
<path d="M236.441 5.72731C236.441 6.11313 236.128 6.4259 235.742 6.4259C235.356 6.4259 235.043 6.11313 235.043 5.72731C235.043 5.34148 235.356 5.02871 235.742 5.02871C236.128 5.02871 236.441 5.34148 236.441 5.72731Z" fill="#050505" fill-opacity="0.7"/>
<path d="M244.797 9.71201C244.797 10.0978 244.484 10.4106 244.098 10.4106C243.712 10.4106 243.399 10.0978 243.399 9.71201C243.399 9.32619 243.712 9.01342 244.098 9.01342C244.484 9.01342 244.797 9.32619 244.797 9.71201Z" fill="#050505" fill-opacity="0.7"/>
<path d="M240.312 19.4788C240.312 19.8646 239.999 20.1774 239.613 20.1774C239.227 20.1774 238.914 19.8646 238.914 19.4788C238.914 19.0929 239.227 18.7802 239.613 18.7802C239.999 18.7802 240.312 19.0929 240.312 19.4788Z" fill="#050505" fill-opacity="0.7"/>
<path d="M244.807 23.2451C244.807 23.6309 244.495 23.9437 244.109 23.9437C243.723 23.9437 243.41 23.6309 243.41 23.2451C243.41 22.8592 243.723 22.5465 244.109 22.5465C244.495 22.5465 244.807 22.8592 244.807 23.2451Z" fill="#050505" fill-opacity="0.7"/>
<path d="M242.211 8.03638C242.211 8.4222 241.899 8.73497 241.513 8.73497C241.127 8.73497 240.814 8.4222 240.814 8.03638C240.814 7.65056 241.127 7.33779 241.513 7.33779C241.899 7.33779 242.211 7.65056 242.211 8.03638Z" fill="#050505" fill-opacity="0.7"/>
<path d="M232.909 17.5683C232.909 17.9542 232.596 18.2669 232.21 18.2669C231.824 18.2669 231.511 17.9542 231.511 17.5683C231.511 17.1825 231.824 16.8697 232.21 16.8697C232.596 16.8697 232.909 17.1825 232.909 17.5683Z" fill="#050505" fill-opacity="0.7"/>
<path d="M231.492 20.5701C231.492 20.9559 231.179 21.2687 230.794 21.2687C230.408 21.2687 230.095 20.9559 230.095 20.5701C230.095 20.1843 230.408 19.8715 230.794 19.8715C231.179 19.8715 231.492 20.1843 231.492 20.5701Z" fill="#050505" fill-opacity="0.7"/>
<path d="M232.312 13.4916C232.312 13.8774 231.999 14.1902 231.613 14.1902C231.228 14.1902 230.915 13.8774 230.915 13.4916C230.915 13.1058 231.228 12.793 231.613 12.793C231.999 12.793 232.312 13.1058 232.312 13.4916Z" fill="#050505" fill-opacity="0.7"/>
<path d="M235.242 4.34358C235.242 4.7294 234.929 5.04217 234.543 5.04217C234.158 5.04217 233.845 4.7294 233.845 4.34358C233.845 3.95776 234.158 3.64499 234.543 3.64499C234.929 3.64499 235.242 3.95776 235.242 4.34358Z" fill="#050505" fill-opacity="0.7"/>
<path d="M245.881 4.11319C245.881 4.49901 245.568 4.81178 245.182 4.81178C244.797 4.81178 244.484 4.49901 244.484 4.11319C244.484 3.72737 244.797 3.4146 245.182 3.4146C245.568 3.4146 245.881 3.72737 245.881 4.11319Z" fill="#050505" fill-opacity="0.7"/>
<path d="M240.636 22.0148C240.636 22.4006 240.324 22.7134 239.938 22.7134C239.552 22.7134 239.239 22.4006 239.239 22.0148C239.239 21.6289 239.552 21.3162 239.938 21.3162C240.324 21.3162 240.636 21.6289 240.636 22.0148Z" fill="#050505" fill-opacity="0.7"/>
<path d="M233.692 9.51256C233.692 9.89838 233.379 10.2112 232.993 10.2112C232.607 10.2112 232.294 9.89838 232.294 9.51256C232.294 9.12674 232.607 8.81397 232.993 8.81397C233.379 8.81397 233.692 9.12674 233.692 9.51256Z" fill="#050505" fill-opacity="0.7"/>
<path d="M236.769 16.7171C236.769 17.1029 236.456 17.4157 236.07 17.4157C235.684 17.4157 235.372 17.1029 235.372 16.7171C235.372 16.3313 235.684 16.0185 236.07 16.0185C236.456 16.0185 236.769 16.3313 236.769 16.7171Z" fill="#050505" fill-opacity="0.7"/>
<path d="M237.854 6.85031C237.854 7.23613 237.541 7.5489 237.156 7.5489C236.77 7.5489 236.457 7.23613 236.457 6.85031C236.457 6.46449 236.77 6.15171 237.156 6.15171C237.541 6.15171 237.854 6.46449 237.854 6.85031Z" fill="#050505" fill-opacity="0.7"/>
<path d="M241.053 3.22805C241.053 3.61387 240.74 3.92664 240.354 3.92664C239.968 3.92664 239.656 3.61387 239.656 3.22805C239.656 2.84223 239.968 2.52946 240.354 2.52946C240.74 2.52946 241.053 2.84223 241.053 3.22805Z" fill="#050505" fill-opacity="0.7"/>
<path d="M240.237 19.7729C240.237 20.1587 239.924 20.4715 239.538 20.4715C239.152 20.4715 238.84 20.1587 238.84 19.7729C238.84 19.3871 239.152 19.0743 239.538 19.0743C239.924 19.0743 240.237 19.3871 240.237 19.7729Z" fill="#050505" fill-opacity="0.7"/>
<path d="M230.805 20.7721C230.805 21.1579 230.492 21.4707 230.106 21.4707C229.72 21.4707 229.408 21.1579 229.408 20.7721C229.408 20.3863 229.72 20.0735 230.106 20.0735C230.492 20.0735 230.805 20.3863 230.805 20.7721Z" fill="#050505" fill-opacity="0.7"/>
<path d="M240.965 18.4305C240.965 18.8163 240.652 19.1291 240.266 19.1291C239.881 19.1291 239.568 18.8163 239.568 18.4305C239.568 18.0446 239.881 17.7319 240.266 17.7319C240.652 17.7319 240.965 18.0446 240.965 18.4305Z" fill="#050505" fill-opacity="0.7"/>
<path d="M234.13 12.3715C234.13 12.7573 233.817 13.0701 233.431 13.0701C233.045 13.0701 232.732 12.7573 232.732 12.3715C232.732 11.9857 233.045 11.6729 233.431 11.6729C233.817 11.6729 234.13 11.9857 234.13 12.3715Z" fill="#050505" fill-opacity="0.7"/>
<path d="M232.681 21.0284C232.681 21.4142 232.368 21.727 231.982 21.727C231.596 21.727 231.283 21.4142 231.283 21.0284C231.283 20.6426 231.596 20.3298 231.982 20.3298C232.368 20.3298 232.681 20.6426 232.681 21.0284Z" fill="#050505" fill-opacity="0.7"/>
<path d="M254.311 6.76652C254.311 7.15234 253.999 7.46511 253.613 7.46511C253.227 7.46511 252.914 7.15234 252.914 6.76652C252.914 6.38069 253.227 6.06792 253.613 6.06792C253.999 6.06792 254.311 6.38069 254.311 6.76652Z" fill="#050505" fill-opacity="0.7"/>
<path d="M260.055 7.71336C260.055 8.09919 259.742 8.41196 259.356 8.41196C258.97 8.41196 258.658 8.09919 258.658 7.71336C258.658 7.32754 258.97 7.01477 259.356 7.01477C259.742 7.01477 260.055 7.32754 260.055 7.71336Z" fill="#050505" fill-opacity="0.7"/>
<path d="M273.203 22.0214C273.203 22.4072 272.891 22.7199 272.505 22.7199C272.119 22.7199 271.806 22.4072 271.806 22.0214C271.806 21.6355 272.119 21.3228 272.505 21.3228C272.891 21.3228 273.203 21.6355 273.203 22.0214Z" fill="#050505" fill-opacity="0.7"/>
<path d="M266.34 20.5614C266.34 20.9473 266.028 21.26 265.642 21.26C265.256 21.26 264.943 20.9473 264.943 20.5614C264.943 20.1756 265.256 19.8628 265.642 19.8628C266.028 19.8628 266.34 20.1756 266.34 20.5614Z" fill="#050505" fill-opacity="0.7"/>
<path d="M269.01 18.2021C269.01 18.5879 268.697 18.9007 268.311 18.9007C267.925 18.9007 267.612 18.5879 267.612 18.2021C267.612 17.8162 267.925 17.5035 268.311 17.5035C268.697 17.5035 269.01 17.8162 269.01 18.2021Z" fill="#050505" fill-opacity="0.7"/>
<path d="M259.747 4.17215C259.747 4.55797 259.434 4.87074 259.048 4.87074C258.662 4.87074 258.349 4.55797 258.349 4.17215C258.349 3.78633 258.662 3.47356 259.048 3.47356C259.434 3.47356 259.747 3.78633 259.747 4.17215Z" fill="#050505" fill-opacity="0.7"/>
<path d="M258.305 5.02908C258.305 5.4149 257.992 5.72767 257.606 5.72767C257.22 5.72767 256.907 5.4149 256.907 5.02908C256.907 4.64326 257.22 4.33049 257.606 4.33049C257.992 4.33049 258.305 4.64326 258.305 5.02908Z" fill="#050505" fill-opacity="0.7"/>
<path d="M254.82 20.4809C254.82 20.8667 254.508 21.1795 254.122 21.1795C253.736 21.1795 253.423 20.8667 253.423 20.4809C253.423 20.0951 253.736 19.7823 254.122 19.7823C254.508 19.7823 254.82 20.0951 254.82 20.4809Z" fill="#050505" fill-opacity="0.7"/>
<path d="M262.556 3.05851C262.556 3.44433 262.243 3.7571 261.857 3.7571C261.471 3.7571 261.159 3.44433 261.159 3.05851C261.159 2.67269 261.471 2.35992 261.857 2.35992C262.243 2.35992 262.556 2.67269 262.556 3.05851Z" fill="#050505" fill-opacity="0.7"/>
<path d="M269.911 22.4655C269.911 22.8514 269.598 23.1641 269.212 23.1641C268.826 23.1641 268.514 22.8514 268.514 22.4655C268.514 22.0797 268.826 21.767 269.212 21.767C269.598 21.767 269.911 22.0797 269.911 22.4655Z" fill="#050505" fill-opacity="0.7"/>
<path d="M272.581 6.02969C272.581 6.41551 272.268 6.72828 271.882 6.72828C271.497 6.72828 271.184 6.41551 271.184 6.02969C271.184 5.64387 271.497 5.3311 271.882 5.3311C272.268 5.3311 272.581 5.64387 272.581 6.02969Z" fill="#050505" fill-opacity="0.7"/>
<path d="M261.157 17.4705C261.157 17.8563 260.844 18.1691 260.458 18.1691C260.072 18.1691 259.759 17.8563 259.759 17.4705C259.759 17.0847 260.072 16.7719 260.458 16.7719C260.844 16.7719 261.157 17.0847 261.157 17.4705Z" fill="#050505" fill-opacity="0.7"/>
<path d="M264.666 21.8288C264.666 22.2146 264.354 22.5274 263.968 22.5274C263.582 22.5274 263.269 22.2146 263.269 21.8288C263.269 21.443 263.582 21.1302 263.968 21.1302C264.354 21.1302 264.666 21.443 264.666 21.8288Z" fill="#050505" fill-opacity="0.7"/>
<path d="M262.655 5.72694C262.655 6.11276 262.342 6.42554 261.956 6.42554C261.57 6.42554 261.258 6.11276 261.258 5.72694C261.258 5.34112 261.57 5.02835 261.956 5.02835C262.342 5.02835 262.655 5.34112 262.655 5.72694Z" fill="#050505" fill-opacity="0.7"/>
<path d="M265.267 2.85142C265.267 3.23724 264.954 3.55001 264.568 3.55001C264.182 3.55001 263.87 3.23724 263.87 2.85142C263.87 2.4656 264.182 2.15283 264.568 2.15283C264.954 2.15283 265.267 2.4656 265.267 2.85142Z" fill="#050505" fill-opacity="0.7"/>
<path d="M269.97 10.7226C269.97 11.1084 269.657 11.4212 269.271 11.4212C268.886 11.4212 268.573 11.1084 268.573 10.7226C268.573 10.3367 268.886 10.024 269.271 10.024C269.657 10.024 269.97 10.3367 269.97 10.7226Z" fill="#050505" fill-opacity="0.7"/>
<path d="M270.646 21.6532C270.646 22.039 270.334 22.3518 269.948 22.3518C269.562 22.3518 269.249 22.039 269.249 21.6532C269.249 21.2673 269.562 20.9546 269.948 20.9546C270.334 20.9546 270.646 21.2673 270.646 21.6532Z" fill="#050505" fill-opacity="0.7"/>
<path d="M253.149 21.247C253.149 21.6328 252.837 21.9456 252.451 21.9456C252.065 21.9456 251.752 21.6328 251.752 21.247C251.752 20.8612 252.065 20.5484 252.451 20.5484C252.837 20.5484 253.149 20.8612 253.149 21.247Z" fill="#050505" fill-opacity="0.7"/>
<path d="M257.626 11.4998C257.626 11.8856 257.314 12.1984 256.928 12.1984C256.542 12.1984 256.229 11.8856 256.229 11.4998C256.229 11.114 256.542 10.8012 256.928 10.8012C257.314 10.8012 257.626 11.114 257.626 11.4998Z" fill="#050505" fill-opacity="0.7"/>
<path d="M251.894 17.0721C251.894 17.4579 251.581 17.7707 251.196 17.7707C250.81 17.7707 250.497 17.4579 250.497 17.0721C250.497 16.6863 250.81 16.3735 251.196 16.3735C251.581 16.3735 251.894 16.6863 251.894 17.0721Z" fill="#050505" fill-opacity="0.7"/>
<path d="M269.544 3.10576C269.544 3.49159 269.231 3.80436 268.845 3.80436C268.459 3.80436 268.146 3.49159 268.146 3.10576C268.146 2.71994 268.459 2.40717 268.845 2.40717C269.231 2.40717 269.544 2.71994 269.544 3.10576Z" fill="#050505" fill-opacity="0.7"/>
<path d="M262.91 16.6286C262.91 17.0144 262.598 17.3272 262.212 17.3272C261.826 17.3272 261.513 17.0144 261.513 16.6286C261.513 16.2427 261.826 15.93 262.212 15.93C262.598 15.93 262.91 16.2427 262.91 16.6286Z" fill="#050505" fill-opacity="0.7"/>
<path d="M265.803 16.2753C265.803 16.6611 265.491 16.9739 265.105 16.9739C264.719 16.9739 264.406 16.6611 264.406 16.2753C264.406 15.8895 264.719 15.5767 265.105 15.5767C265.491 15.5767 265.803 15.8895 265.803 16.2753Z" fill="#050505" fill-opacity="0.7"/>
<path d="M270.976 6.71722C270.976 7.10304 270.663 7.41581 270.278 7.41581C269.892 7.41581 269.579 7.10304 269.579 6.71722C269.579 6.3314 269.892 6.01863 270.278 6.01863C270.663 6.01863 270.976 6.3314 270.976 6.71722Z" fill="#050505" fill-opacity="0.7"/>
<path d="M251.387 10.3531C251.387 10.7389 251.074 11.0517 250.688 11.0517C250.302 11.0517 249.989 10.7389 249.989 10.3531C249.989 9.9673 250.302 9.65452 250.688 9.65452C251.074 9.65452 251.387 9.9673 251.387 10.3531Z" fill="#050505" fill-opacity="0.7"/>
</svg>
