<svg width="20" height="20" viewBox="0 0 20 20" fill="none" xmlns="http://www.w3.org/2000/svg">
<path d="M4.55551 8.05564H15.4444M4.55551 11.9445H15.4444M4.16663 10.0001C4.16663 10.7661 4.31751 11.5247 4.61066 12.2324C4.90381 12.9401 5.33349 13.5832 5.87517 14.1249C6.41684 14.6665 7.05991 15.0962 7.76764 15.3894C8.47537 15.6825 9.23391 15.8334 9.99996 15.8334C10.766 15.8334 11.5245 15.6825 12.2323 15.3894C12.94 15.0962 13.5831 14.6665 14.1247 14.1249C14.6664 13.5832 15.0961 12.9401 15.3893 12.2324C15.6824 11.5247 15.8333 10.7661 15.8333 10.0001C15.8333 8.45299 15.2187 6.96925 14.1247 5.87529C13.0308 4.78133 11.5471 4.16675 9.99996 4.16675C8.45286 4.16675 6.96913 4.78133 5.87517 5.87529C4.78121 6.96925 4.16663 8.45299 4.16663 10.0001Z" stroke="#050505" stroke-linecap="round" stroke-linejoin="round"/>
<path d="M9.67568 4.16675C8.58377 5.9165 8.00488 7.93759 8.00488 10.0001C8.00488 12.0626 8.58377 14.0837 9.67568 15.8334M10.3238 4.16675C11.4157 5.9165 11.9946 7.93759 11.9946 10.0001C11.9946 12.0626 11.4157 14.0837 10.3238 15.8334" stroke="#050505" stroke-linecap="round" stroke-linejoin="round"/>
</svg>
