<svg width="20" height="20" viewBox="0 0 20 20" fill="none" xmlns="http://www.w3.org/2000/svg">
<path d="M4.55539 8.05539H15.4443M4.55539 11.9443H15.4443M4.1665 9.99984C4.1665 10.7659 4.31739 11.5244 4.61054 12.2322C4.90369 12.9399 5.33337 13.583 5.87505 14.1246C6.41672 14.6663 7.05978 15.096 7.76752 15.3891C8.47525 15.6823 9.23379 15.8332 9.99984 15.8332C10.7659 15.8332 11.5244 15.6823 12.2322 15.3891C12.9399 15.096 13.583 14.6663 14.1246 14.1246C14.6663 13.583 15.096 12.9399 15.3891 12.2322C15.6823 11.5244 15.8332 10.7659 15.8332 9.99984C15.8332 8.45274 15.2186 6.96901 14.1246 5.87505C13.0307 4.78109 11.5469 4.1665 9.99984 4.1665C8.45274 4.1665 6.96901 4.78109 5.87505 5.87505C4.78109 6.96901 4.1665 8.45274 4.1665 9.99984Z" stroke="#FBFBFB" stroke-linecap="round" stroke-linejoin="round"/>
<path d="M9.67568 4.1665C8.58377 5.91625 8.00488 7.93734 8.00488 9.99984C8.00488 12.0623 8.58377 14.0834 9.67568 15.8332M10.3238 4.1665C11.4157 5.91625 11.9946 7.93734 11.9946 9.99984C11.9946 12.0623 11.4157 14.0834 10.3238 15.8332" stroke="#FBFBFB" stroke-linecap="round" stroke-linejoin="round"/>
</svg>
