<svg width="10" height="10" viewBox="0 0 10 10" fill="none" xmlns="http://www.w3.org/2000/svg">
<g clip-path="url(#clip0_1903_68331)">
<path d="M5 0C2.24292 0 0 2.24292 0 5C0 7.75708 2.24292 10 5 10C7.75708 10 10 7.75708 10 5C10 2.24292 7.75708 0 5 0ZM5 9.16667C2.7025 9.16667 0.833333 7.2975 0.833333 5C0.833333 2.7025 2.7025 0.833333 5 0.833333C7.2975 0.833333 9.16667 2.7025 9.16667 5C9.16667 7.2975 7.2975 9.16667 5 9.16667ZM6.66667 5.83333C6.66667 6.5225 6.10583 7.08333 5.41667 7.08333V7.5C5.41667 7.73042 5.23042 7.91667 5 7.91667C4.76958 7.91667 4.58333 7.73042 4.58333 7.5V7.08333H4.47167C4.02708 7.08333 3.61208 6.84417 3.38917 6.45875C3.27375 6.25917 3.34208 6.00458 3.54083 5.88958C3.74042 5.77333 3.99542 5.8425 4.11 6.04125C4.18458 6.17042 4.32292 6.25 4.47125 6.25H5.41625C5.64625 6.25 5.83292 6.06333 5.83292 5.83333C5.83292 5.67583 5.72 5.5425 5.56458 5.51667L4.2975 5.30542C3.73833 5.2125 3.33292 4.73333 3.33292 4.16667C3.33292 3.4775 3.89375 2.91667 4.58292 2.91667V2.5C4.58292 2.27 4.76917 2.08333 4.99958 2.08333C5.23 2.08333 5.41625 2.27 5.41625 2.5V2.91667H5.52792C5.9725 2.91667 6.3875 3.15625 6.61042 3.54167C6.72583 3.74083 6.6575 3.99542 6.45875 4.11083C6.25875 4.22625 6.00417 4.15792 5.88958 3.95875C5.815 3.83 5.67667 3.75042 5.52833 3.75042H4.58333C4.35333 3.75042 4.16667 3.9375 4.16667 4.16708C4.16667 4.32458 4.27958 4.45792 4.435 4.48375L5.70208 4.695C6.26125 4.78792 6.66667 5.26708 6.66667 5.83375V5.83333Z" fill="#5C6476"/>
</g>
<defs>
<clipPath id="clip0_1903_68331">
<rect width="10" height="10" fill="white"/>
</clipPath>
</defs>
</svg>
