<svg width="10" height="10" viewBox="0 0 10 10" fill="none" xmlns="http://www.w3.org/2000/svg">
<g clip-path="url(#clip0_1903_68335)">
<path d="M4.16667 5.83333V0H1.25C0.560833 0 0 0.560833 0 1.25V8.75C0 9.43917 0.560833 10 1.25 10H8.75C9.43917 10 10 9.43917 10 8.75V5.83333H4.16667ZM9.16667 8.75C9.16667 8.98 8.98 9.16667 8.75 9.16667H1.25C1.02042 9.16667 0.833333 8.98 0.833333 8.75V1.25C0.833333 1.02 1.02042 0.833333 1.25 0.833333H3.33333V2.5H2.08333V3.33333H3.33333V4.16667H2.08333V5H3.33333V5.83333H2.08333V6.66667H3.33333V7.91667H4.16667V6.66667H5V7.91667H5.83333V6.66667H6.66667V7.91667H7.5V6.66667H9.16667V8.75Z" fill="#5C6476"/>
</g>
<defs>
<clipPath id="clip0_1903_68335">
<rect width="10" height="10" fill="white"/>
</clipPath>
</defs>
</svg>
