<svg width="10" height="10" viewBox="0 0 10 10" fill="none" xmlns="http://www.w3.org/2000/svg">
<g clip-path="url(#clip0_1903_68344)">
<path d="M5 5C5.49445 5 5.9778 4.85338 6.38893 4.57868C6.80005 4.30397 7.12048 3.91353 7.3097 3.45671C7.49892 2.99989 7.54843 2.49723 7.45196 2.01228C7.3555 1.52732 7.1174 1.08187 6.76777 0.732234C6.41814 0.382603 5.97268 0.144501 5.48773 0.0480379C5.00277 -0.0484251 4.50011 0.00108322 4.04329 0.190302C3.58648 0.379521 3.19603 0.699953 2.92133 1.11108C2.64662 1.5222 2.5 2.00555 2.5 2.5C2.50066 3.16284 2.76427 3.79834 3.23296 4.26704C3.70166 4.73573 4.33716 4.99934 5 5ZM5 0.833334C5.32964 0.833334 5.65187 0.931083 5.92595 1.11422C6.20003 1.29735 6.41365 1.55765 6.5398 1.8622C6.66595 2.16674 6.69895 2.50185 6.63464 2.82515C6.57033 3.14845 6.4116 3.44543 6.17851 3.67851C5.94542 3.9116 5.64845 4.07033 5.32515 4.13464C5.00185 4.19895 4.66674 4.16595 4.36219 4.0398C4.05765 3.91365 3.79735 3.70003 3.61422 3.42595C3.43108 3.15187 3.33333 2.82964 3.33333 2.5C3.33333 2.05797 3.50893 1.63405 3.82149 1.32149C4.13405 1.00893 4.55797 0.833334 5 0.833334Z" fill="#5C6476"/>
<path d="M5 5.83325C4.00578 5.83435 3.05259 6.2298 2.34957 6.93282C1.64655 7.63584 1.2511 8.58903 1.25 9.58325C1.25 9.69376 1.2939 9.79974 1.37204 9.87788C1.45018 9.95602 1.55616 9.99992 1.66667 9.99992C1.77717 9.99992 1.88315 9.95602 1.96129 9.87788C2.03943 9.79974 2.08333 9.69376 2.08333 9.58325C2.08333 8.8097 2.39062 8.06784 2.93761 7.52086C3.48459 6.97388 4.22645 6.66659 5 6.66659C5.77355 6.66659 6.51541 6.97388 7.06239 7.52086C7.60938 8.06784 7.91667 8.8097 7.91667 9.58325C7.91667 9.69376 7.96057 9.79974 8.0387 9.87788C8.11685 9.95602 8.22283 9.99992 8.33333 9.99992C8.44384 9.99992 8.54982 9.95602 8.62796 9.87788C8.7061 9.79974 8.75 9.69376 8.75 9.58325C8.7489 8.58903 8.35346 7.63584 7.65043 6.93282C6.94741 6.2298 5.99422 5.83435 5 5.83325Z" fill="#5C6476"/>
</g>
<defs>
<clipPath id="clip0_1903_68344">
<rect width="10" height="10" fill="white"/>
</clipPath>
</defs>
</svg>
