<svg width="10" height="10" viewBox="0 0 10 10" fill="none" xmlns="http://www.w3.org/2000/svg">
<g clip-path="url(#clip0_1903_68339)">
<path d="M5 0C3.76896 0.000877653 2.58172 0.456926 1.66667 1.28042V0.416667C1.66667 0.30616 1.62277 0.200179 1.54463 0.122039C1.46649 0.0438987 1.36051 0 1.25 0C1.13949 0 1.03351 0.0438987 0.955372 0.122039C0.877232 0.200179 0.833333 0.30616 0.833333 0.416667V1.66667C0.833333 1.99819 0.965029 2.31613 1.19945 2.55055C1.43387 2.78497 1.75181 2.91667 2.08333 2.91667H3.33333C3.44384 2.91667 3.54982 2.87277 3.62796 2.79463C3.7061 2.71649 3.75 2.61051 3.75 2.5C3.75 2.38949 3.7061 2.28351 3.62796 2.20537C3.54982 2.12723 3.44384 2.08333 3.33333 2.08333H2.08333C2.06928 2.08125 2.05537 2.07833 2.04167 2.07458C2.72063 1.39076 3.61589 0.963782 4.57461 0.866527C5.53333 0.769273 6.49609 1.00777 7.29855 1.54132C8.10101 2.07486 8.69342 2.87037 8.97466 3.79206C9.2559 4.71375 9.20854 5.70448 8.84066 6.59514C8.47277 7.4858 7.80718 8.22117 6.95748 8.67573C6.10778 9.13029 5.12666 9.27586 4.18159 9.08759C3.23652 8.89932 2.38608 8.38889 1.77544 7.64341C1.1648 6.89794 0.831821 5.96364 0.833333 5C0.833333 4.88949 0.789435 4.78351 0.711295 4.70537C0.633154 4.62723 0.527174 4.58333 0.416667 4.58333C0.30616 4.58333 0.200179 4.62723 0.122039 4.70537C0.0438987 4.78351 0 4.88949 0 5C0 5.98891 0.293245 6.95561 0.842652 7.77785C1.39206 8.6001 2.17295 9.24096 3.08658 9.6194C4.00021 9.99784 5.00555 10.0969 5.97545 9.90393C6.94536 9.711 7.83627 9.2348 8.53553 8.53553C9.2348 7.83627 9.711 6.94536 9.90393 5.97545C10.0969 5.00555 9.99784 4.00021 9.6194 3.08658C9.24096 2.17295 8.6001 1.39206 7.77785 0.842652C6.95561 0.293245 5.98891 0 5 0Z" fill="#5C6476"/>
<path d="M4.99967 2.5C4.88917 2.5 4.78319 2.5439 4.70505 2.62204C4.62691 2.70018 4.58301 2.80616 4.58301 2.91667V5C4.58303 5.1105 4.62695 5.21646 4.70509 5.29458L5.95509 6.54458C6.03368 6.62048 6.13893 6.66248 6.24817 6.66153C6.35742 6.66058 6.46193 6.61676 6.53918 6.53951C6.61644 6.46225 6.66026 6.35775 6.6612 6.2485C6.66215 6.13925 6.62016 6.034 6.54426 5.95542L5.41634 4.8275V2.91667C5.41634 2.80616 5.37244 2.70018 5.2943 2.62204C5.21616 2.5439 5.11018 2.5 4.99967 2.5Z" fill="#5C6476"/>
</g>
<defs>
<clipPath id="clip0_1903_68339">
<rect width="10" height="10" fill="white"/>
</clipPath>
</defs>
</svg>
