<svg width="12" height="12" viewBox="0 0 12 12" fill="none" xmlns="http://www.w3.org/2000/svg">
<g clip-path="url(#clip0_1390_128119)">
<path d="M11.5005 7.50001H11.167C11.042 7.50001 10.918 7.50951 10.7945 7.52851L7.2715 4.88651L8.1155 4.07851C8.315 3.88751 8.322 3.57051 8.131 3.37151C7.9395 3.17201 7.6225 3.16551 7.424 3.35601L5.3375 5.35351C5.2335 5.45751 5.092 5.51101 4.9435 5.49851C4.7945 5.48651 4.6635 5.41101 4.574 5.28601C4.437 5.09601 4.479 4.79851 4.658 4.61901L7.0095 2.40451C7.455 1.98601 8.1515 1.88351 8.6965 2.15701L9.8545 2.73601C10.1995 2.90851 10.5865 2.99951 10.972 2.99951H11.5C11.7765 2.99951 12 2.77601 12 2.49951C12 2.22301 11.7765 1.99951 11.5 1.99951H10.972C10.7405 1.99951 10.508 1.94501 10.301 1.84151L9.144 1.26251C8.232 0.806012 7.0675 0.975512 6.3235 1.67651L6.0145 1.96751L5.6645 1.64851C5.205 1.23001 4.61 0.999512 3.9695 0.999512C3.584 0.999512 3.1995 1.09051 2.856 1.26201L1.699 1.84101C1.4915 1.94451 1.259 1.99901 1.0275 1.99901H0.5005C0.224 1.99901 0.0005 2.22251 0.0005 2.49901C0.0005 2.77551 0.224 2.99901 0.5005 2.99901H1.0285C1.414 2.99901 1.801 2.90751 2.1465 2.73551L3.3045 2.15651C3.8155 1.89951 4.5335 1.96901 4.9915 2.38751L5.285 2.65501L3.962 3.90101C3.4255 4.43701 3.34 5.28451 3.763 5.87001C4.023 6.23151 4.5395 6.49951 4.985 6.49951C5.3815 6.49951 5.762 6.34351 6.037 6.06801L6.54 5.58651L9.713 7.96601C9.6975 7.97701 6.614 10.289 6.614 10.289C6.2525 10.57 5.748 10.57 5.379 10.2835L2.3335 7.99951C1.904 7.67701 1.371 7.49951 0.8335 7.49951H0.5C0.2235 7.49951 0 7.72301 0 7.99951C0 8.27601 0.2235 8.49951 0.5 8.49951H0.8335C1.156 8.49951 1.4755 8.60601 1.7335 8.79951L4.772 11.0785C5.1345 11.3605 5.569 11.5015 6.0025 11.5015C6.4335 11.5015 6.864 11.362 7.221 11.084L10.2675 8.80001C10.525 8.60651 10.8445 8.50001 11.167 8.50001H11.5005C11.777 8.50001 12.0005 8.27651 12.0005 8.00001C12.0005 7.72351 11.777 7.50001 11.5005 7.50001Z" fill="#212121"/>
</g>
<defs>
<clipPath id="clip0_1390_128119">
<rect width="12" height="12" fill="white"/>
</clipPath>
</defs>
</svg>
