<svg width="12" height="12" viewBox="0 0 12 12" fill="none" xmlns="http://www.w3.org/2000/svg">
<g clip-path="url(#clip0_1390_128098)">
<path d="M12 5L10.9 0H1.1L0.012 4.8915L0 5.5C0.00181335 5.98264 0.179587 6.44805 0.5 6.809V10.5C0.5 10.8978 0.658035 11.2794 0.93934 11.5607C1.22064 11.842 1.60218 12 2 12H10C10.3978 12 10.7794 11.842 11.0607 11.5607C11.342 11.2794 11.5 10.8978 11.5 10.5V6.809C11.8204 6.44805 11.9982 5.98264 12 5.5V5ZM1 5.0545L1.9 1H3.5V3H4.5V1H7.5V3H8.5V1H10.1L11 5.0545V5.5C11 5.76522 10.8946 6.01957 10.7071 6.20711C10.5196 6.39464 10.2652 6.5 10 6.5H9.5C9.23478 6.5 8.98043 6.39464 8.79289 6.20711C8.60536 6.01957 8.5 5.76522 8.5 5.5H7.5C7.5 5.76522 7.39464 6.01957 7.20711 6.20711C7.01957 6.39464 6.76522 6.5 6.5 6.5H5.5C5.23478 6.5 4.98043 6.39464 4.79289 6.20711C4.60536 6.01957 4.5 5.76522 4.5 5.5H3.5C3.5 5.76522 3.39464 6.01957 3.20711 6.20711C3.01957 6.39464 2.76522 6.5 2.5 6.5H2C1.73478 6.5 1.48043 6.39464 1.29289 6.20711C1.10536 6.01957 1 5.76522 1 5.5V5.0545ZM10 11H2C1.86739 11 1.74021 10.9473 1.64645 10.8536C1.55268 10.7598 1.5 10.6326 1.5 10.5V7.429C1.66293 7.47403 1.83098 7.49789 2 7.5H2.5C2.78495 7.49908 3.06636 7.4369 3.32517 7.31768C3.58398 7.19845 3.81412 7.02497 4 6.809C4.18588 7.02497 4.41602 7.19845 4.67483 7.31768C4.93364 7.4369 5.21505 7.49908 5.5 7.5H6.5C6.78391 7.50015 7.06458 7.4397 7.32325 7.32269C7.58193 7.20569 7.81265 7.03481 8 6.8215C8.18735 7.03481 8.41807 7.20569 8.67675 7.32269C8.93542 7.4397 9.21609 7.50015 9.5 7.5H10C10.169 7.49789 10.3371 7.47403 10.5 7.429V10.5C10.5 10.6326 10.4473 10.7598 10.3536 10.8536C10.2598 10.9473 10.1326 11 10 11Z" fill="#212121"/>
</g>
<defs>
<clipPath id="clip0_1390_128098">
<rect width="12" height="12" fill="white"/>
</clipPath>
</defs>
</svg>
