<svg width="18" height="18" viewBox="0 0 18 18" fill="none" xmlns="http://www.w3.org/2000/svg">
<path d="M3 9.75C3.4125 9.75 3.75 9.4125 3.75 9C3.75 8.5875 3.4125 8.25 3 8.25C2.5875 8.25 2.25 8.5875 2.25 9C2.25 9.4125 2.5875 9.75 3 9.75ZM3 12.75C3.4125 12.75 3.75 12.4125 3.75 12C3.75 11.5875 3.4125 11.25 3 11.25C2.5875 11.25 2.25 11.5875 2.25 12C2.25 12.4125 2.5875 12.75 3 12.75ZM3 6.75C3.4125 6.75 3.75 6.4125 3.75 6C3.75 5.5875 3.4125 5.25 3 5.25C2.5875 5.25 2.25 5.5875 2.25 6C2.25 6.4125 2.5875 6.75 3 6.75ZM6 9.75H15C15.4125 9.75 15.75 9.4125 15.75 9C15.75 8.5875 15.4125 8.25 15 8.25H6C5.5875 8.25 5.25 8.5875 5.25 9C5.25 9.4125 5.5875 9.75 6 9.75ZM6 12.75H15C15.4125 12.75 15.75 12.4125 15.75 12C15.75 11.5875 15.4125 11.25 15 11.25H6C5.5875 11.25 5.25 11.5875 5.25 12C5.25 12.4125 5.5875 12.75 6 12.75ZM5.25 6C5.25 6.4125 5.5875 6.75 6 6.75H15C15.4125 6.75 15.75 6.4125 15.75 6C15.75 5.5875 15.4125 5.25 15 5.25H6C5.5875 5.25 5.25 5.5875 5.25 6ZM3 9.75C3.4125 9.75 3.75 9.4125 3.75 9C3.75 8.5875 3.4125 8.25 3 8.25C2.5875 8.25 2.25 8.5875 2.25 9C2.25 9.4125 2.5875 9.75 3 9.75ZM3 12.75C3.4125 12.75 3.75 12.4125 3.75 12C3.75 11.5875 3.4125 11.25 3 11.25C2.5875 11.25 2.25 11.5875 2.25 12C2.25 12.4125 2.5875 12.75 3 12.75ZM3 6.75C3.4125 6.75 3.75 6.4125 3.75 6C3.75 5.5875 3.4125 5.25 3 5.25C2.5875 5.25 2.25 5.5875 2.25 6C2.25 6.4125 2.5875 6.75 3 6.75ZM6 9.75H15C15.4125 9.75 15.75 9.4125 15.75 9C15.75 8.5875 15.4125 8.25 15 8.25H6C5.5875 8.25 5.25 8.5875 5.25 9C5.25 9.4125 5.5875 9.75 6 9.75ZM6 12.75H15C15.4125 12.75 15.75 12.4125 15.75 12C15.75 11.5875 15.4125 11.25 15 11.25H6C5.5875 11.25 5.25 11.5875 5.25 12C5.25 12.4125 5.5875 12.75 6 12.75ZM5.25 6C5.25 6.4125 5.5875 6.75 6 6.75H15C15.4125 6.75 15.75 6.4125 15.75 6C15.75 5.5875 15.4125 5.25 15 5.25H6C5.5875 5.25 5.25 5.5875 5.25 6Z" fill="#050505"/>
</svg>
