<svg width="12" height="12" viewBox="0 0 12 12" fill="none" xmlns="http://www.w3.org/2000/svg">
<g clip-path="url(#clip0_1390_128109)">
<path d="M6 6C6.59334 6 7.17336 5.82405 7.66671 5.49441C8.16006 5.16477 8.54458 4.69623 8.77164 4.14805C8.9987 3.59987 9.05811 2.99667 8.94236 2.41473C8.8266 1.83279 8.54088 1.29824 8.12132 0.878681C7.70176 0.459123 7.16721 0.173401 6.58527 0.0576455C6.00333 -0.0581102 5.40013 0.00129986 4.85195 0.228363C4.30377 0.455426 3.83524 0.839943 3.50559 1.33329C3.17595 1.82664 3 2.40666 3 3C3.00079 3.79541 3.31712 4.55801 3.87956 5.12044C4.44199 5.68288 5.20459 5.99921 6 6ZM6 1C6.39556 1 6.78224 1.1173 7.11114 1.33706C7.44004 1.55682 7.69638 1.86918 7.84776 2.23463C7.99913 2.60009 8.03874 3.00222 7.96157 3.39018C7.8844 3.77814 7.69392 4.13451 7.41421 4.41422C7.13451 4.69392 6.77814 4.8844 6.39018 4.96157C6.00222 5.03874 5.60009 4.99914 5.23463 4.84776C4.86918 4.69639 4.55682 4.44004 4.33706 4.11114C4.1173 3.78224 4 3.39556 4 3C4 2.46957 4.21071 1.96086 4.58579 1.58579C4.96086 1.21072 5.46957 1 6 1Z" fill="#212121"/>
<path d="M6 7C4.80693 7.00132 3.66311 7.47585 2.81948 8.31948C1.97585 9.16311 1.50132 10.3069 1.5 11.5C1.5 11.6326 1.55268 11.7598 1.64645 11.8536C1.74021 11.9473 1.86739 12 2 12C2.13261 12 2.25979 11.9473 2.35355 11.8536C2.44732 11.7598 2.5 11.6326 2.5 11.5C2.5 10.5717 2.86875 9.6815 3.52513 9.02513C4.1815 8.36875 5.07174 8 6 8C6.92826 8 7.8185 8.36875 8.47487 9.02513C9.13125 9.6815 9.5 10.5717 9.5 11.5C9.5 11.6326 9.55268 11.7598 9.64645 11.8536C9.74021 11.9473 9.86739 12 10 12C10.1326 12 10.2598 11.9473 10.3536 11.8536C10.4473 11.7598 10.5 11.6326 10.5 11.5C10.4987 10.3069 10.0241 9.16311 9.18052 8.31948C8.33689 7.47585 7.19307 7.00132 6 7Z" fill="#212121"/>
</g>
<defs>
<clipPath id="clip0_1390_128109">
<rect width="12" height="12" fill="white"/>
</clipPath>
</defs>
</svg>
