<svg width="18" height="18" viewBox="0 0 18 18" fill="none" xmlns="http://www.w3.org/2000/svg">
<g clip-path="url(#clip0_1937_18893)">
<path fill-rule="evenodd" clip-rule="evenodd" d="M3.37652 15.75L3.97277 15.1537L6.50402 12.6225C6.65779 12.4634 6.74294 12.2503 6.74112 12.0291C6.7393 11.8079 6.65066 11.5962 6.4943 11.4397C6.33793 11.2832 6.12635 11.1944 5.90512 11.1923C5.6839 11.1903 5.47072 11.2752 5.31152 11.4289L4.22027 12.5201V3.09262C4.22027 2.86884 4.13137 2.65423 3.97314 2.496C3.8149 2.33777 3.60029 2.24887 3.37652 2.24887C3.15274 2.24887 2.93813 2.33777 2.77989 2.496C2.62166 2.65423 2.53277 2.86884 2.53277 3.09262V12.5201L1.44152 11.4289C1.36427 11.346 1.27112 11.2795 1.16762 11.2334C1.06412 11.1873 0.952394 11.1625 0.839103 11.1605C0.725813 11.1585 0.61328 11.1793 0.508218 11.2217C0.403157 11.2642 0.307719 11.3273 0.227597 11.4075C0.147476 11.4876 0.0843137 11.583 0.0418776 11.6881C-0.000558575 11.7931 -0.0213988 11.9057 -0.0193999 12.019C-0.0174011 12.1322 0.007396 12.244 0.053512 12.3475C0.0996279 12.451 0.166118 12.5441 0.249016 12.6214L2.78027 15.1526L3.37652 15.75ZM9.00152 5.34375C9.00152 5.8095 9.37952 6.1875 9.84527 6.1875H11.5328C11.7565 6.1875 11.9712 6.0986 12.1294 5.94037C12.2876 5.78213 12.3765 5.56752 12.3765 5.34375C12.3765 5.11997 12.2876 4.90536 12.1294 4.74712C11.9712 4.58889 11.7565 4.5 11.5328 4.5H9.84527C9.62149 4.5 9.40688 4.58889 9.24865 4.74712C9.09041 4.90536 9.00152 5.11997 9.00152 5.34375ZM9.84527 9.84375C9.62149 9.84375 9.40688 9.75485 9.24865 9.59662C9.09041 9.43838 9.00152 9.22377 9.00152 9C9.00152 8.77622 9.09041 8.56161 9.24865 8.40337C9.40688 8.24514 9.62149 8.15625 9.84527 8.15625H14.9078C15.1315 8.15625 15.3462 8.24514 15.5044 8.40337C15.6626 8.56161 15.7515 8.77622 15.7515 9C15.7515 9.22377 15.6626 9.43838 15.5044 9.59662C15.3462 9.75485 15.1315 9.84375 14.9078 9.84375H9.84527ZM9.84527 13.5C9.62149 13.5 9.40688 13.4111 9.24865 13.2529C9.09041 13.0946 9.00152 12.88 9.00152 12.6562C9.00152 12.4325 9.09041 12.2179 9.24865 12.0596C9.40688 11.9014 9.62149 11.8125 9.84527 11.8125H17.1578C17.3815 11.8125 17.5962 11.9014 17.7544 12.0596C17.9126 12.2179 18.0015 12.4325 18.0015 12.6562C18.0015 12.88 17.9126 13.0946 17.7544 13.2529C17.5962 13.4111 17.3815 13.5 17.1578 13.5H9.84527Z" fill="#050505"/>
</g>
<defs>
<clipPath id="clip0_1937_18893">
<rect width="18" height="18" fill="white"/>
</clipPath>
</defs>
</svg>
