<svg width="12" height="12" viewBox="0 0 12 12" fill="none" xmlns="http://www.w3.org/2000/svg">
<g clip-path="url(#clip0_1390_128114)">
<path d="M6 0C2.6915 0 0 2.6915 0 6C0 9.3085 2.6915 12 6 12C9.3085 12 12 9.3085 12 6C12 2.6915 9.3085 0 6 0ZM6 11C3.243 11 1 8.757 1 6C1 3.243 3.243 1 6 1C8.757 1 11 3.243 11 6C11 8.757 8.757 11 6 11ZM8 7C8 7.827 7.327 8.5 6.5 8.5V9C6.5 9.2765 6.2765 9.5 6 9.5C5.7235 9.5 5.5 9.2765 5.5 9V8.5H5.366C4.8325 8.5 4.3345 8.213 4.067 7.7505C3.9285 7.511 4.0105 7.2055 4.249 7.0675C4.4885 6.928 4.7945 7.011 4.932 7.2495C5.0215 7.4045 5.1875 7.5 5.3655 7.5H6.4995C6.7755 7.5 6.9995 7.276 6.9995 7C6.9995 6.811 6.864 6.651 6.6775 6.62L5.157 6.3665C4.486 6.255 3.9995 5.68 3.9995 5C3.9995 4.173 4.6725 3.5 5.4995 3.5V3C5.4995 2.724 5.723 2.5 5.9995 2.5C6.276 2.5 6.4995 2.724 6.4995 3V3.5H6.6335C7.167 3.5 7.665 3.7875 7.9325 4.25C8.071 4.489 7.989 4.7945 7.7505 4.933C7.5105 5.0715 7.205 4.9895 7.0675 4.7505C6.978 4.596 6.812 4.5005 6.634 4.5005H5.5C5.224 4.5005 5 4.725 5 5.0005C5 5.1895 5.1355 5.3495 5.322 5.3805L6.8425 5.634C7.5135 5.7455 8 6.3205 8 7.0005V7Z" fill="#212121"/>
</g>
<defs>
<clipPath id="clip0_1390_128114">
<rect width="12" height="12" fill="white"/>
</clipPath>
</defs>
</svg>
