<svg width="18" height="18" viewBox="0 0 18 18" fill="none" xmlns="http://www.w3.org/2000/svg">
<path d="M11.25 15.75L6.75 14.175L3.2625 15.525C3.0125 15.625 2.78125 15.5967 2.56875 15.4402C2.35625 15.2837 2.25 15.0745 2.25 14.8125V4.3125C2.25 4.15 2.297 4.00625 2.391 3.88125C2.485 3.75625 2.613 3.6625 2.775 3.6L6.75 2.25L11.25 3.825L14.7375 2.475C14.9875 2.375 15.2188 2.40325 15.4313 2.55975C15.6438 2.71625 15.75 2.9255 15.75 3.1875V13.6875C15.75 13.85 15.703 13.9938 15.609 14.1188C15.515 14.2438 15.387 14.3375 15.225 14.4L11.25 15.75ZM10.5 13.9125V5.1375L7.5 4.0875V12.8625L10.5 13.9125ZM12 13.9125L14.25 13.1625V4.275L12 5.1375V13.9125ZM3.75 13.725L6 12.8625V4.0875L3.75 4.8375V13.725Z" fill="#050505"/>
</svg>
