<svg width="12" height="12" viewBox="0 0 12 12" fill="none" xmlns="http://www.w3.org/2000/svg">
<g clip-path="url(#clip0_1390_128129)">
<path d="M12 6C12 7.5913 11.3679 9.11742 10.2426 10.2426C9.11742 11.3679 7.5913 12 6 12C4.4087 12 2.88258 11.3679 1.75736 10.2426C0.632141 9.11742 0 7.5913 0 6C0 5.86739 0.0526784 5.74021 0.146447 5.64645C0.240215 5.55268 0.367392 5.5 0.5 5.5C0.632608 5.5 0.759785 5.55268 0.853553 5.64645C0.947322 5.74021 1 5.86739 1 6C1 6.98891 1.29324 7.95561 1.84265 8.77785C2.39206 9.6001 3.17295 10.241 4.08658 10.6194C5.00021 10.9978 6.00555 11.0969 6.97545 10.9039C7.94536 10.711 8.83627 10.2348 9.53553 9.53553C10.2348 8.83627 10.711 7.94536 10.9039 6.97545C11.0969 6.00555 10.9978 5.00021 10.6194 4.08658C10.241 3.17295 9.6001 2.39206 8.77785 1.84265C7.95561 1.29324 6.98891 1 6 1C5.86739 1 5.74021 0.947322 5.64645 0.853553C5.55268 0.759785 5.5 0.632608 5.5 0.5C5.5 0.367392 5.55268 0.240215 5.64645 0.146447C5.74021 0.0526784 5.86739 0 6 0C7.59077 0.00172054 9.1159 0.634414 10.2407 1.75926C11.3656 2.88411 11.9983 4.40923 12 6ZM5.1385 5.5H4C3.86739 5.5 3.74021 5.55268 3.64645 5.64645C3.55268 5.74021 3.5 5.86739 3.5 6C3.5 6.13261 3.55268 6.25979 3.64645 6.35355C3.74021 6.44732 3.86739 6.5 4 6.5H5.1385C5.21486 6.63261 5.32072 6.74587 5.44788 6.831C5.57504 6.91613 5.72009 6.97084 5.8718 6.9909C6.0235 7.01097 6.17779 6.99584 6.32271 6.94669C6.46763 6.89755 6.59929 6.8157 6.70749 6.70749C6.8157 6.59929 6.89755 6.46763 6.94669 6.32271C6.99584 6.17779 7.01097 6.0235 6.9909 5.8718C6.97084 5.72009 6.91613 5.57504 6.831 5.44788C6.74587 5.32072 6.63261 5.21486 6.5 5.1385V3.5C6.5 3.36739 6.44732 3.24021 6.35355 3.14645C6.25979 3.05268 6.13261 3 6 3C5.86739 3 5.74021 3.05268 5.64645 3.14645C5.55268 3.24021 5.5 3.36739 5.5 3.5V5.1385C5.35021 5.22564 5.22564 5.35021 5.1385 5.5ZM0.9135 4.392C1.01239 4.392 1.10906 4.36268 1.19129 4.30773C1.27351 4.25279 1.3376 4.1747 1.37544 4.08334C1.41328 3.99198 1.42319 3.89145 1.40389 3.79445C1.3846 3.69746 1.33698 3.60837 1.26705 3.53845C1.19713 3.46852 1.10804 3.4209 1.01105 3.40161C0.914055 3.38231 0.813521 3.39222 0.722158 3.43006C0.630795 3.4679 0.552706 3.53199 0.497765 3.61421C0.442824 3.69644 0.4135 3.79311 0.4135 3.892C0.4135 4.02461 0.466178 4.15179 0.559947 4.24555C0.653715 4.33932 0.780892 4.392 0.9135 4.392ZM2.1105 2.6035C2.20939 2.6035 2.30606 2.57418 2.38829 2.51923C2.47051 2.46429 2.5346 2.3862 2.57244 2.29484C2.61028 2.20348 2.62019 2.10295 2.60089 2.00595C2.5816 1.90896 2.53398 1.81987 2.46405 1.74995C2.39413 1.68002 2.30504 1.6324 2.20805 1.61311C2.11105 1.59381 2.01052 1.60372 1.91916 1.64156C1.8278 1.6794 1.74971 1.74349 1.69477 1.82571C1.63982 1.90794 1.6105 2.00461 1.6105 2.1035C1.6105 2.23611 1.66318 2.36329 1.75695 2.45705C1.85071 2.55082 1.97789 2.6035 2.1105 2.6035ZM3.8895 1.4205C3.98839 1.4205 4.08506 1.39118 4.16728 1.33623C4.24951 1.28129 4.3136 1.2032 4.35144 1.11184C4.38928 1.02048 4.39919 0.919945 4.37989 0.822955C4.3606 0.725964 4.31298 0.636873 4.24305 0.566947C4.17313 0.49702 4.08404 0.4494 3.98705 0.430107C3.89005 0.410815 3.78952 0.420716 3.69816 0.45856C3.6068 0.496404 3.52871 0.56049 3.47377 0.642715C3.41882 0.724939 3.3895 0.821609 3.3895 0.9205C3.3895 1.05311 3.44218 1.18029 3.53595 1.27405C3.62971 1.36782 3.75689 1.4205 3.8895 1.4205Z" fill="#212121"/>
</g>
<defs>
<clipPath id="clip0_1390_128129">
<rect width="12" height="12" fill="white"/>
</clipPath>
</defs>
</svg>
