<svg width="12" height="12" viewBox="0 0 12 12" fill="none" xmlns="http://www.w3.org/2000/svg">
<g clip-path="url(#clip0_1390_128124)">
<path d="M6 0C4.52275 0.00105318 3.09807 0.548311 2 1.5365V0.5C2 0.367392 1.94732 0.240215 1.85355 0.146447C1.75979 0.0526784 1.63261 0 1.5 0C1.36739 0 1.24021 0.0526784 1.14645 0.146447C1.05268 0.240215 1 0.367392 1 0.5V2C1 2.39783 1.15804 2.77936 1.43934 3.06066C1.72064 3.34197 2.10218 3.5 2.5 3.5H4C4.13261 3.5 4.25979 3.44732 4.35355 3.35355C4.44732 3.25979 4.5 3.13261 4.5 3C4.5 2.86739 4.44732 2.74022 4.35355 2.64645C4.25979 2.55268 4.13261 2.5 4 2.5H2.5C2.48314 2.4975 2.46644 2.494 2.45 2.4895C3.26476 1.66891 4.33906 1.15654 5.48953 1.03983C6.64 0.923128 7.79531 1.20933 8.75826 1.84958C9.72121 2.48983 10.4321 3.44445 10.7696 4.55048C11.1071 5.6565 11.0503 6.84538 10.6088 7.91417C10.1673 8.98296 9.36861 9.8654 8.34898 10.4109C7.32934 10.9563 6.152 11.131 5.01791 10.9051C3.88382 10.6792 2.86329 10.0667 2.13053 9.1721C1.39776 8.27753 0.998185 7.15637 1 6C1 5.86739 0.947322 5.74022 0.853554 5.64645C0.759785 5.55268 0.632608 5.5 0.5 5.5C0.367392 5.5 0.240215 5.55268 0.146447 5.64645C0.0526784 5.74022 0 5.86739 0 6C0 7.18669 0.351894 8.34673 1.01118 9.33342C1.67047 10.3201 2.60754 11.0892 3.7039 11.5433C4.80026 11.9974 6.00666 12.1162 7.17054 11.8847C8.33443 11.6532 9.40353 11.0818 10.2426 10.2426C11.0818 9.40353 11.6532 8.33443 11.8847 7.17054C12.1162 6.00666 11.9974 4.80026 11.5433 3.7039C11.0892 2.60754 10.3201 1.67047 9.33342 1.01118C8.34673 0.351894 7.18669 0 6 0Z" fill="#212121"/>
<path d="M6 3C5.86739 3 5.74021 3.05268 5.64645 3.14645C5.55268 3.24021 5.5 3.36739 5.5 3.5V6C5.50003 6.1326 5.55273 6.25975 5.6465 6.3535L7.1465 7.8535C7.2408 7.94458 7.3671 7.99498 7.4982 7.99384C7.6293 7.9927 7.75471 7.94011 7.84741 7.84741C7.94011 7.75471 7.9927 7.6293 7.99384 7.4982C7.99498 7.3671 7.94458 7.2408 7.8535 7.1465L6.5 5.793V3.5C6.5 3.36739 6.44732 3.24021 6.35355 3.14645C6.25979 3.05268 6.13261 3 6 3Z" fill="#212121"/>
</g>
<defs>
<clipPath id="clip0_1390_128124">
<rect width="12" height="12" fill="white"/>
</clipPath>
</defs>
</svg>
