<svg width="18" height="18" viewBox="0 0 18 18" fill="none" xmlns="http://www.w3.org/2000/svg">
<path d="M15.6354 11.1416L12.323 9.65728L12.3138 9.65306C12.1419 9.57951 11.9543 9.55 11.768 9.56718C11.5818 9.58437 11.4028 9.64772 11.2472 9.7515C11.2289 9.7636 11.2113 9.77675 11.1945 9.79087L9.48305 11.2499C8.39883 10.7232 7.27946 9.61228 6.75282 8.54212L8.21391 6.8047C8.22797 6.78712 8.24133 6.76955 8.25399 6.75056C8.35554 6.59538 8.41715 6.41751 8.43335 6.23276C8.44954 6.04802 8.41981 5.86213 8.3468 5.69165V5.68322L6.85829 2.36517C6.76178 2.14247 6.59583 1.95695 6.38522 1.83631C6.1746 1.71567 5.93062 1.66638 5.68969 1.6958C4.73694 1.82117 3.8624 2.28907 3.22941 3.01211C2.59643 3.73515 2.24828 4.66389 2.25001 5.62486C2.25001 11.2077 6.79219 15.7499 12.375 15.7499C13.336 15.7516 14.2647 15.4034 14.9878 14.7705C15.7108 14.1375 16.1787 13.2629 16.3041 12.3102C16.3335 12.0693 16.2844 11.8254 16.1638 11.6148C16.0433 11.4042 15.858 11.2382 15.6354 11.1416ZM12.375 14.6249C9.98886 14.6223 7.70119 13.6732 6.01392 11.9859C4.32666 10.2987 3.37761 8.01101 3.37501 5.62486C3.37236 4.93825 3.61973 4.27415 4.07091 3.75659C4.5221 3.23903 5.14625 2.90339 5.8268 2.81236C5.82653 2.81516 5.82653 2.81799 5.8268 2.8208L7.30337 6.12548L5.85001 7.86501C5.83525 7.88199 5.82185 7.90009 5.80993 7.91916C5.70412 8.08152 5.64205 8.26846 5.62973 8.46187C5.61741 8.65528 5.65526 8.84859 5.73962 9.02306C6.37665 10.326 7.68938 11.6288 9.00633 12.2652C9.18209 12.3487 9.37652 12.3853 9.57062 12.3712C9.76473 12.3572 9.95186 12.293 10.1138 12.185C10.1318 12.1729 10.1492 12.1597 10.1658 12.1456L11.8751 10.6874L15.1798 12.1674H15.1875C15.0976 12.849 14.7624 13.4744 14.2448 13.9267C13.7271 14.379 13.0624 14.6272 12.375 14.6249Z" fill="#FBFBFB"/>
</svg>
