<svg width="18" height="18" viewBox="0 0 18 18" fill="none" xmlns="http://www.w3.org/2000/svg">
<path d="M3 14.5183V4.0003C2.99995 3.82434 3.04632 3.65149 3.13444 3.49919C3.22256 3.34689 3.3493 3.22054 3.50188 3.13289C3.65445 3.04525 3.82744 2.99941 4.0034 3.00001C4.17935 3.0006 4.35203 3.04762 4.504 3.1363L13.519 8.3963C13.6698 8.4844 13.795 8.61048 13.8819 8.76198C13.9689 8.91348 14.0147 9.08511 14.0147 9.2598C14.0147 9.43448 13.9689 9.60612 13.8819 9.75762C13.795 9.90912 13.6698 10.0352 13.519 10.1233L4.504 15.3823C4.35203 15.471 4.17935 15.518 4.0034 15.5186C3.82744 15.5192 3.65445 15.4733 3.50188 15.3857C3.3493 15.2981 3.22256 15.1717 3.13444 15.0194C3.04632 14.8671 2.99995 14.6943 3 14.5183Z" stroke="#050505" stroke-width="2" stroke-linecap="round" stroke-linejoin="round"/>
</svg>
