<svg width="32" height="32" viewBox="0 0 32 32" fill="none" xmlns="http://www.w3.org/2000/svg">
<rect width="32" height="32" rx="16" fill="#050505"/>
<path d="M21.8514 11.9471L21.8403 11.924C21.7917 11.823 21.7118 11.75 21.621 11.7129C21.6146 11.7103 21.6082 11.7079 21.6018 11.7057C21.5038 11.6717 21.3971 11.6791 21.3031 11.7281C21.303 11.7281 21.303 11.7281 21.303 11.7281L21.2811 11.7395L21.2803 11.7399L20.0161 12.398L19.826 12.497L19.7718 12.5252L19.844 12.6756L19.8994 12.791L21.6285 16.3932L21.6865 16.5141L21.8514 11.9471ZM21.8514 11.9471L21.5946 12.0704L21.8515 11.9475M10.1482 11.947L9.95422 11.8539L9.9541 11.8541L9.95383 11.8547L10.148 11.9475L10.1482 11.947ZM10.1482 11.947L10.4049 12.0704L10.1593 11.924L10.1482 11.947ZM18.2696 12.1808L18.9795 12.392H17.6304L18.2696 12.1808ZM10.1593 11.924C10.2078 11.823 10.2877 11.75 10.3786 11.7129C10.3849 11.7103 10.3913 11.7079 10.3978 11.7057C10.4957 11.6717 10.6024 11.6791 10.6965 11.7281L10.1593 11.924Z" fill="#050505" stroke="#FBFBFB"/>
</svg>
