<svg width="32" height="32" viewBox="0 0 32 32" fill="none" xmlns="http://www.w3.org/2000/svg">
<rect width="32" height="32" rx="16" fill="#050505"/>
<mask id="path-2-inside-1_1161_107379" fill="white">
<path d="M20.683 8.91674C20.6079 8.84163 20.506 8.79944 20.3998 8.79944C20.2936 8.79944 20.1917 8.84163 20.1166 8.91674C20.0415 8.99185 19.9993 9.09372 19.9993 9.19994C19.9993 9.30616 20.0415 9.40803 20.1166 9.48314C21.0254 10.3911 21.4998 11.7791 21.4998 13.1999C21.4998 14.6207 21.0254 16.0087 20.1166 16.9167C20.0415 16.9919 19.9993 17.0937 19.9993 17.1999C19.9993 17.3062 20.0415 17.408 20.1166 17.4831C20.1917 17.5583 20.2936 17.6004 20.3998 17.6004C20.506 17.6004 20.6079 17.5583 20.683 17.4831C21.7742 16.3911 22.2998 14.7791 22.2998 13.1999C22.2998 11.6207 21.7742 10.0087 20.683 8.91674ZM19.083 10.5167C19.0458 10.4796 19.0017 10.4501 18.9531 10.4299C18.9045 10.4098 18.8524 10.3994 18.7998 10.3994C18.7472 10.3994 18.6951 10.4098 18.6465 10.4299C18.5979 10.4501 18.5538 10.4796 18.5166 10.5167C18.4794 10.5539 18.4499 10.5981 18.4298 10.6467C18.4097 10.6953 18.3993 10.7473 18.3993 10.7999C18.3993 10.8525 18.4097 10.9046 18.4298 10.9532C18.4499 11.0018 18.4794 11.046 18.5166 11.0831C19.0246 11.5911 19.2998 12.3791 19.2998 13.1999C19.2998 14.0207 19.0246 14.8087 18.5166 15.3167C18.4415 15.3919 18.3993 15.4937 18.3993 15.5999C18.3993 15.7062 18.4415 15.808 18.5166 15.8831C18.5917 15.9583 18.6936 16.0004 18.7998 16.0004C18.906 16.0004 19.0079 15.9583 19.083 15.8831C19.775 15.1911 20.0998 14.1791 20.0998 13.1999C20.0998 12.2207 19.775 11.2087 19.083 10.5167ZM11.1998 13.5999C11.1998 12.7513 11.5369 11.9373 12.1371 11.3372C12.7372 10.7371 13.5511 10.3999 14.3998 10.3999C15.2485 10.3999 16.0624 10.7371 16.6625 11.3372C17.2627 11.9373 17.5998 12.7513 17.5998 13.5999C17.5998 14.4486 17.2627 15.2626 16.6625 15.8627C16.0624 16.4628 15.2485 16.7999 14.3998 16.7999C13.5511 16.7999 12.7372 16.4628 12.1371 15.8627C11.5369 15.2626 11.1998 14.4486 11.1998 13.5999ZM14.3998 11.1999C14.0846 11.1999 13.7725 11.262 13.4814 11.3826C13.1902 11.5032 12.9256 11.68 12.7027 11.9029C12.4799 12.1257 12.3031 12.3903 12.1825 12.6815C12.0619 12.9727 11.9998 13.2848 11.9998 13.5999C11.9998 13.9151 12.0619 14.2272 12.1825 14.5184C12.3031 14.8096 12.4799 15.0741 12.7027 15.297C12.9256 15.5199 13.1902 15.6966 13.4814 15.8173C13.7725 15.9379 14.0846 15.9999 14.3998 15.9999C15.0363 15.9999 15.6468 15.7471 16.0969 15.297C16.5469 14.8469 16.7998 14.2365 16.7998 13.5999C16.7998 12.9634 16.5469 12.353 16.0969 11.9029C15.6468 11.4528 15.0363 11.1999 14.3998 11.1999ZM8.7998 19.1999C8.7998 18.3095 9.5222 17.5999 10.407 17.5999H18.3998C18.8242 17.5999 19.2311 17.7685 19.5312 18.0686C19.8312 18.3686 19.9998 18.7756 19.9998 19.1999C19.9998 20.5527 19.3334 21.5727 18.2918 22.2375C17.2662 22.8911 15.8838 23.1999 14.3998 23.1999C12.9158 23.1999 11.5334 22.8911 10.5078 22.2375C9.4662 21.5735 8.7998 20.5519 8.7998 19.1999ZM10.407 18.3999C9.9582 18.3999 9.5998 18.7575 9.5998 19.1999C9.5998 20.2471 10.0974 21.0271 10.9382 21.5623C11.7942 22.1087 13.0118 22.3999 14.3998 22.3999C15.7878 22.3999 17.0054 22.1087 17.8614 21.5623C18.7014 21.0263 19.1998 20.2479 19.1998 19.1999C19.1998 18.9878 19.1155 18.7843 18.9655 18.6343C18.8155 18.4842 18.612 18.3999 18.3998 18.3999H10.407Z"/>
</mask>
<path d="M20.683 8.91674C20.6079 8.84163 20.506 8.79944 20.3998 8.79944C20.2936 8.79944 20.1917 8.84163 20.1166 8.91674C20.0415 8.99185 19.9993 9.09372 19.9993 9.19994C19.9993 9.30616 20.0415 9.40803 20.1166 9.48314C21.0254 10.3911 21.4998 11.7791 21.4998 13.1999C21.4998 14.6207 21.0254 16.0087 20.1166 16.9167C20.0415 16.9919 19.9993 17.0937 19.9993 17.1999C19.9993 17.3062 20.0415 17.408 20.1166 17.4831C20.1917 17.5583 20.2936 17.6004 20.3998 17.6004C20.506 17.6004 20.6079 17.5583 20.683 17.4831C21.7742 16.3911 22.2998 14.7791 22.2998 13.1999C22.2998 11.6207 21.7742 10.0087 20.683 8.91674ZM19.083 10.5167C19.0458 10.4796 19.0017 10.4501 18.9531 10.4299C18.9045 10.4098 18.8524 10.3994 18.7998 10.3994C18.7472 10.3994 18.6951 10.4098 18.6465 10.4299C18.5979 10.4501 18.5538 10.4796 18.5166 10.5167C18.4794 10.5539 18.4499 10.5981 18.4298 10.6467C18.4097 10.6953 18.3993 10.7473 18.3993 10.7999C18.3993 10.8525 18.4097 10.9046 18.4298 10.9532C18.4499 11.0018 18.4794 11.046 18.5166 11.0831C19.0246 11.5911 19.2998 12.3791 19.2998 13.1999C19.2998 14.0207 19.0246 14.8087 18.5166 15.3167C18.4415 15.3919 18.3993 15.4937 18.3993 15.5999C18.3993 15.7062 18.4415 15.808 18.5166 15.8831C18.5917 15.9583 18.6936 16.0004 18.7998 16.0004C18.906 16.0004 19.0079 15.9583 19.083 15.8831C19.775 15.1911 20.0998 14.1791 20.0998 13.1999C20.0998 12.2207 19.775 11.2087 19.083 10.5167ZM11.1998 13.5999C11.1998 12.7513 11.5369 11.9373 12.1371 11.3372C12.7372 10.7371 13.5511 10.3999 14.3998 10.3999C15.2485 10.3999 16.0624 10.7371 16.6625 11.3372C17.2627 11.9373 17.5998 12.7513 17.5998 13.5999C17.5998 14.4486 17.2627 15.2626 16.6625 15.8627C16.0624 16.4628 15.2485 16.7999 14.3998 16.7999C13.5511 16.7999 12.7372 16.4628 12.1371 15.8627C11.5369 15.2626 11.1998 14.4486 11.1998 13.5999ZM14.3998 11.1999C14.0846 11.1999 13.7725 11.262 13.4814 11.3826C13.1902 11.5032 12.9256 11.68 12.7027 11.9029C12.4799 12.1257 12.3031 12.3903 12.1825 12.6815C12.0619 12.9727 11.9998 13.2848 11.9998 13.5999C11.9998 13.9151 12.0619 14.2272 12.1825 14.5184C12.3031 14.8096 12.4799 15.0741 12.7027 15.297C12.9256 15.5199 13.1902 15.6966 13.4814 15.8173C13.7725 15.9379 14.0846 15.9999 14.3998 15.9999C15.0363 15.9999 15.6468 15.7471 16.0969 15.297C16.5469 14.8469 16.7998 14.2365 16.7998 13.5999C16.7998 12.9634 16.5469 12.353 16.0969 11.9029C15.6468 11.4528 15.0363 11.1999 14.3998 11.1999ZM8.7998 19.1999C8.7998 18.3095 9.5222 17.5999 10.407 17.5999H18.3998C18.8242 17.5999 19.2311 17.7685 19.5312 18.0686C19.8312 18.3686 19.9998 18.7756 19.9998 19.1999C19.9998 20.5527 19.3334 21.5727 18.2918 22.2375C17.2662 22.8911 15.8838 23.1999 14.3998 23.1999C12.9158 23.1999 11.5334 22.8911 10.5078 22.2375C9.4662 21.5735 8.7998 20.5519 8.7998 19.1999ZM10.407 18.3999C9.9582 18.3999 9.5998 18.7575 9.5998 19.1999C9.5998 20.2471 10.0974 21.0271 10.9382 21.5623C11.7942 22.1087 13.0118 22.3999 14.3998 22.3999C15.7878 22.3999 17.0054 22.1087 17.8614 21.5623C18.7014 21.0263 19.1998 20.2479 19.1998 19.1999C19.1998 18.9878 19.1155 18.7843 18.9655 18.6343C18.8155 18.4842 18.612 18.3999 18.3998 18.3999H10.407Z" fill="#050505"/>
<path d="M20.683 8.91674L21.3904 8.2099L21.3901 8.20964L20.683 8.91674ZM20.3998 8.79944V7.79944V8.79944ZM19.9993 9.19994H20.9993H19.9993ZM20.1166 9.48314L19.4095 10.1903L19.4098 10.1906L20.1166 9.48314ZM20.1166 16.9167L19.4098 16.2093L19.4095 16.2096L20.1166 16.9167ZM19.9993 17.1999H18.9993H19.9993ZM20.3998 17.6004V18.6004V17.6004ZM20.683 17.4831L21.3901 18.1903L21.3904 18.19L20.683 17.4831ZM19.083 10.5167L18.3759 11.2239L19.083 10.5167ZM18.7998 10.3994V9.39944V10.3994ZM18.3993 10.7999H19.3993H18.3993ZM18.5166 11.0831L17.8095 11.7903L18.5166 11.0831ZM18.3993 15.5999H17.3993H18.3993ZM18.7998 16.0004V17.0004V16.0004ZM11.1998 13.5999H10.1998H11.1998ZM14.3998 10.3999V9.39994V10.3999ZM17.5998 13.5999H18.5998H17.5998ZM14.3998 16.7999V17.7999V16.7999ZM14.3998 11.1999V12.1999V11.1999ZM11.9998 13.5999H10.9998H11.9998ZM14.3998 15.9999V16.9999V15.9999ZM18.2918 22.2375L18.8292 23.0809L18.8298 23.0805L18.2918 22.2375ZM10.5078 22.2375L9.97026 23.0808L9.97038 23.0809L10.5078 22.2375ZM10.9382 21.5623L11.4763 20.7194L11.4752 20.7187L10.9382 21.5623ZM17.8614 21.5623L17.3235 20.7193L17.3234 20.7194L17.8614 21.5623ZM21.3901 8.20964C21.1275 7.94699 20.7712 7.79944 20.3998 7.79944V9.79944C20.2408 9.79944 20.0883 9.73628 19.9759 9.62385L21.3901 8.20964ZM20.3998 7.79944C20.0284 7.79944 19.6721 7.94699 19.4095 8.20964L20.8237 9.62385C20.7113 9.73628 20.5588 9.79944 20.3998 9.79944V7.79944ZM19.4095 8.20964C19.1469 8.47228 18.9993 8.82851 18.9993 9.19994L20.9993 9.19994C20.9993 9.35894 20.9361 9.51142 20.8237 9.62385L19.4095 8.20964ZM18.9993 9.19994C18.9993 9.57138 19.1469 9.9276 19.4095 10.1903L20.8237 8.77604C20.9361 8.88847 20.9993 9.04095 20.9993 9.19994L18.9993 9.19994ZM19.4098 10.1906C20.0884 10.8686 20.4998 11.9778 20.4998 13.1999H22.4998C22.4998 11.5805 21.9624 9.91371 20.8234 8.77573L19.4098 10.1906ZM20.4998 13.1999C20.4998 14.4221 20.0884 15.5313 19.4098 16.2093L20.8234 17.6242C21.9624 16.4862 22.4998 14.8194 22.4998 13.1999H20.4998ZM19.4095 16.2096C19.1469 16.4723 18.9993 16.8285 18.9993 17.1999H20.9993C20.9993 17.3589 20.9361 17.5114 20.8237 17.6238L19.4095 16.2096ZM18.9993 17.1999C18.9993 17.5714 19.1469 17.9276 19.4095 18.1903L20.8237 16.776C20.9361 16.8885 20.9993 17.0409 20.9993 17.1999H18.9993ZM19.4095 18.1903C19.6721 18.4529 20.0284 18.6004 20.3998 18.6004V16.6004C20.5588 16.6004 20.7113 16.6636 20.8237 16.776L19.4095 18.1903ZM20.3998 18.6004C20.7712 18.6004 21.1275 18.4529 21.3901 18.1903L19.9759 16.776C20.0883 16.6636 20.2408 16.6004 20.3998 16.6004V18.6004ZM21.3904 18.19C22.7114 16.868 23.2998 14.9775 23.2998 13.1999H21.2998C21.2998 14.5808 20.837 15.9143 19.9756 16.7763L21.3904 18.19ZM23.2998 13.1999C23.2998 11.4224 22.7114 9.53187 21.3904 8.2099L19.9756 9.62359C20.837 10.4856 21.2998 11.8191 21.2998 13.1999H23.2998ZM19.7901 9.80964C19.6601 9.67959 19.5057 9.57643 19.3358 9.50605L18.5704 11.3538C18.4977 11.3237 18.4316 11.2795 18.3759 11.2239L19.7901 9.80964ZM19.3358 9.50605C19.1658 9.43566 18.9837 9.39944 18.7998 9.39944V11.3994C18.7211 11.3994 18.6431 11.3839 18.5704 11.3538L19.3358 9.50605ZM18.7998 9.39944C18.6159 9.39944 18.4338 9.43566 18.2639 9.50605L19.0292 11.3538C18.9565 11.3839 18.8785 11.3994 18.7998 11.3994V9.39944ZM18.2639 9.50605C18.0939 9.57643 17.9395 9.67959 17.8095 9.80964L19.2237 11.2239C19.168 11.2795 19.102 11.3237 19.0292 11.3538L18.2639 9.50605ZM17.8095 9.80964C17.6794 9.93969 17.5763 10.0941 17.5059 10.264L19.3537 11.0294C19.3235 11.1021 19.2794 11.1682 19.2237 11.2239L17.8095 9.80964ZM17.5059 10.264C17.4355 10.4339 17.3993 10.616 17.3993 10.7999H19.3993C19.3993 10.8787 19.3838 10.9566 19.3537 11.0294L17.5059 10.264ZM17.3993 10.7999C17.3993 10.9839 17.4355 11.166 17.5059 11.3359L19.3537 10.5705C19.3838 10.6433 19.3993 10.7212 19.3993 10.7999H17.3993ZM17.5059 11.3359C17.5763 11.5058 17.6794 11.6602 17.8095 11.7903L19.2237 10.376C19.2794 10.4317 19.3235 10.4978 19.3537 10.5705L17.5059 11.3359ZM17.8095 11.7903C18.0881 12.0689 18.2998 12.5786 18.2998 13.1999H20.2998C20.2998 12.1796 19.9611 11.1134 19.2237 10.376L17.8095 11.7903ZM18.2998 13.1999C18.2998 13.8212 18.0881 14.331 17.8095 14.6096L19.2237 16.0239C19.9611 15.2865 20.2998 14.2202 20.2998 13.1999H18.2998ZM17.8095 14.6096C17.5469 14.8723 17.3993 15.2285 17.3993 15.5999H19.3993C19.3993 15.7589 19.3361 15.9114 19.2237 16.0239L17.8095 14.6096ZM17.3993 15.5999C17.3993 15.9714 17.5469 16.3276 17.8095 16.5903L19.2237 15.176C19.3361 15.2885 19.3993 15.4409 19.3993 15.5999H17.3993ZM17.8095 16.5903C18.0721 16.8529 18.4284 17.0004 18.7998 17.0004V15.0004C18.9588 15.0004 19.1113 15.0636 19.2237 15.176L17.8095 16.5903ZM18.7998 17.0004C19.1712 17.0004 19.5275 16.8529 19.7901 16.5903L18.3759 15.176C18.4883 15.0636 18.6408 15.0004 18.7998 15.0004V17.0004ZM19.7901 16.5903C20.7125 15.6678 21.0998 14.3768 21.0998 13.1999H19.0998C19.0998 13.9815 18.8375 14.7145 18.3759 15.176L19.7901 16.5903ZM21.0998 13.1999C21.0998 12.0231 20.7125 10.7321 19.7901 9.80964L18.3759 11.2239C18.8375 11.6854 19.0998 12.4184 19.0998 13.1999H21.0998ZM12.1998 13.5999C12.1998 13.0165 12.4316 12.4569 12.8442 12.0443L11.43 10.6301C10.6423 11.4177 10.1998 12.486 10.1998 13.5999H12.1998ZM12.8442 12.0443C13.2567 11.6317 13.8163 11.3999 14.3998 11.3999V9.39994C13.2859 9.39994 12.2176 9.84244 11.43 10.6301L12.8442 12.0443ZM14.3998 11.3999C14.9833 11.3999 15.5429 11.6317 15.9554 12.0443L17.3697 10.6301C16.582 9.84244 15.5137 9.39994 14.3998 9.39994V11.3999ZM15.9554 12.0443C16.368 12.4569 16.5998 13.0165 16.5998 13.5999H18.5998C18.5998 12.486 18.1573 11.4177 17.3697 10.6301L15.9554 12.0443ZM16.5998 13.5999C16.5998 14.1834 16.368 14.743 15.9554 15.1556L17.3697 16.5698C18.1573 15.7821 18.5998 14.7139 18.5998 13.5999H16.5998ZM15.9554 15.1556C15.5429 15.5682 14.9833 15.7999 14.3998 15.7999V17.7999C15.5137 17.7999 16.582 17.3574 17.3697 16.5698L15.9554 15.1556ZM14.3998 15.7999C13.8163 15.7999 13.2567 15.5682 12.8442 15.1556L11.43 16.5698C12.2176 17.3574 13.2859 17.7999 14.3998 17.7999V15.7999ZM12.8442 15.1556C12.4316 14.743 12.1998 14.1834 12.1998 13.5999H10.1998C10.1998 14.7139 10.6423 15.7821 11.43 16.5698L12.8442 15.1556ZM14.3998 10.1999C13.9533 10.1999 13.5112 10.2879 13.0987 10.4588L13.864 12.3065C14.0339 12.2362 14.216 12.1999 14.3998 12.1999V10.1999ZM13.0987 10.4588C12.6862 10.6296 12.3114 10.8801 11.9956 11.1958L13.4099 12.61C13.5399 12.48 13.6942 12.3769 13.864 12.3065L13.0987 10.4588ZM11.9956 11.1958C11.6799 11.5115 11.4295 11.8863 11.2586 12.2988L13.1064 13.0642C13.1767 12.8943 13.2799 12.74 13.4099 12.61L11.9956 11.1958ZM11.2586 12.2988C11.0877 12.7113 10.9998 13.1534 10.9998 13.5999H12.9998C12.9998 13.4161 13.036 13.234 13.1064 13.0642L11.2586 12.2988ZM10.9998 13.5999C10.9998 14.0464 11.0877 14.4886 11.2586 14.9011L13.1064 14.1357C13.036 13.9658 12.9998 13.7838 12.9998 13.5999H10.9998ZM11.2586 14.9011C11.4295 15.3136 11.6799 15.6884 11.9956 16.0041L13.4099 14.5899C13.2799 14.4599 13.1767 14.3056 13.1064 14.1357L11.2586 14.9011ZM11.9956 16.0041C12.3114 16.3198 12.6862 16.5703 13.0987 16.7411L13.864 14.8934C13.6942 14.823 13.5399 14.7199 13.4099 14.5899L11.9956 16.0041ZM13.0987 16.7411C13.5112 16.912 13.9533 16.9999 14.3998 16.9999V14.9999C14.216 14.9999 14.0339 14.9637 13.864 14.8934L13.0987 16.7411ZM14.3998 16.9999C15.3015 16.9999 16.1663 16.6417 16.804 16.0041L15.3898 14.5899C15.1272 14.8524 14.7711 14.9999 14.3998 14.9999V16.9999ZM16.804 16.0041C17.4416 15.3665 17.7998 14.5017 17.7998 13.5999H15.7998C15.7998 13.9712 15.6523 14.3273 15.3898 14.5899L16.804 16.0041ZM17.7998 13.5999C17.7998 12.6982 17.4416 11.8334 16.804 11.1958L15.3898 12.61C15.6523 12.8725 15.7998 13.2286 15.7998 13.5999H17.7998ZM16.804 11.1958C16.1663 10.5582 15.3015 10.1999 14.3998 10.1999V12.1999C14.7711 12.1999 15.1272 12.3474 15.3898 12.61L16.804 11.1958ZM9.7998 19.1999C9.7998 18.8699 10.0663 18.5999 10.407 18.5999V16.5999C8.97807 16.5999 7.7998 17.7491 7.7998 19.1999H9.7998ZM10.407 18.5999H18.3998V16.5999H10.407V18.5999ZM18.3998 18.5999C18.5589 18.5999 18.7115 18.6632 18.8241 18.7757L20.2383 17.3615C19.7507 16.8739 19.0894 16.5999 18.3998 16.5999V18.5999ZM18.8241 18.7757C18.9366 18.8882 18.9998 19.0408 18.9998 19.1999H20.9998C20.9998 18.5104 20.7259 17.8491 20.2383 17.3615L18.8241 18.7757ZM18.9998 19.1999C18.9998 20.1697 18.5445 20.8899 17.7538 21.3946L18.8298 23.0805C20.1223 22.2556 20.9998 20.9358 20.9998 19.1999H18.9998ZM17.7544 21.3942C16.9401 21.9131 15.7642 22.1999 14.3998 22.1999V24.1999C16.0034 24.1999 17.5923 23.8691 18.8292 23.0809L17.7544 21.3942ZM14.3998 22.1999C13.0354 22.1999 11.8595 21.9131 11.0452 21.3942L9.97038 23.0809C11.2073 23.8691 12.7962 24.1999 14.3998 24.1999V22.1999ZM11.0454 21.3943C10.2555 20.8908 9.7998 20.1694 9.7998 19.1999H7.7998C7.7998 20.9345 8.67692 22.2563 9.97026 23.0808L11.0454 21.3943ZM10.407 17.3999C9.41242 17.3999 8.5998 18.1988 8.5998 19.1999H10.5998C10.5998 19.3163 10.504 19.3999 10.407 19.3999V17.3999ZM8.5998 19.1999C8.5998 20.6288 9.30726 21.7096 10.4012 22.4059L11.4752 20.7187C10.8876 20.3447 10.5998 19.8655 10.5998 19.1999H8.5998ZM10.4002 22.4053C11.4678 23.0867 12.8922 23.3999 14.3998 23.3999V21.3999C13.1314 21.3999 12.1206 21.1307 11.4763 20.7194L10.4002 22.4053ZM14.3998 23.3999C15.9074 23.3999 17.3318 23.0867 18.3995 22.4053L17.3234 20.7194C16.679 21.1307 15.6682 21.3999 14.3998 21.3999V23.3999ZM18.3993 22.4053C19.4907 21.7089 20.1998 20.6305 20.1998 19.1999H18.1998C18.1998 19.8653 17.9121 20.3437 17.3235 20.7193L18.3993 22.4053ZM20.1998 19.1999C20.1998 18.7226 20.0102 18.2647 19.6726 17.9272L18.2584 19.3414C18.2209 19.3039 18.1998 19.253 18.1998 19.1999H20.1998ZM19.6726 17.9272C19.335 17.5896 18.8772 17.3999 18.3998 17.3999V19.3999C18.3468 19.3999 18.2959 19.3789 18.2584 19.3414L19.6726 17.9272ZM18.3998 17.3999H10.407V19.3999H18.3998V17.3999Z" fill="#FBFBFB" mask="url(#path-2-inside-1_1161_107379)"/>
</svg>
