<svg width="32" height="32" viewBox="0 0 32 32" fill="none" xmlns="http://www.w3.org/2000/svg">
<rect width="32" height="32" rx="16" fill="#050505"/>
<path d="M22.0001 21.9999L19.1048 19.1046M19.1048 19.1046C19.6001 18.6093 19.9929 18.0213 20.261 17.3743C20.529 16.7272 20.6669 16.0336 20.6669 15.3332C20.6669 14.6328 20.529 13.9393 20.261 13.2922C19.9929 12.6451 19.6001 12.0572 19.1048 11.5619C18.6095 11.0666 18.0216 10.6738 17.3745 10.4057C16.7274 10.1377 16.0339 9.99976 15.3335 9.99976C14.6331 9.99976 13.9395 10.1377 13.2924 10.4057C12.6454 10.6738 12.0574 11.0666 11.5621 11.5619C10.5619 12.5621 10 13.9187 10 15.3332C10 16.7478 10.5619 18.1043 11.5621 19.1046C12.5624 20.1048 13.9189 20.6667 15.3335 20.6667C16.748 20.6667 18.1046 20.1048 19.1048 19.1046Z" stroke="#FBFBFB" stroke-linecap="round" stroke-linejoin="round"/>
</svg>
