<svg width="32" height="32" viewBox="0 0 32 32" fill="none" xmlns="http://www.w3.org/2000/svg">
<rect width="32" height="32" rx="16" fill="#050505"/>
<path d="M18.25 14.8401L15.25 17.8401L13.75 16.3401M10 19.1901V15.1791C10 14.7786 10 14.5784 10.0488 14.3916C10.0919 14.2266 10.1629 14.0701 10.2587 13.9289C10.3675 13.7691 10.5182 13.6364 10.8197 13.3731L14.4205 10.2216C14.98 9.73263 15.2598 9.48813 15.574 9.39513C15.8515 9.31263 16.1478 9.31263 16.4253 9.39513C16.7403 9.48813 17.0208 9.73263 17.5803 10.2231L21.1802 13.3731C21.4825 13.6371 21.6325 13.7691 21.7413 13.9281C21.8365 14.0706 21.9077 14.2266 21.9512 14.3916C22 14.5784 22 14.7786 22 15.1791V19.1931C22 20.0316 22 20.4509 21.8365 20.7719C21.6924 21.0539 21.4626 21.2831 21.1802 21.4266C20.86 21.5901 20.4407 21.5901 19.6022 21.5901H12.3978C11.5592 21.5901 11.1392 21.5901 10.819 21.4266C10.5369 21.2831 10.3074 21.0539 10.1635 20.7719C10 20.4501 10 20.0301 10 19.1901Z" stroke="#FBFBFB" stroke-linecap="round" stroke-linejoin="round"/>
</svg>
