<svg width="32" height="32" viewBox="0 0 32 32" fill="none" xmlns="http://www.w3.org/2000/svg">
<rect width="32" height="32" rx="16" fill="#050505"/>
<mask id="path-2-inside-1_1161_107358" fill="white">
<path d="M20.1748 14.8482H19.2238V12.9462C19.2238 11.0917 17.7497 9.61768 15.8952 9.61768C14.0408 9.61768 12.5667 11.0917 12.5667 12.9462V14.8482H11.6157V12.9462C11.6157 10.5687 13.5177 8.66667 15.8952 8.66667C18.2728 8.66667 20.1748 10.5687 20.1748 12.9462V14.8482Z"/>
</mask>
<path d="M20.1748 14.8482H19.2238V12.9462C19.2238 11.0917 17.7497 9.61768 15.8952 9.61768C14.0408 9.61768 12.5667 11.0917 12.5667 12.9462V14.8482H11.6157V12.9462C11.6157 10.5687 13.5177 8.66667 15.8952 8.66667C18.2728 8.66667 20.1748 10.5687 20.1748 12.9462V14.8482Z" fill="#FBFBFB"/>
<path d="M20.1748 14.8482V15.8482H21.1748V14.8482H20.1748ZM19.2238 14.8482H18.2238V15.8482H19.2238V14.8482ZM12.5667 14.8482V15.8482H13.5667V14.8482H12.5667ZM11.6157 14.8482H10.6157V15.8482H11.6157V14.8482ZM20.1748 13.8482H19.2238V15.8482H20.1748V13.8482ZM20.2238 14.8482V12.9462H18.2238V14.8482H20.2238ZM20.2238 12.9462C20.2238 10.5395 18.302 8.61768 15.8952 8.61768V10.6177C17.1974 10.6177 18.2238 11.644 18.2238 12.9462H20.2238ZM15.8952 8.61768C13.4885 8.61768 11.5667 10.5395 11.5667 12.9462H13.5667C13.5667 11.644 14.5931 10.6177 15.8952 10.6177V8.61768ZM11.5667 12.9462V14.8482H13.5667V12.9462H11.5667ZM12.5667 13.8482H11.6157V15.8482H12.5667V13.8482ZM12.6157 14.8482V12.9462H10.6157V14.8482H12.6157ZM12.6157 12.9462C12.6157 11.121 14.07 9.66667 15.8952 9.66667V7.66667C12.9654 7.66667 10.6157 10.0164 10.6157 12.9462H12.6157ZM15.8952 9.66667C17.7205 9.66667 19.1748 11.121 19.1748 12.9462H21.1748C21.1748 10.0164 18.825 7.66667 15.8952 7.66667V9.66667ZM19.1748 12.9462V14.8482H21.1748V12.9462H19.1748Z" fill="#FBFBFB" mask="url(#path-2-inside-1_1161_107358)"/>
<path d="M19.7011 22.6937H12.093C11.4172 22.6937 10.9065 22.183 10.9065 21.5072V15.8012C10.9065 15.1254 11.4172 14.6146 12.093 14.6146H19.7011C20.3769 14.6146 20.8876 15.1254 20.8876 15.8012V21.5072C20.8876 22.183 20.3769 22.6937 19.7011 22.6937ZM12.093 15.0857C11.8958 15.0857 11.7128 15.1524 11.5786 15.2867C11.4443 15.421 11.3775 15.604 11.3775 15.8012V21.5072C11.3775 21.7044 11.4443 21.8874 11.5786 22.0216C11.7128 22.1559 11.8958 22.2227 12.093 22.2227H19.7011C19.8983 22.2227 20.0812 22.1559 20.2155 22.0216C20.3498 21.8874 20.4166 21.7044 20.4166 21.5072V15.8012C20.4166 15.604 20.3498 15.421 20.2155 15.2867C20.0812 15.1524 19.8983 15.0857 19.7011 15.0857H12.093Z" fill="#FBFBFB" stroke="#FBFBFB" stroke-width="0.48"/>
<path d="M16.6107 17.2256C16.6107 17.6183 16.2924 17.9366 15.8997 17.9366C15.5071 17.9366 15.1887 17.6183 15.1887 17.2256C15.1887 16.8329 15.5071 16.5146 15.8997 16.5146C16.2924 16.5146 16.6107 16.8329 16.6107 17.2256Z" fill="#FBFBFB" stroke="#FBFBFB" stroke-width="0.48"/>
<path d="M16.1331 17.2239H15.6576L15.1821 20.0769H16.6086L16.1331 17.2239Z" fill="#FBFBFB"/>
</svg>
