<svg width="18" height="18" viewBox="0 0 18 18" fill="none" xmlns="http://www.w3.org/2000/svg">
<path d="M15.5325 2.74088C15.5325 2.74088 16.9894 2.17276 16.8675 3.55238C16.8274 4.12051 16.4632 6.10913 16.1797 8.25976L15.2085 14.631C15.2085 14.631 15.1275 15.5644 14.3989 15.7268C13.6706 15.8888 12.5779 15.1586 12.3754 14.9963C12.2134 14.8744 9.34012 13.0481 8.32837 12.1556C8.04487 11.9119 7.72087 11.4251 8.36887 10.857L12.618 6.79876C13.1036 6.31201 13.5892 5.17576 11.5657 6.55538L5.8995 10.4104C5.8995 10.4104 5.25187 10.8165 4.038 10.4513L1.407 9.63938C1.407 9.63938 0.435747 9.03076 2.09512 8.42213C6.1425 6.51488 11.1206 4.56713 15.5317 2.74088H15.5325Z" fill="#050505"/>
</svg>
