<svg width="19" height="18" viewBox="0 0 19 18" fill="none" xmlns="http://www.w3.org/2000/svg">
<g clip-path="url(#clip0_1713_60179)">
<path d="M12.4271 5.96972L13.1546 10.0957C13.1702 10.194 13.2053 10.2883 13.2577 10.373C13.3101 10.4577 13.3788 10.5311 13.4599 10.5889C13.541 10.6467 13.6328 10.6878 13.7299 10.7098C13.827 10.7318 13.9276 10.7342 14.0256 10.7169C14.1237 10.6996 14.2174 10.663 14.3011 10.6091C14.3849 10.5552 14.4571 10.4852 14.5135 10.4031C14.5699 10.3211 14.6094 10.2286 14.6297 10.1311C14.65 10.0336 14.6506 9.93301 14.6316 9.83525L13.5897 3.92625C13.5552 3.7304 13.4442 3.5563 13.2813 3.44223C13.1184 3.32816 12.9169 3.28346 12.721 3.31797L6.81201 4.35989C6.61897 4.39739 6.44838 4.50922 6.33698 4.67129C6.22559 4.83335 6.18231 5.03268 6.21646 5.22635C6.25061 5.42002 6.35946 5.59253 6.51956 5.70672C6.67966 5.82091 6.87821 5.86765 7.07244 5.83687L11.1984 5.10936L5.5015 13.2454C5.38741 13.4083 5.34272 13.6099 5.37726 13.8058C5.4118 14.0017 5.52274 14.1758 5.68568 14.2899C5.84862 14.404 6.05021 14.4487 6.2461 14.4142C6.44199 14.3796 6.61613 14.2687 6.73023 14.1057L12.4271 5.96972Z" fill="#FBFBFB"/>
</g>
<defs>
<clipPath id="clip0_1713_60179">
<rect width="18" height="18" fill="white" transform="translate(0.5)"/>
</clipPath>
</defs>
</svg>
