<svg width="561" height="561" viewBox="0 0 561 561" fill="none" xmlns="http://www.w3.org/2000/svg">
<g filter="url(#filter0_d_1161_107439)">
<rect x="4" width="553" height="553" rx="16" fill="#050505"/>
<mask id="mask0_1161_107439" style="mask-type:alpha" maskUnits="userSpaceOnUse" x="4" y="0" width="553" height="553">
<rect x="4" width="553" height="553" rx="16" fill="#050505"/>
</mask>
<g mask="url(#mask0_1161_107439)">
<path d="M145 -188.996L525 -188.996V376.936C525 381.354 521.418 384.936 517 384.936H153C148.582 384.936 145 381.354 145 376.936L145 -188.996Z" fill="#FBFBFB"/>
<path d="M459.164 -82.226V338.085H204.43L204.43 -82.226H197V-159L467.301 -159V-82.226H459.164Z" stroke="#8A8A8A" stroke-width="3"/>
<path d="M459.38 336.908H321.399H205M205 219.802H400M459.38 -83H438.506M205 -83H306.186M459.38 -70.9709H438.506M205 -70.9709H306.186M306.186 -70.9709V-83M306.186 -70.9709H338.735M306.186 -83L338.735 -83M338.735 -83V-70.9709M338.735 -83H385.436M338.735 -70.9709L385.436 -70.9709M385.436 -70.9709H438.506M385.436 -70.9709V-75.5703M385.436 -83H438.506M385.436 -83V-79.2851M438.506 -83V-79.2851M438.506 -70.9709V-75.5703M438.506 -75.5703H385.436M438.506 -75.5703V-79.2851M385.436 -75.5703V-79.2851M385.436 -79.2851H438.506M281.066 -75.5703V-70.9709H227.997V-75.5703M281.066 -75.5703H227.997M281.066 -75.5703V-79.2851M227.997 -75.5703V-79.2851M227.997 -79.2851V-83H281.066V-79.2851M227.997 -79.2851H281.066M310.962 226.524V231.123H279.12V226.524M310.962 226.524H279.12M310.962 226.524V222.809M279.12 226.524V222.809M279.12 222.809V219.802H310.962V222.809M279.12 222.809H310.962M283.543 331.602V336.201H251.701V331.602M283.543 331.602H251.701M283.543 331.602V327.887M251.701 331.602V327.887M251.701 327.887V324.879H283.543V327.887M251.701 327.887H283.543M400 219.802H459.38V110H400V219.802ZM450.48 231.477H335.197V324.526H450.48V231.477ZM325.999 231.477H213.137V324.526H325.999V231.477ZM450.181 118.477H408.787V172.608H450.181V118.477ZM450.181 181.099H408.787V211.526H450.181V181.099Z" stroke="#8A8A8A"/>
<path d="M436.338 211.278V240.29M322.062 -94V-64.9886M359.21 211.278V240.29M335.152 219.477V231.391M423.601 219.769V231.391M450.782 219.769V231.391M325.661 261.871H335.152M351.073 324.5V337.938M384.33 324.5V337.938M325.661 294.421H335.152M320.354 278.146H340.459M381.853 219.769V226.138V231.391M435.338 98.2782V127.29M422.601 106.769V118.391M449.782 106.769V118.391" stroke="#8A8A8A" stroke-width="0.5"/>
<path d="M215.043 266.942V260.397H227.78V273.487H215.043V266.942ZM215.043 266.942H218.935V263.935V269.595M408.924 135.526V128.98H421.661V142.071H408.924V135.526ZM408.924 135.526H412.816V132.518V138.179M447.134 189.595V183.05H434.398V196.141H447.134V189.595ZM447.134 189.595H443.243V186.588V192.249M445.012 198.563H446.781V209.177H445.012M445.012 198.563V209.177M445.012 198.563H442.889M445.012 209.177H442.889M442.889 209.177H436.52V209.177C433.589 209.177 431.213 206.801 431.213 203.87V203.87C431.213 200.939 433.589 198.563 436.52 198.563V198.563H442.889M442.889 209.177V198.563M412.816 158.876H411.047V169.49H412.816M412.816 158.876H414.939M412.816 158.876V164.183V169.49M412.816 169.49H414.939M414.939 169.49H421.307V169.49C424.238 169.49 426.614 167.114 426.614 164.183V164.183C426.614 161.252 424.238 158.876 421.307 158.876V158.876H414.939M414.939 169.49V158.876" stroke="#8A8A8A"/>
<path d="M438.851 203.87C438.851 205.548 437.491 206.908 435.813 206.908C434.136 206.908 432.775 205.548 432.775 203.87C432.775 202.192 434.136 200.832 435.813 200.832C437.491 200.832 438.851 202.192 438.851 203.87Z" stroke="#8A8A8A"/>
<path d="M424.699 163.831C424.699 165.509 423.339 166.869 421.661 166.869C419.983 166.869 418.623 165.509 418.623 163.831C418.623 162.153 419.983 160.793 421.661 160.793C423.339 160.793 424.699 162.153 424.699 163.831Z" stroke="#8A8A8A"/>
<path d="M386.428 243.21H389.268V244H384.798V243.73C385.832 242.65 386.582 241.837 387.048 241.29C387.515 240.737 387.822 240.317 387.968 240.03C388.115 239.743 388.188 239.45 388.188 239.15C388.188 238.983 388.158 238.83 388.098 238.69C388.045 238.55 387.965 238.43 387.858 238.33C387.758 238.23 387.635 238.153 387.488 238.1C387.342 238.047 387.182 238.02 387.008 238.02C386.762 238.02 386.545 238.07 386.358 238.17C386.172 238.263 386.028 238.397 385.928 238.57C385.828 238.743 385.778 238.94 385.778 239.16V239.32H384.958V239.16C384.958 238.78 385.042 238.443 385.208 238.15C385.382 237.857 385.622 237.63 385.928 237.47C386.242 237.31 386.602 237.23 387.008 237.23C387.602 237.23 388.085 237.41 388.458 237.77C388.832 238.123 389.018 238.583 389.018 239.15C389.018 239.477 388.958 239.787 388.838 240.08C388.718 240.373 388.472 240.767 388.098 241.26C387.732 241.747 387.175 242.397 386.428 243.21ZM390.522 244V242.94H391.502V244H390.522ZM395.192 244.12C394.405 244.12 393.779 243.81 393.312 243.19C392.852 242.57 392.622 241.73 392.622 240.67C392.622 239.61 392.852 238.773 393.312 238.16C393.772 237.54 394.399 237.23 395.192 237.23C395.985 237.23 396.612 237.54 397.072 238.16C397.532 238.773 397.762 239.61 397.762 240.67C397.762 241.73 397.529 242.57 397.062 243.19C396.602 243.81 395.979 244.12 395.192 244.12ZM395.192 243.33C395.732 243.33 396.155 243.097 396.462 242.63C396.775 242.157 396.932 241.503 396.932 240.67C396.932 239.843 396.775 239.197 396.462 238.73C396.155 238.257 395.732 238.02 395.192 238.02C394.839 238.02 394.529 238.127 394.262 238.34C394.002 238.547 393.802 238.85 393.662 239.25C393.522 239.65 393.452 240.123 393.452 240.67C393.452 241.503 393.605 242.157 393.912 242.63C394.225 243.097 394.652 243.33 395.192 243.33ZM402.753 240.44C403.039 240.593 403.266 240.817 403.433 241.11C403.599 241.403 403.683 241.727 403.683 242.08C403.683 242.673 403.463 243.163 403.023 243.55C402.583 243.93 402.016 244.12 401.323 244.12C400.856 244.12 400.443 244.037 400.083 243.87C399.729 243.697 399.456 243.457 399.263 243.15C399.069 242.837 398.973 242.48 398.973 242.08C398.973 241.847 399.009 241.627 399.083 241.42C399.163 241.207 399.273 241.017 399.413 240.85C399.553 240.683 399.719 240.547 399.913 240.44C399.699 240.287 399.529 240.083 399.403 239.83C399.276 239.57 399.213 239.297 399.213 239.01C399.213 238.483 399.406 238.057 399.793 237.73C400.186 237.397 400.696 237.23 401.323 237.23C401.569 237.23 401.803 237.26 402.023 237.32C402.243 237.373 402.436 237.453 402.603 237.56C402.776 237.66 402.923 237.783 403.043 237.93C403.169 238.07 403.266 238.233 403.333 238.42C403.399 238.607 403.433 238.803 403.433 239.01C403.433 239.203 403.403 239.393 403.343 239.58C403.289 239.76 403.209 239.923 403.103 240.07C403.003 240.217 402.886 240.34 402.753 240.44ZM401.323 237.94C400.936 237.94 400.623 238.04 400.383 238.24C400.143 238.44 400.023 238.697 400.023 239.01C400.023 239.337 400.143 239.6 400.383 239.8C400.623 240 400.936 240.1 401.323 240.1C401.703 240.1 402.013 240 402.253 239.8C402.493 239.6 402.613 239.337 402.613 239.01C402.613 238.697 402.493 238.44 402.253 238.24C402.019 238.04 401.709 237.94 401.323 237.94ZM401.323 243.39C401.776 243.39 402.143 243.27 402.423 243.03C402.709 242.79 402.853 242.48 402.853 242.1C402.853 241.713 402.709 241.403 402.423 241.17C402.143 240.93 401.776 240.81 401.323 240.81C400.876 240.81 400.509 240.93 400.223 241.17C399.943 241.403 399.803 241.713 399.803 242.1C399.803 242.353 399.866 242.577 399.993 242.77C400.119 242.963 400.299 243.117 400.533 243.23C400.766 243.337 401.029 243.39 401.323 243.39Z" fill="#8A8A8A"/>
<path d="M255.348 316.86C255.895 316.94 256.338 317.173 256.678 317.56C257.018 317.94 257.188 318.403 257.188 318.95C257.188 319.577 256.975 320.097 256.548 320.51C256.122 320.917 255.592 321.12 254.958 321.12C254.345 321.12 253.835 320.927 253.428 320.54C253.022 320.153 252.802 319.66 252.768 319.06H253.578C253.605 319.44 253.745 319.747 253.998 319.98C254.252 320.213 254.572 320.33 254.958 320.33C255.225 320.33 255.465 320.27 255.678 320.15C255.892 320.03 256.058 319.863 256.178 319.65C256.298 319.43 256.358 319.187 256.358 318.92C256.358 318.513 256.215 318.18 255.928 317.92C255.648 317.653 255.292 317.52 254.858 317.52H254.108V317.36L255.648 315.11H252.988V314.35H256.928V314.54L255.348 316.86ZM258.51 321V319.94H259.49V321H258.51ZM262.874 316.8C263.307 316.8 263.697 316.893 264.044 317.08C264.397 317.267 264.67 317.527 264.864 317.86C265.064 318.187 265.164 318.55 265.164 318.95C265.164 319.57 264.95 320.087 264.524 320.5C264.097 320.913 263.57 321.12 262.944 321.12C262.324 321.12 261.807 320.927 261.394 320.54C260.98 320.147 260.764 319.653 260.744 319.06H261.554C261.567 319.307 261.634 319.527 261.754 319.72C261.88 319.913 262.047 320.063 262.254 320.17C262.46 320.277 262.69 320.33 262.944 320.33C263.344 320.33 263.674 320.2 263.934 319.94C264.194 319.68 264.324 319.35 264.324 318.95C264.324 318.683 264.26 318.443 264.134 318.23C264.007 318.01 263.83 317.84 263.604 317.72C263.377 317.6 263.124 317.54 262.844 317.54H261.154L261.034 317.4L261.374 314.35H264.704V315.11H262.054L261.874 316.8H262.874ZM265.978 314.35H268.068V321H267.248V315.11H265.978V314.35Z" fill="#8A8A8A"/>
<path d="M445.21 300.701V297.861H446V302.331H445.73C444.65 301.298 443.837 300.548 443.29 300.081C442.737 299.614 442.317 299.308 442.03 299.161C441.743 299.014 441.45 298.941 441.15 298.941C440.983 298.941 440.83 298.971 440.69 299.031C440.55 299.084 440.43 299.164 440.33 299.271C440.23 299.371 440.153 299.494 440.1 299.641C440.047 299.788 440.02 299.948 440.02 300.121C440.02 300.368 440.07 300.584 440.17 300.771C440.263 300.958 440.397 301.101 440.57 301.201C440.743 301.301 440.94 301.351 441.16 301.351H441.32V302.171H441.16C440.78 302.171 440.443 302.088 440.15 301.921C439.857 301.748 439.63 301.508 439.47 301.201C439.31 300.888 439.23 300.528 439.23 300.121C439.23 299.528 439.41 299.044 439.77 298.671C440.123 298.298 440.583 298.111 441.15 298.111C441.477 298.111 441.787 298.171 442.08 298.291C442.373 298.411 442.767 298.658 443.26 299.031C443.747 299.398 444.397 299.954 445.21 300.701ZM446 296.607H444.94V295.627H446V296.607ZM442.44 290.493C442.593 290.207 442.817 289.98 443.11 289.813C443.403 289.647 443.727 289.563 444.08 289.563C444.673 289.563 445.163 289.783 445.55 290.223C445.93 290.663 446.12 291.23 446.12 291.923C446.12 292.39 446.037 292.803 445.87 293.163C445.697 293.517 445.457 293.79 445.15 293.983C444.837 294.177 444.48 294.273 444.08 294.273C443.847 294.273 443.627 294.237 443.42 294.163C443.207 294.083 443.017 293.973 442.85 293.833C442.683 293.693 442.547 293.527 442.44 293.333C442.287 293.547 442.083 293.717 441.83 293.843C441.57 293.97 441.297 294.033 441.01 294.033C440.483 294.033 440.057 293.84 439.73 293.453C439.397 293.06 439.23 292.55 439.23 291.923C439.23 291.677 439.26 291.443 439.32 291.223C439.373 291.003 439.453 290.81 439.56 290.643C439.66 290.47 439.783 290.323 439.93 290.203C440.07 290.077 440.233 289.98 440.42 289.913C440.607 289.847 440.803 289.813 441.01 289.813C441.203 289.813 441.393 289.843 441.58 289.903C441.76 289.957 441.923 290.037 442.07 290.143C442.217 290.243 442.34 290.36 442.44 290.493ZM439.94 291.923C439.94 292.31 440.04 292.623 440.24 292.863C440.44 293.103 440.697 293.223 441.01 293.223C441.337 293.223 441.6 293.103 441.8 292.863C442 292.623 442.1 292.31 442.1 291.923C442.1 291.543 442 291.233 441.8 290.993C441.6 290.753 441.337 290.633 441.01 290.633C440.697 290.633 440.44 290.753 440.24 290.993C440.04 291.227 439.94 291.537 439.94 291.923ZM445.39 291.923C445.39 291.47 445.27 291.103 445.03 290.823C444.79 290.537 444.48 290.393 444.1 290.393C443.713 290.393 443.403 290.537 443.17 290.823C442.93 291.103 442.81 291.47 442.81 291.923C442.81 292.37 442.93 292.737 443.17 293.023C443.403 293.303 443.713 293.443 444.1 293.443C444.353 293.443 444.577 293.38 444.77 293.253C444.963 293.127 445.117 292.947 445.23 292.713C445.337 292.48 445.39 292.217 445.39 291.923ZM439.23 286.221C439.23 285.528 439.443 284.961 439.87 284.521C440.297 284.075 440.84 283.851 441.5 283.851C442.153 283.851 442.89 284.088 443.71 284.561L446.01 285.891V286.801C444.61 285.995 443.76 285.518 443.46 285.371C443.607 285.671 443.68 285.991 443.68 286.331C443.68 286.965 443.47 287.498 443.05 287.931C442.63 288.365 442.113 288.581 441.5 288.581C440.84 288.581 440.297 288.361 439.87 287.921C439.443 287.475 439.23 286.908 439.23 286.221ZM442.96 286.211C442.96 285.918 442.897 285.655 442.77 285.421C442.643 285.188 442.47 285.008 442.25 284.881C442.023 284.748 441.773 284.681 441.5 284.681C441.073 284.681 440.72 284.828 440.44 285.121C440.16 285.408 440.02 285.771 440.02 286.211C440.02 286.658 440.16 287.028 440.44 287.321C440.713 287.608 441.067 287.751 441.5 287.751C441.927 287.751 442.277 287.608 442.55 287.321C442.823 287.028 442.96 286.658 442.96 286.211Z" fill="#8A8A8A"/>
<path d="M223.21 300.06V297.504H223.921V301.527H223.678C222.706 300.597 221.974 299.922 221.482 299.502C220.984 299.082 220.606 298.806 220.348 298.674C220.09 298.542 219.826 298.476 219.556 298.476C219.406 298.476 219.268 298.503 219.142 298.557C219.016 298.605 218.908 298.677 218.818 298.773C218.728 298.863 218.659 298.974 218.611 299.106C218.563 299.238 218.539 299.382 218.539 299.538C218.539 299.76 218.584 299.955 218.674 300.123C218.758 300.291 218.878 300.42 219.034 300.51C219.19 300.6 219.367 300.645 219.565 300.645H219.709V301.383H219.565C219.223 301.383 218.92 301.308 218.656 301.158C218.392 301.002 218.188 300.786 218.044 300.51C217.9 300.228 217.828 299.904 217.828 299.538C217.828 299.004 217.99 298.569 218.314 298.233C218.632 297.897 219.046 297.729 219.556 297.729C219.85 297.729 220.129 297.783 220.393 297.891C220.657 297.999 221.011 298.221 221.455 298.557C221.893 298.887 222.478 299.388 223.21 300.06ZM223.921 296.36H222.967V295.478H223.921V296.36ZM220.717 290.843C220.855 290.585 221.056 290.381 221.32 290.231C221.584 290.081 221.875 290.006 222.193 290.006C222.727 290.006 223.168 290.204 223.516 290.6C223.858 290.996 224.029 291.506 224.029 292.13C224.029 292.55 223.954 292.922 223.804 293.246C223.648 293.564 223.432 293.81 223.156 293.984C222.874 294.158 222.553 294.245 222.193 294.245C221.983 294.245 221.785 294.212 221.599 294.146C221.407 294.074 221.236 293.975 221.086 293.849C220.936 293.723 220.813 293.573 220.717 293.399C220.579 293.591 220.396 293.744 220.168 293.858C219.934 293.972 219.688 294.029 219.43 294.029C218.956 294.029 218.572 293.855 218.278 293.507C217.978 293.153 217.828 292.694 217.828 292.13C217.828 291.908 217.855 291.698 217.909 291.5C217.957 291.302 218.029 291.128 218.125 290.978C218.215 290.822 218.326 290.69 218.458 290.582C218.584 290.468 218.731 290.381 218.899 290.321C219.067 290.261 219.244 290.231 219.43 290.231C219.604 290.231 219.775 290.258 219.943 290.312C220.105 290.36 220.252 290.432 220.384 290.528C220.516 290.618 220.627 290.723 220.717 290.843ZM218.467 292.13C218.467 292.478 218.557 292.76 218.737 292.976C218.917 293.192 219.148 293.3 219.43 293.3C219.724 293.3 219.961 293.192 220.141 292.976C220.321 292.76 220.411 292.478 220.411 292.13C220.411 291.788 220.321 291.509 220.141 291.293C219.961 291.077 219.724 290.969 219.43 290.969C219.148 290.969 218.917 291.077 218.737 291.293C218.557 291.503 218.467 291.782 218.467 292.13ZM223.372 292.13C223.372 291.722 223.264 291.392 223.048 291.14C222.832 290.882 222.553 290.753 222.211 290.753C221.863 290.753 221.584 290.882 221.374 291.14C221.158 291.392 221.05 291.722 221.05 292.13C221.05 292.532 221.158 292.862 221.374 293.12C221.584 293.372 221.863 293.498 222.211 293.498C222.439 293.498 222.64 293.441 222.814 293.327C222.988 293.213 223.126 293.051 223.228 292.841C223.324 292.631 223.372 292.394 223.372 292.13ZM217.936 289.17V285.12H218.062L223.921 287.478V288.27L218.62 286.119V289.17H217.936Z" fill="#8A8A8A"/>
<path d="M214.768 33.4029C214.768 32.9696 214.861 32.5796 215.048 32.2329C215.234 31.8796 215.494 31.6062 215.828 31.4129C216.154 31.2129 216.518 31.1129 216.918 31.1129C217.538 31.1129 218.054 31.3262 218.468 31.7529C218.881 32.1796 219.088 32.7062 219.088 33.3329C219.088 33.9529 218.894 34.4696 218.508 34.8829C218.114 35.2962 217.621 35.5129 217.028 35.5329V34.7229C217.274 34.7096 217.494 34.6429 217.688 34.5229C217.881 34.3962 218.031 34.2296 218.138 34.0229C218.244 33.8162 218.298 33.5862 218.298 33.3329C218.298 32.9329 218.168 32.6029 217.908 32.3429C217.648 32.0829 217.318 31.9529 216.918 31.9529C216.651 31.9529 216.411 32.0162 216.198 32.1429C215.978 32.2696 215.808 32.4462 215.688 32.6729C215.568 32.8996 215.508 33.1529 215.508 33.4329V35.1229L215.368 35.2429L212.318 34.9029V31.5729H213.078V34.2229L214.768 34.4029V33.4029ZM218.968 29.869H217.908V28.889H218.968V29.869ZM212.198 26.0493C212.198 25.356 212.411 24.7893 212.838 24.3493C213.264 23.9026 213.808 23.6793 214.468 23.6793C215.121 23.6793 215.858 23.916 216.678 24.3893L218.978 25.7193V26.6293C217.578 25.8226 216.728 25.346 216.428 25.1993C216.574 25.4993 216.648 25.8193 216.648 26.1593C216.648 26.7926 216.438 27.326 216.018 27.7593C215.598 28.1926 215.081 28.4093 214.468 28.4093C213.808 28.4093 213.264 28.1893 212.838 27.7493C212.411 27.3026 212.198 26.736 212.198 26.0493ZM215.928 26.0393C215.928 25.746 215.864 25.4826 215.738 25.2493C215.611 25.016 215.438 24.836 215.218 24.7093C214.991 24.576 214.741 24.5093 214.468 24.5093C214.041 24.5093 213.688 24.656 213.408 24.9493C213.128 25.236 212.988 25.5993 212.988 26.0393C212.988 26.486 213.128 26.856 213.408 27.1493C213.681 27.436 214.034 27.5793 214.468 27.5793C214.894 27.5793 215.244 27.436 215.518 27.1493C215.791 26.856 215.928 26.486 215.928 26.0393ZM212.198 20.3817C212.198 19.6884 212.411 19.1217 212.838 18.6817C213.264 18.235 213.808 18.0117 214.468 18.0117C215.121 18.0117 215.858 18.2484 216.678 18.7217L218.978 20.0517V20.9617C217.578 20.155 216.728 19.6784 216.428 19.5317C216.574 19.8317 216.648 20.1517 216.648 20.4917C216.648 21.125 216.438 21.6584 216.018 22.0917C215.598 22.525 215.081 22.7417 214.468 22.7417C213.808 22.7417 213.264 22.5217 212.838 22.0817C212.411 21.635 212.198 21.0684 212.198 20.3817ZM215.928 20.3717C215.928 20.0784 215.864 19.815 215.738 19.5817C215.611 19.3484 215.438 19.1684 215.218 19.0417C214.991 18.9084 214.741 18.8417 214.468 18.8417C214.041 18.8417 213.688 18.9884 213.408 19.2817C213.128 19.5684 212.988 19.9317 212.988 20.3717C212.988 20.8184 213.128 21.1884 213.408 21.4817C213.681 21.7684 214.034 21.9117 214.468 21.9117C214.894 21.9117 215.244 21.7684 215.518 21.4817C215.791 21.1884 215.928 20.8184 215.928 20.3717Z" fill="#8A8A8A"/>
<path d="M435.207 141.21H438.047V142H433.577V141.73C434.611 140.65 435.361 139.837 435.827 139.29C436.294 138.737 436.601 138.317 436.747 138.03C436.894 137.743 436.967 137.45 436.967 137.15C436.967 136.983 436.937 136.83 436.877 136.69C436.824 136.55 436.744 136.43 436.637 136.33C436.537 136.23 436.414 136.153 436.267 136.1C436.121 136.047 435.961 136.02 435.787 136.02C435.541 136.02 435.324 136.07 435.137 136.17C434.951 136.263 434.807 136.397 434.707 136.57C434.607 136.743 434.557 136.94 434.557 137.16V137.32H433.737V137.16C433.737 136.78 433.821 136.443 433.987 136.15C434.161 135.857 434.401 135.63 434.707 135.47C435.021 135.31 435.381 135.23 435.787 135.23C436.381 135.23 436.864 135.41 437.237 135.77C437.611 136.123 437.797 136.583 437.797 137.15C437.797 137.477 437.737 137.787 437.617 138.08C437.497 138.373 437.251 138.767 436.877 139.26C436.511 139.747 435.954 140.397 435.207 141.21Z" fill="#8A8A8A"/>
<path d="M432.799 156.069H435.639V156.859H431.169V156.589C432.202 155.509 432.952 154.696 433.419 154.149C433.886 153.596 434.193 153.176 434.339 152.889C434.486 152.603 434.559 152.309 434.559 152.009C434.559 151.843 434.529 151.689 434.469 151.549C434.416 151.409 434.336 151.289 434.229 151.189C434.129 151.089 434.006 151.013 433.859 150.959C433.712 150.906 433.552 150.879 433.379 150.879C433.132 150.879 432.916 150.929 432.729 151.029C432.542 151.123 432.399 151.256 432.299 151.429C432.199 151.603 432.149 151.799 432.149 152.019V152.179H431.329V152.019C431.329 151.639 431.412 151.303 431.579 151.009C431.752 150.716 431.992 150.489 432.299 150.329C432.612 150.169 432.972 150.089 433.379 150.089C433.972 150.089 434.456 150.269 434.829 150.629C435.203 150.983 435.389 151.443 435.389 152.009C435.389 152.336 435.329 152.646 435.209 152.939C435.089 153.233 434.842 153.626 434.469 154.119C434.102 154.606 433.546 155.256 432.799 156.069ZM436.893 156.859V155.799H437.873V156.859H436.893ZM438.537 150.209H440.627V156.859H439.807V150.969H438.537V150.209Z" fill="#8A8A8A"/>
<line x1="427" y1="145.609" x2="443.982" y2="145.609" stroke="#8A8A8A" stroke-width="0.5"/>
<path d="M265.56 270.8C265.993 270.8 266.383 270.893 266.73 271.08C267.083 271.267 267.357 271.527 267.55 271.86C267.75 272.187 267.85 272.55 267.85 272.95C267.85 273.57 267.637 274.087 267.21 274.5C266.783 274.913 266.257 275.12 265.63 275.12C265.01 275.12 264.493 274.927 264.08 274.54C263.667 274.147 263.45 273.653 263.43 273.06H264.24C264.253 273.307 264.32 273.527 264.44 273.72C264.567 273.913 264.733 274.063 264.94 274.17C265.147 274.277 265.377 274.33 265.63 274.33C266.03 274.33 266.36 274.2 266.62 273.94C266.88 273.68 267.01 273.35 267.01 272.95C267.01 272.683 266.947 272.443 266.82 272.23C266.693 272.01 266.517 271.84 266.29 271.72C266.063 271.6 265.81 271.54 265.53 271.54H263.84L263.72 271.4L264.06 268.35H267.39V269.11H264.74L264.56 270.8H265.56Z" fill="#8A8A8A"/>
<path d="M259.474 283.874H261.355V289.859H260.617V284.558H259.474V283.874ZM265.168 289.967C264.46 289.967 263.896 289.688 263.476 289.13C263.062 288.572 262.855 287.816 262.855 286.862C262.855 285.908 263.062 285.155 263.476 284.603C263.89 284.045 264.454 283.766 265.168 283.766C265.882 283.766 266.446 284.045 266.86 284.603C267.274 285.155 267.481 285.908 267.481 286.862C267.481 287.816 267.271 288.572 266.851 289.13C266.437 289.688 265.876 289.967 265.168 289.967ZM265.168 289.256C265.654 289.256 266.035 289.046 266.311 288.626C266.593 288.2 266.734 287.612 266.734 286.862C266.734 286.118 266.593 285.536 266.311 285.116C266.035 284.69 265.654 284.477 265.168 284.477C264.85 284.477 264.571 284.573 264.331 284.765C264.097 284.951 263.917 285.224 263.791 285.584C263.665 285.944 263.602 286.37 263.602 286.862C263.602 287.612 263.74 288.2 264.016 288.626C264.298 289.046 264.682 289.256 265.168 289.256ZM268.501 289.859V288.905H269.383V289.859H268.501ZM269.996 283.874H271.877V289.859H271.139V284.558H269.996V283.874Z" fill="#8A8A8A"/>
<line x1="256.792" y1="278.609" x2="273.774" y2="278.609" stroke="#8A8A8A" stroke-width="0.5"/>
<path d="M397.88 272.86V273.6H397.18V275H396.38V273.6H392.97V273.4L395.31 268.35H396.17L394.09 272.86H396.39L396.52 270.81H397.18V272.86H397.88Z" fill="#8A8A8A"/>
<path d="M387.417 283.209H389.507V289.859H388.687V283.969H387.417V283.209ZM392.607 289.069H395.447V289.859H390.977V289.589C392.011 288.509 392.761 287.696 393.227 287.149C393.694 286.596 394.001 286.176 394.147 285.889C394.294 285.603 394.367 285.309 394.367 285.009C394.367 284.843 394.337 284.689 394.277 284.549C394.224 284.409 394.144 284.289 394.037 284.189C393.937 284.089 393.814 284.013 393.667 283.959C393.521 283.906 393.361 283.879 393.187 283.879C392.941 283.879 392.724 283.929 392.537 284.029C392.351 284.123 392.207 284.256 392.107 284.429C392.007 284.603 391.957 284.799 391.957 285.019V285.179H391.137V285.019C391.137 284.639 391.221 284.303 391.387 284.009C391.561 283.716 391.801 283.489 392.107 283.329C392.421 283.169 392.781 283.089 393.187 283.089C393.781 283.089 394.264 283.269 394.637 283.629C395.011 283.983 395.197 284.443 395.197 285.009C395.197 285.336 395.137 285.646 395.017 285.939C394.897 286.233 394.651 286.626 394.277 287.119C393.911 287.606 393.354 288.256 392.607 289.069ZM396.701 289.859V288.799H397.681V289.859H396.701ZM401.371 289.979C400.585 289.979 399.958 289.669 399.491 289.049C399.031 288.429 398.801 287.589 398.801 286.529C398.801 285.469 399.031 284.633 399.491 284.019C399.951 283.399 400.578 283.089 401.371 283.089C402.165 283.089 402.791 283.399 403.251 284.019C403.711 284.633 403.941 285.469 403.941 286.529C403.941 287.589 403.708 288.429 403.241 289.049C402.781 289.669 402.158 289.979 401.371 289.979ZM401.371 289.189C401.911 289.189 402.335 288.956 402.641 288.489C402.955 288.016 403.111 287.363 403.111 286.529C403.111 285.703 402.955 285.056 402.641 284.589C402.335 284.116 401.911 283.879 401.371 283.879C401.018 283.879 400.708 283.986 400.441 284.199C400.181 284.406 399.981 284.709 399.841 285.109C399.701 285.509 399.631 285.983 399.631 286.529C399.631 287.363 399.785 288.016 400.091 288.489C400.405 288.956 400.831 289.189 401.371 289.189Z" fill="#8A8A8A"/>
<line x1="386.621" y1="278.609" x2="403.603" y2="278.609" stroke="#8A8A8A" stroke-width="0.5"/>
<path d="M422.183 187.86C422.73 187.94 423.173 188.173 423.513 188.56C423.853 188.94 424.023 189.403 424.023 189.95C424.023 190.577 423.81 191.097 423.383 191.51C422.957 191.917 422.427 192.12 421.793 192.12C421.18 192.12 420.67 191.927 420.263 191.54C419.857 191.153 419.637 190.66 419.603 190.06H420.413C420.44 190.44 420.58 190.747 420.833 190.98C421.087 191.213 421.407 191.33 421.793 191.33C422.06 191.33 422.3 191.27 422.513 191.15C422.727 191.03 422.893 190.863 423.013 190.65C423.133 190.43 423.193 190.187 423.193 189.92C423.193 189.513 423.05 189.18 422.763 188.92C422.483 188.653 422.127 188.52 421.693 188.52H420.943V188.36L422.483 186.11H419.823V185.35H423.763V185.54L422.183 187.86Z" fill="#8A8A8A"/>
<path d="M416.854 200.209H418.944V206.859H418.124V200.969H416.854V200.209ZM420.735 206.859V205.799H421.715V206.859H420.735ZM424.539 206.069H427.379V206.859H422.909V206.589C423.942 205.509 424.692 204.696 425.159 204.149C425.625 203.596 425.932 203.176 426.079 202.889C426.225 202.603 426.299 202.309 426.299 202.009C426.299 201.843 426.269 201.689 426.209 201.549C426.155 201.409 426.075 201.289 425.969 201.189C425.869 201.089 425.745 201.013 425.599 200.959C425.452 200.906 425.292 200.879 425.119 200.879C424.872 200.879 424.655 200.929 424.469 201.029C424.282 201.123 424.139 201.256 424.039 201.429C423.939 201.603 423.889 201.799 423.889 202.019V202.179H423.069V202.019C423.069 201.639 423.152 201.303 423.319 201.009C423.492 200.716 423.732 200.489 424.039 200.329C424.352 200.169 424.712 200.089 425.119 200.089C425.712 200.089 426.195 200.269 426.569 200.629C426.942 200.983 427.129 201.443 427.129 202.009C427.129 202.336 427.069 202.646 426.949 202.939C426.829 203.233 426.582 203.626 426.209 204.119C425.842 204.606 425.285 205.256 424.539 206.069Z" fill="#8A8A8A"/>
<line x1="413" y1="195.609" x2="429.982" y2="195.609" stroke="#8A8A8A" stroke-width="0.5"/>
<path d="M330.728 15.5258H332.818V22.1758H331.998V16.2858H330.728V15.5258Z" fill="#8A8A8A"/>
<path d="M327.378 34.8952V35.6352H326.678V37.0352H325.878V35.6352H322.468V35.4352L324.808 30.3852H325.668L323.588 34.8952H325.888L326.018 32.8452H326.678V34.8952H327.378ZM330.358 32.8352C330.792 32.8352 331.182 32.9285 331.528 33.1152C331.882 33.3018 332.155 33.5618 332.348 33.8952C332.548 34.2218 332.648 34.5852 332.648 34.9852C332.648 35.6052 332.435 36.1218 332.008 36.5352C331.582 36.9485 331.055 37.1552 330.428 37.1552C329.808 37.1552 329.292 36.9618 328.878 36.5752C328.465 36.1818 328.248 35.6885 328.228 35.0952H329.038C329.052 35.3418 329.118 35.5618 329.238 35.7552C329.365 35.9485 329.532 36.0985 329.738 36.2052C329.945 36.3118 330.175 36.3652 330.428 36.3652C330.828 36.3652 331.158 36.2352 331.418 35.9752C331.678 35.7152 331.808 35.3852 331.808 34.9852C331.808 34.7185 331.745 34.4785 331.618 34.2652C331.492 34.0452 331.315 33.8752 331.088 33.7552C330.862 33.6352 330.608 33.5752 330.328 33.5752H328.638L328.518 33.4352L328.858 30.3852H332.188V31.1452H329.538L329.358 32.8352H330.358ZM333.892 37.0352V35.9752H334.872V37.0352H333.892ZM338.256 32.8352C338.689 32.8352 339.079 32.9285 339.426 33.1152C339.779 33.3018 340.053 33.5618 340.246 33.8952C340.446 34.2218 340.546 34.5852 340.546 34.9852C340.546 35.6052 340.333 36.1218 339.906 36.5352C339.479 36.9485 338.953 37.1552 338.326 37.1552C337.706 37.1552 337.189 36.9618 336.776 36.5752C336.363 36.1818 336.146 35.6885 336.126 35.0952H336.936C336.949 35.3418 337.016 35.5618 337.136 35.7552C337.263 35.9485 337.429 36.0985 337.636 36.2052C337.843 36.3118 338.073 36.3652 338.326 36.3652C338.726 36.3652 339.056 36.2352 339.316 35.9752C339.576 35.7152 339.706 35.3852 339.706 34.9852C339.706 34.7185 339.643 34.4785 339.516 34.2652C339.389 34.0452 339.213 33.8752 338.986 33.7552C338.759 33.6352 338.506 33.5752 338.226 33.5752H336.536L336.416 33.4352L336.756 30.3852H340.086V31.1452H337.436L337.256 32.8352H338.256Z" fill="#8A8A8A"/>
<line x1="323" y1="27.75" x2="339.982" y2="27.75" stroke="#8A8A8A" stroke-width="0.5"/>
<path d="M315.16 83.3272C314.051 84.4259 312.648 84.9752 310.952 84.9752C309.267 84.9752 307.869 84.4259 306.76 83.3272C305.651 82.2285 305.096 80.8525 305.096 79.1992C305.096 77.5352 305.651 76.1539 306.76 75.0552C307.869 73.9459 309.267 73.3912 310.952 73.3912C312.648 73.3912 314.051 73.9405 315.16 75.0392C316.269 76.1379 316.824 77.5192 316.824 79.1832C316.824 80.8472 316.269 82.2285 315.16 83.3272ZM307.784 82.3352C308.627 83.1779 309.683 83.5992 310.952 83.5992C312.232 83.5992 313.288 83.1832 314.12 82.3512C314.963 81.5085 315.384 80.4525 315.384 79.1832C315.384 77.9139 314.963 76.8632 314.12 76.0312C313.288 75.1885 312.232 74.7672 310.952 74.7672C309.683 74.7672 308.627 75.1885 307.784 76.0312C306.952 76.8739 306.536 77.9245 306.536 79.1832C306.536 80.4419 306.952 81.4925 307.784 82.3352ZM323.71 76.5912C324.936 76.5912 325.944 76.9805 326.734 77.7592C327.523 78.5272 327.918 79.5139 327.918 80.7192C327.918 81.9672 327.507 82.9912 326.686 83.7912C325.864 84.5805 324.808 84.9752 323.518 84.9752C322.163 84.9752 321.08 84.5485 320.27 83.6952C319.47 82.8312 319.07 81.6792 319.07 80.2392C319.07 78.0205 319.47 76.3619 320.27 75.2632C321.07 74.1645 322.456 73.3752 324.43 72.8952L326.99 72.2872V73.6312L324.462 74.2392C323.342 74.4952 322.467 74.9165 321.838 75.5032C321.208 76.0899 320.803 76.8685 320.622 77.8392C321.379 77.0072 322.408 76.5912 323.71 76.5912ZM323.518 83.6632C324.371 83.6632 325.086 83.3859 325.662 82.8312C326.238 82.2659 326.526 81.5672 326.526 80.7352C326.526 79.8925 326.238 79.1885 325.662 78.6232C325.086 78.0579 324.371 77.7752 323.518 77.7752C322.654 77.7752 321.934 78.0579 321.358 78.6232C320.782 79.1779 320.494 79.8765 320.494 80.7192C320.494 81.1352 320.568 81.5245 320.718 81.8872C320.878 82.2499 321.091 82.5592 321.358 82.8152C321.624 83.0712 321.944 83.2792 322.318 83.4392C322.691 83.5885 323.091 83.6632 323.518 83.6632ZM329.979 77.1032V76.3352C330.544 76.1432 330.827 75.6899 330.827 74.9752H329.915V73.2952H331.547V74.8472C331.547 76.0525 331.024 76.8045 329.979 77.1032ZM340.518 81.6472H341.862C341.617 82.6392 341.105 83.4445 340.326 84.0632C339.548 84.6712 338.636 84.9752 337.59 84.9752C336.758 84.9752 335.996 84.7779 335.302 84.3832C334.62 83.9779 334.081 83.4285 333.686 82.7352C333.292 82.0419 333.094 81.2739 333.094 80.4312C333.094 79.1619 333.521 78.1005 334.374 77.2472C335.238 76.3832 336.31 75.9512 337.59 75.9512C338.273 75.9512 338.908 76.0845 339.494 76.3512C340.081 76.6179 340.577 76.9965 340.982 77.4872C341.388 77.9672 341.67 78.5272 341.83 79.1672H340.518C340.294 78.5592 339.916 78.0739 339.382 77.7112C338.849 77.3485 338.246 77.1672 337.574 77.1672C337.254 77.1672 336.945 77.2099 336.646 77.2952C336.348 77.3805 336.076 77.5032 335.83 77.6632C335.585 77.8232 335.366 78.0152 335.174 78.2392C334.982 78.4525 334.822 78.6979 334.694 78.9752C334.577 79.2525 334.492 79.5512 334.438 79.8712H338.342V80.9912H334.438C334.513 81.5245 334.694 81.9992 334.982 82.4152C335.27 82.8312 335.638 83.1565 336.086 83.3912C336.534 83.6259 337.03 83.7432 337.574 83.7432C338.257 83.7432 338.865 83.5565 339.398 83.1832C339.932 82.7992 340.305 82.2872 340.518 81.6472ZM349.803 84.7832L346.843 80.9112H345.611V84.7832H344.251V76.1432H345.611V79.6472H346.859L349.531 76.1432H351.179L348.027 80.2872L351.499 84.7832H349.803ZM360.048 76.1432V77.3752H356.832V84.7832H355.504V77.3752H352.288V76.1432H360.048Z" fill="#3C3C3C" fill-opacity="0.6"/>
</g>
<g filter="url(#filter1_d_1161_107439)">
<rect x="36" y="409.001" width="224" height="128" rx="8" fill="#FBFBFB" shape-rendering="crispEdges"/>
<path d="M69 437.513L71.198 439.711L75.594 435.001" stroke="#050505" stroke-linecap="round" stroke-linejoin="round"/>
<rect x="60.25" y="425.251" width="23.5" height="23.5" rx="11.75" stroke="#9B9B9B" stroke-opacity="0.4" stroke-width="0.5"/>
<path d="M97.152 431.601H103.272V440.001H102.204V432.585H98.196V440.001H97.152V431.601ZM111.912 436.785C111.912 436.873 111.904 436.997 111.888 437.157H106.356C106.436 437.757 106.684 438.241 107.1 438.609C107.516 438.969 108.028 439.149 108.636 439.149C109.084 439.149 109.48 439.053 109.824 438.861C110.176 438.661 110.456 438.381 110.664 438.021H111.732C111.46 438.693 111.052 439.217 110.508 439.593C109.964 439.961 109.34 440.145 108.636 440.145C107.7 440.145 106.916 439.821 106.284 439.173C105.652 438.525 105.336 437.721 105.336 436.761C105.336 435.793 105.652 434.989 106.284 434.349C106.916 433.701 107.7 433.377 108.636 433.377C109.604 433.377 110.392 433.705 111 434.361C111.608 435.017 111.912 435.825 111.912 436.785ZM108.636 434.349C108.252 434.349 107.9 434.425 107.58 434.577C107.268 434.729 107.008 434.949 106.8 435.237C106.592 435.517 106.452 435.841 106.38 436.209H110.88C110.808 435.833 110.668 435.505 110.46 435.225C110.252 434.937 109.992 434.721 109.68 434.577C109.368 434.425 109.02 434.349 108.636 434.349ZM117.366 433.377C118.334 433.377 119.13 433.697 119.754 434.337C120.386 434.977 120.702 435.785 120.702 436.761C120.702 437.729 120.386 438.537 119.754 439.185C119.13 439.825 118.334 440.145 117.366 440.145C116.39 440.145 115.586 439.809 114.954 439.137V442.317H113.934V433.521H114.63L114.834 434.517C115.138 434.157 115.506 433.877 115.938 433.677C116.378 433.477 116.854 433.377 117.366 433.377ZM117.294 439.161C117.982 439.161 118.55 438.933 118.998 438.477C119.446 438.021 119.67 437.449 119.67 436.761C119.67 436.073 119.446 435.501 118.998 435.045C118.55 434.589 117.982 434.361 117.294 434.361C116.606 434.361 116.034 434.593 115.578 435.057C115.13 435.513 114.906 436.081 114.906 436.761C114.906 437.209 115.006 437.617 115.206 437.985C115.414 438.353 115.702 438.641 116.07 438.849C116.438 439.057 116.846 439.161 117.294 439.161ZM128.815 436.785C128.815 436.873 128.807 436.997 128.791 437.157H123.259C123.339 437.757 123.587 438.241 124.003 438.609C124.419 438.969 124.931 439.149 125.539 439.149C125.987 439.149 126.383 439.053 126.727 438.861C127.079 438.661 127.359 438.381 127.567 438.021H128.635C128.363 438.693 127.955 439.217 127.411 439.593C126.867 439.961 126.243 440.145 125.539 440.145C124.603 440.145 123.819 439.821 123.187 439.173C122.555 438.525 122.239 437.721 122.239 436.761C122.239 435.793 122.555 434.989 123.187 434.349C123.819 433.701 124.603 433.377 125.539 433.377C126.507 433.377 127.295 433.705 127.903 434.361C128.511 435.017 128.815 435.825 128.815 436.785ZM125.539 434.349C125.155 434.349 124.803 434.425 124.483 434.577C124.171 434.729 123.911 434.949 123.703 435.237C123.495 435.517 123.355 435.841 123.283 436.209H127.783C127.711 435.833 127.571 435.505 127.363 435.225C127.155 434.937 126.895 434.721 126.583 434.577C126.271 434.425 125.923 434.349 125.539 434.349ZM135.001 436.641C135.329 436.761 135.589 436.961 135.781 437.241C135.981 437.521 136.081 437.837 136.081 438.189C136.081 438.709 135.889 439.141 135.505 439.485C135.129 439.829 134.657 440.001 134.089 440.001H130.837V433.521H134.053C134.589 433.521 135.025 433.677 135.361 433.989C135.697 434.293 135.865 434.685 135.865 435.165C135.865 435.381 135.829 435.585 135.757 435.777C135.685 435.969 135.585 436.141 135.457 436.293C135.329 436.437 135.177 436.553 135.001 436.641ZM134.857 435.345C134.857 435.081 134.769 434.873 134.593 434.721C134.417 434.561 134.189 434.481 133.909 434.481H131.833V436.197H133.909C134.197 436.197 134.425 436.121 134.593 435.969C134.769 435.809 134.857 435.601 134.857 435.345ZM133.969 439.041C134.169 439.041 134.349 439.001 134.509 438.921C134.677 438.833 134.805 438.717 134.893 438.573C134.981 438.429 135.025 438.269 135.025 438.093C135.025 437.909 134.981 437.745 134.893 437.601C134.805 437.449 134.677 437.333 134.509 437.253C134.349 437.173 134.165 437.133 133.957 437.133H131.833V439.041H133.969ZM138.179 432.393V431.229H139.283V432.393H138.179ZM138.227 440.001V433.521H139.247V440.001H138.227ZM145.23 433.377C146.198 433.377 146.994 433.697 147.618 434.337C148.25 434.977 148.566 435.785 148.566 436.761C148.566 437.729 148.25 438.537 147.618 439.185C146.994 439.825 146.198 440.145 145.23 440.145C144.254 440.145 143.45 439.809 142.818 439.137V442.317H141.798V433.521H142.494L142.698 434.517C143.002 434.157 143.37 433.877 143.802 433.677C144.242 433.477 144.718 433.377 145.23 433.377ZM145.158 439.161C145.846 439.161 146.414 438.933 146.862 438.477C147.31 438.021 147.534 437.449 147.534 436.761C147.534 436.073 147.31 435.501 146.862 435.045C146.414 434.589 145.846 434.361 145.158 434.361C144.47 434.361 143.898 434.593 143.442 435.057C142.994 435.513 142.77 436.081 142.77 436.761C142.77 437.209 142.87 437.617 143.07 437.985C143.278 438.353 143.566 438.641 143.934 438.849C144.302 439.057 144.71 439.161 145.158 439.161ZM156.678 436.785C156.678 436.873 156.67 436.997 156.654 437.157H151.122C151.202 437.757 151.45 438.241 151.866 438.609C152.282 438.969 152.794 439.149 153.402 439.149C153.85 439.149 154.246 439.053 154.59 438.861C154.942 438.661 155.222 438.381 155.43 438.021H156.498C156.226 438.693 155.818 439.217 155.274 439.593C154.73 439.961 154.106 440.145 153.402 440.145C152.466 440.145 151.682 439.821 151.05 439.173C150.418 438.525 150.102 437.721 150.102 436.761C150.102 435.793 150.418 434.989 151.05 434.349C151.682 433.701 152.466 433.377 153.402 433.377C154.37 433.377 155.158 433.705 155.766 434.361C156.374 435.017 156.678 435.825 156.678 436.785ZM153.402 434.349C153.018 434.349 152.666 434.425 152.346 434.577C152.034 434.729 151.774 434.949 151.566 435.237C151.358 435.517 151.218 435.841 151.146 436.209H155.646C155.574 435.833 155.434 435.505 155.226 435.225C155.018 434.937 154.758 434.721 154.446 434.577C154.134 434.425 153.786 434.349 153.402 434.349ZM163.164 433.521H164.16V440.001H163.164V437.133H159.696V440.001H158.7V433.521H159.696V436.173H163.164V433.521ZM169.639 440.145C168.999 440.145 168.415 440.001 167.887 439.713C167.359 439.417 166.947 439.013 166.651 438.501C166.355 437.981 166.207 437.401 166.207 436.761C166.207 435.785 166.531 434.977 167.179 434.337C167.835 433.697 168.655 433.377 169.639 433.377C170.287 433.377 170.871 433.525 171.391 433.821C171.919 434.109 172.331 434.513 172.627 435.033C172.931 435.545 173.083 436.121 173.083 436.761C173.083 437.729 172.755 438.537 172.099 439.185C171.443 439.825 170.623 440.145 169.639 440.145ZM167.923 438.489C168.379 438.937 168.951 439.161 169.639 439.161C170.335 439.161 170.907 438.937 171.355 438.489C171.811 438.033 172.039 437.457 172.039 436.761C172.039 436.065 171.811 435.493 171.355 435.045C170.907 434.589 170.335 434.361 169.639 434.361C168.951 434.361 168.379 434.589 167.923 435.045C167.475 435.493 167.251 436.065 167.251 436.761C167.251 437.457 167.475 438.033 167.923 438.489Z" fill="#050505"/>
<path d="M69 473.513L71.198 475.711L75.594 471.001" stroke="#050505" stroke-linecap="round" stroke-linejoin="round"/>
<rect x="60.25" y="461.251" width="23.5" height="23.5" rx="11.75" stroke="#9B9B9B" stroke-opacity="0.4" stroke-width="0.5"/>
<path d="M100.884 476.133C99.636 476.133 98.604 475.725 97.788 474.909C96.98 474.093 96.576 473.057 96.576 471.801C96.576 470.545 96.98 469.509 97.788 468.693C98.604 467.877 99.636 467.469 100.884 467.469C101.524 467.469 102.116 467.593 102.66 467.841C103.212 468.081 103.676 468.425 104.052 468.873C104.436 469.321 104.704 469.845 104.856 470.445H103.788C103.564 469.837 103.196 469.361 102.684 469.017C102.172 468.673 101.572 468.501 100.884 468.501C99.94 468.501 99.164 468.813 98.556 469.437C97.956 470.053 97.656 470.845 97.656 471.813C97.656 472.773 97.956 473.561 98.556 474.177C99.164 474.793 99.94 475.101 100.884 475.101C101.588 475.101 102.2 474.921 102.72 474.561C103.24 474.193 103.608 473.685 103.824 473.037H104.904C104.664 473.989 104.18 474.745 103.452 475.305C102.732 475.857 101.876 476.133 100.884 476.133ZM111.84 469.521V470.445H109.428V476.001H108.432V470.445H106.02V469.521H111.84ZM117.003 469.377C117.971 469.377 118.767 469.697 119.391 470.337C120.023 470.977 120.339 471.785 120.339 472.761C120.339 473.729 120.023 474.537 119.391 475.185C118.767 475.825 117.971 476.145 117.003 476.145C116.027 476.145 115.223 475.809 114.591 475.137V478.317H113.571V469.521H114.267L114.471 470.517C114.775 470.157 115.143 469.877 115.575 469.677C116.015 469.477 116.491 469.377 117.003 469.377ZM116.931 475.161C117.619 475.161 118.187 474.933 118.635 474.477C119.083 474.021 119.307 473.449 119.307 472.761C119.307 472.073 119.083 471.501 118.635 471.045C118.187 470.589 117.619 470.361 116.931 470.361C116.243 470.361 115.671 470.593 115.215 471.057C114.767 471.513 114.543 472.081 114.543 472.761C114.543 473.209 114.643 473.617 114.843 473.985C115.051 474.353 115.339 474.641 115.707 474.849C116.075 475.057 116.483 475.161 116.931 475.161ZM127.911 469.521H128.727V476.001H127.875L127.767 475.017C127.463 475.377 127.091 475.657 126.651 475.857C126.219 476.049 125.743 476.145 125.223 476.145C124.271 476.145 123.475 475.825 122.835 475.185C122.195 474.537 121.875 473.729 121.875 472.761C121.875 471.793 122.195 470.989 122.835 470.349C123.475 469.701 124.271 469.377 125.223 469.377C125.751 469.377 126.231 469.477 126.663 469.677C127.103 469.877 127.475 470.157 127.779 470.517L127.911 469.521ZM123.591 474.477C124.047 474.933 124.619 475.161 125.307 475.161C125.995 475.161 126.563 474.933 127.011 474.477C127.459 474.021 127.683 473.449 127.683 472.761C127.683 472.073 127.459 471.501 127.011 471.045C126.563 470.589 125.995 470.361 125.307 470.361C124.619 470.361 124.047 470.593 123.591 471.057C123.143 471.513 122.919 472.081 122.919 472.761C122.919 473.441 123.143 474.013 123.591 474.477ZM136.274 469.521V470.445H133.862V476.001H132.866V470.445H130.454V469.521H136.274ZM143.854 472.785C143.854 472.873 143.846 472.997 143.83 473.157H138.298C138.378 473.757 138.626 474.241 139.042 474.609C139.458 474.969 139.97 475.149 140.578 475.149C141.026 475.149 141.422 475.053 141.766 474.861C142.118 474.661 142.398 474.381 142.606 474.021H143.674C143.402 474.693 142.994 475.217 142.45 475.593C141.906 475.961 141.282 476.145 140.578 476.145C139.642 476.145 138.858 475.821 138.226 475.173C137.594 474.525 137.278 473.721 137.278 472.761C137.278 471.793 137.594 470.989 138.226 470.349C138.858 469.701 139.642 469.377 140.578 469.377C141.546 469.377 142.334 469.705 142.942 470.361C143.55 471.017 143.854 471.825 143.854 472.785ZM140.578 470.349C140.194 470.349 139.842 470.425 139.522 470.577C139.21 470.729 138.95 470.949 138.742 471.237C138.534 471.517 138.394 471.841 138.322 472.209H142.822C142.75 471.833 142.61 471.505 142.402 471.225C142.194 470.937 141.934 470.721 141.622 470.577C141.31 470.425 140.962 470.349 140.578 470.349ZM149.908 469.521V470.433H146.872V476.001H145.876V469.521H149.908ZM151.601 468.393V467.229H152.705V468.393H151.601ZM151.649 476.001V469.521H152.669V476.001H151.649ZM156.912 469.521H159.888V476.001H158.88V473.517H157.26L155.724 476.001H154.596L156.216 473.373C155.792 473.237 155.456 473.005 155.208 472.677C154.96 472.349 154.836 471.965 154.836 471.525C154.836 470.949 155.032 470.473 155.424 470.097C155.816 469.713 156.312 469.521 156.912 469.521ZM156.996 472.533H158.88V470.505H156.996C156.66 470.505 156.388 470.601 156.18 470.793C155.972 470.977 155.868 471.221 155.868 471.525C155.868 471.821 155.972 472.065 156.18 472.257C156.388 472.441 156.66 472.533 156.996 472.533ZM170.239 472.641C170.567 472.761 170.827 472.961 171.019 473.241C171.219 473.521 171.319 473.837 171.319 474.189C171.319 474.709 171.127 475.141 170.743 475.485C170.367 475.829 169.895 476.001 169.327 476.001H166.075V469.521H169.291C169.827 469.521 170.263 469.677 170.599 469.989C170.935 470.293 171.103 470.685 171.103 471.165C171.103 471.381 171.067 471.585 170.995 471.777C170.923 471.969 170.823 472.141 170.695 472.293C170.567 472.437 170.415 472.553 170.239 472.641ZM170.095 471.345C170.095 471.081 170.007 470.873 169.831 470.721C169.655 470.561 169.427 470.481 169.147 470.481H167.071V472.197H169.147C169.435 472.197 169.663 472.121 169.831 471.969C170.007 471.809 170.095 471.601 170.095 471.345ZM169.207 475.041C169.407 475.041 169.587 475.001 169.747 474.921C169.915 474.833 170.043 474.717 170.131 474.573C170.219 474.429 170.263 474.269 170.263 474.093C170.263 473.909 170.219 473.745 170.131 473.601C170.043 473.449 169.915 473.333 169.747 473.253C169.587 473.173 169.403 473.133 169.195 473.133H167.071V475.041H169.207ZM178.23 469.521H178.794V476.001H177.834V471.369L174.054 476.001H173.466V469.521H174.438V474.117L178.23 469.521ZM184.732 472.581C185.324 472.901 185.62 473.429 185.62 474.165C185.62 474.549 185.512 474.893 185.296 475.197C185.088 475.493 184.792 475.725 184.408 475.893C184.032 476.061 183.608 476.145 183.136 476.145C182.448 476.145 181.88 475.969 181.432 475.617C180.992 475.265 180.744 474.793 180.688 474.201H181.612C181.676 474.505 181.844 474.745 182.116 474.921C182.388 475.089 182.728 475.173 183.136 475.173C183.568 475.173 183.924 475.073 184.204 474.873C184.484 474.673 184.624 474.409 184.624 474.081C184.624 473.777 184.504 473.525 184.264 473.325C184.032 473.125 183.736 473.025 183.376 473.025H182.416V472.197H183.376C183.712 472.197 183.98 472.113 184.18 471.945C184.388 471.769 184.492 471.545 184.492 471.273C184.492 470.977 184.368 470.737 184.12 470.553C183.872 470.369 183.544 470.277 183.136 470.277C182.776 470.277 182.476 470.357 182.236 470.517C181.996 470.677 181.844 470.893 181.78 471.165H180.856C180.888 470.813 181.004 470.501 181.204 470.229C181.412 469.957 181.684 469.749 182.02 469.605C182.364 469.453 182.744 469.377 183.16 469.377C183.824 469.377 184.372 469.549 184.804 469.893C185.236 470.237 185.452 470.669 185.452 471.189C185.452 471.813 185.212 472.277 184.732 472.581ZM192.184 469.521H193.18V476.001H192.184V473.133H188.716V476.001H187.72V469.521H188.716V472.173H192.184V469.521ZM201.263 469.521H202.079V476.001H201.227L201.119 475.017C200.815 475.377 200.443 475.657 200.003 475.857C199.571 476.049 199.095 476.145 198.575 476.145C197.623 476.145 196.827 475.825 196.187 475.185C195.547 474.537 195.227 473.729 195.227 472.761C195.227 471.793 195.547 470.989 196.187 470.349C196.827 469.701 197.623 469.377 198.575 469.377C199.103 469.377 199.583 469.477 200.015 469.677C200.455 469.877 200.827 470.157 201.131 470.517L201.263 469.521ZM196.943 474.477C197.399 474.933 197.971 475.161 198.659 475.161C199.347 475.161 199.915 474.933 200.363 474.477C200.811 474.021 201.035 473.449 201.035 472.761C201.035 472.073 200.811 471.501 200.363 471.045C199.915 470.589 199.347 470.361 198.659 470.361C197.971 470.361 197.399 470.593 196.943 471.057C196.495 471.513 196.271 472.081 196.271 472.761C196.271 473.441 196.495 474.013 196.943 474.477ZM208.198 469.521H209.182V476.001H208.198V473.517C207.702 473.709 207.186 473.805 206.65 473.805C205.882 473.805 205.262 473.585 204.79 473.145C204.326 472.697 204.094 472.073 204.094 471.273V469.521H205.09V471.201C205.09 471.721 205.23 472.121 205.51 472.401C205.798 472.681 206.206 472.821 206.734 472.821C207.238 472.821 207.726 472.705 208.198 472.473V469.521ZM217.791 472.785C217.791 472.873 217.783 472.997 217.767 473.157H212.235C212.315 473.757 212.563 474.241 212.979 474.609C213.395 474.969 213.907 475.149 214.515 475.149C214.963 475.149 215.359 475.053 215.703 474.861C216.055 474.661 216.335 474.381 216.543 474.021H217.611C217.339 474.693 216.931 475.217 216.387 475.593C215.843 475.961 215.219 476.145 214.515 476.145C213.579 476.145 212.795 475.821 212.163 475.173C211.531 474.525 211.215 473.721 211.215 472.761C211.215 471.793 211.531 470.989 212.163 470.349C212.795 469.701 213.579 469.377 214.515 469.377C215.483 469.377 216.271 469.705 216.879 470.361C217.487 471.017 217.791 471.825 217.791 472.785ZM214.515 470.349C214.131 470.349 213.779 470.425 213.459 470.577C213.147 470.729 212.887 470.949 212.679 471.237C212.471 471.517 212.331 471.841 212.259 472.209H216.759C216.687 471.833 216.547 471.505 216.339 471.225C216.131 470.937 215.871 470.721 215.559 470.577C215.247 470.425 214.899 470.349 214.515 470.349ZM224.277 469.521H225.273V476.001H224.277V473.133H220.809V476.001H219.813V469.521H220.809V472.173H224.277V469.521ZM233.357 469.521H234.173V476.001H233.321L233.213 475.017C232.909 475.377 232.537 475.657 232.097 475.857C231.665 476.049 231.189 476.145 230.669 476.145C229.717 476.145 228.921 475.825 228.281 475.185C227.641 474.537 227.321 473.729 227.321 472.761C227.321 471.793 227.641 470.989 228.281 470.349C228.921 469.701 229.717 469.377 230.669 469.377C231.197 469.377 231.677 469.477 232.109 469.677C232.549 469.877 232.921 470.157 233.225 470.517L233.357 469.521ZM229.037 474.477C229.493 474.933 230.065 475.161 230.753 475.161C231.441 475.161 232.009 474.933 232.457 474.477C232.905 474.021 233.129 473.449 233.129 472.761C233.129 472.073 232.905 471.501 232.457 471.045C232.009 470.589 231.441 470.361 230.753 470.361C230.065 470.361 229.493 470.593 229.037 471.057C228.589 471.513 228.365 472.081 228.365 472.761C228.365 473.441 228.589 474.013 229.037 474.477Z" fill="#050505"/>
<path d="M69 509.513L71.198 511.711L75.594 507.001" stroke="#050505" stroke-linecap="round" stroke-linejoin="round"/>
<rect x="60.25" y="497.251" width="23.5" height="23.5" rx="11.75" stroke="#9B9B9B" stroke-opacity="0.4" stroke-width="0.5"/>
<path d="M103.2 511.017H104.064V513.717H103.08V512.001H97.152V503.601H98.196V511.017H102.144V503.601H103.2V511.017ZM105.992 504.393V503.229H107.096V504.393H105.992ZM106.04 512.001V505.521H107.06V512.001H106.04ZM114.074 505.521H115.07V512.001H114.074V509.133H110.606V512.001H109.61V505.521H110.606V508.173H114.074V505.521ZM123.154 505.521H123.97V512.001H123.118L123.01 511.017C122.706 511.377 122.334 511.657 121.894 511.857C121.462 512.049 120.986 512.145 120.466 512.145C119.514 512.145 118.718 511.825 118.078 511.185C117.438 510.537 117.118 509.729 117.118 508.761C117.118 507.793 117.438 506.989 118.078 506.349C118.718 505.701 119.514 505.377 120.466 505.377C120.994 505.377 121.474 505.477 121.906 505.677C122.346 505.877 122.718 506.157 123.022 506.517L123.154 505.521ZM118.834 510.477C119.29 510.933 119.862 511.161 120.55 511.161C121.238 511.161 121.806 510.933 122.254 510.477C122.702 510.021 122.926 509.449 122.926 508.761C122.926 508.073 122.702 507.501 122.254 507.045C121.806 506.589 121.238 506.361 120.55 506.361C119.862 506.361 119.29 506.593 118.834 507.057C118.386 507.513 118.162 508.081 118.162 508.761C118.162 509.441 118.386 510.013 118.834 510.477ZM134.329 508.641C134.657 508.761 134.917 508.961 135.109 509.241C135.309 509.521 135.409 509.837 135.409 510.189C135.409 510.709 135.217 511.141 134.833 511.485C134.457 511.829 133.985 512.001 133.417 512.001H130.165V505.521H133.381C133.917 505.521 134.353 505.677 134.689 505.989C135.025 506.293 135.193 506.685 135.193 507.165C135.193 507.381 135.157 507.585 135.085 507.777C135.013 507.969 134.913 508.141 134.785 508.293C134.657 508.437 134.505 508.553 134.329 508.641ZM134.185 507.345C134.185 507.081 134.097 506.873 133.921 506.721C133.745 506.561 133.517 506.481 133.237 506.481H131.161V508.197H133.237C133.525 508.197 133.753 508.121 133.921 507.969C134.097 507.809 134.185 507.601 134.185 507.345ZM133.297 511.041C133.497 511.041 133.677 511.001 133.837 510.921C134.005 510.833 134.133 510.717 134.221 510.573C134.309 510.429 134.353 510.269 134.353 510.093C134.353 509.909 134.309 509.745 134.221 509.601C134.133 509.449 134.005 509.333 133.837 509.253C133.677 509.173 133.493 509.133 133.285 509.133H131.161V511.041H133.297ZM140.411 512.145C139.779 512.145 139.203 512.001 138.683 511.713C138.171 511.417 137.767 511.009 137.471 510.489C137.183 509.969 137.039 509.393 137.039 508.761C137.039 507.793 137.359 506.989 137.999 506.349C138.647 505.701 139.451 505.377 140.411 505.377C141.179 505.377 141.843 505.589 142.403 506.013C142.971 506.437 143.355 507.001 143.555 507.705H142.547C142.355 507.289 142.067 506.961 141.683 506.721C141.307 506.481 140.883 506.361 140.411 506.361C139.747 506.361 139.191 506.593 138.743 507.057C138.303 507.513 138.083 508.081 138.083 508.761C138.083 509.209 138.183 509.617 138.383 509.985C138.583 510.345 138.859 510.633 139.211 510.849C139.571 511.057 139.971 511.161 140.411 511.161C140.883 511.161 141.303 511.041 141.671 510.801C142.047 510.553 142.335 510.213 142.535 509.781H143.567C143.367 510.501 142.979 511.077 142.403 511.509C141.835 511.933 141.171 512.145 140.411 512.145ZM150.43 505.521V506.445H148.018V512.001H147.022V506.445H144.61V505.521H150.43ZM157.47 505.521H158.286V512.001H157.434L157.326 511.017C157.022 511.377 156.65 511.657 156.21 511.857C155.778 512.049 155.302 512.145 154.782 512.145C153.83 512.145 153.034 511.825 152.394 511.185C151.754 510.537 151.434 509.729 151.434 508.761C151.434 507.793 151.754 506.989 152.394 506.349C153.034 505.701 153.83 505.377 154.782 505.377C155.31 505.377 155.79 505.477 156.222 505.677C156.662 505.877 157.034 506.157 157.338 506.517L157.47 505.521ZM153.15 510.477C153.606 510.933 154.178 511.161 154.866 511.161C155.554 511.161 156.122 510.933 156.57 510.477C157.018 510.021 157.242 509.449 157.242 508.761C157.242 508.073 157.018 507.501 156.57 507.045C156.122 506.589 155.554 506.361 154.866 506.361C154.178 506.361 153.606 506.593 153.15 507.057C152.702 507.513 152.478 508.081 152.478 508.761C152.478 509.441 152.702 510.013 153.15 510.477ZM165.305 505.521H166.301V512.001H165.305V509.133H161.837V512.001H160.841V505.521H161.837V508.173H165.305V505.521ZM171.78 512.145C171.14 512.145 170.556 512.001 170.028 511.713C169.5 511.417 169.088 511.013 168.792 510.501C168.496 509.981 168.348 509.401 168.348 508.761C168.348 507.785 168.672 506.977 169.32 506.337C169.976 505.697 170.796 505.377 171.78 505.377C172.428 505.377 173.012 505.525 173.532 505.821C174.06 506.109 174.472 506.513 174.768 507.033C175.072 507.545 175.224 508.121 175.224 508.761C175.224 509.729 174.896 510.537 174.24 511.185C173.584 511.825 172.764 512.145 171.78 512.145ZM170.064 510.489C170.52 510.937 171.092 511.161 171.78 511.161C172.476 511.161 173.048 510.937 173.496 510.489C173.952 510.033 174.18 509.457 174.18 508.761C174.18 508.065 173.952 507.493 173.496 507.045C173.048 506.589 172.476 506.361 171.78 506.361C171.092 506.361 170.52 506.589 170.064 507.045C169.616 507.493 169.392 508.065 169.392 508.761C169.392 509.457 169.616 510.033 170.064 510.489ZM181.438 508.641C181.766 508.761 182.026 508.961 182.218 509.241C182.418 509.521 182.518 509.837 182.518 510.189C182.518 510.709 182.326 511.141 181.942 511.485C181.566 511.829 181.094 512.001 180.526 512.001H177.274V505.521H180.49C181.026 505.521 181.462 505.677 181.798 505.989C182.134 506.293 182.302 506.685 182.302 507.165C182.302 507.381 182.266 507.585 182.194 507.777C182.122 507.969 182.022 508.141 181.894 508.293C181.766 508.437 181.614 508.553 181.438 508.641ZM181.294 507.345C181.294 507.081 181.206 506.873 181.03 506.721C180.854 506.561 180.626 506.481 180.346 506.481H178.27V508.197H180.346C180.634 508.197 180.862 508.121 181.03 507.969C181.206 507.809 181.294 507.601 181.294 507.345ZM180.406 511.041C180.606 511.041 180.786 511.001 180.946 510.921C181.114 510.833 181.242 510.717 181.33 510.573C181.418 510.429 181.462 510.269 181.462 510.093C181.462 509.909 181.418 509.745 181.33 509.601C181.242 509.449 181.114 509.333 180.946 509.253C180.786 509.173 180.602 509.133 180.394 509.133H178.27V511.041H180.406ZM185.757 505.521H190.005V512.001H188.985V506.409H186.609L186.273 509.685C186.185 510.541 185.965 511.149 185.613 511.509C185.261 511.861 184.733 512.037 184.029 512.037H183.849V511.077H184.077C184.445 511.077 184.725 510.973 184.917 510.765C185.109 510.549 185.229 510.209 185.277 509.745L185.757 505.521ZM198.619 508.785C198.619 508.873 198.611 508.997 198.595 509.157H193.063C193.143 509.757 193.391 510.241 193.807 510.609C194.223 510.969 194.735 511.149 195.343 511.149C195.791 511.149 196.187 511.053 196.531 510.861C196.883 510.661 197.163 510.381 197.371 510.021H198.439C198.167 510.693 197.759 511.217 197.215 511.593C196.671 511.961 196.047 512.145 195.343 512.145C194.407 512.145 193.623 511.821 192.991 511.173C192.359 510.525 192.043 509.721 192.043 508.761C192.043 507.793 192.359 506.989 192.991 506.349C193.623 505.701 194.407 505.377 195.343 505.377C196.311 505.377 197.099 505.705 197.707 506.361C198.315 507.017 198.619 507.825 198.619 508.785ZM195.343 506.349C194.959 506.349 194.607 506.425 194.287 506.577C193.975 506.729 193.715 506.949 193.507 507.237C193.299 507.517 193.159 507.841 193.087 508.209H197.587C197.515 507.833 197.375 507.505 197.167 507.225C196.959 506.937 196.699 506.721 196.387 506.577C196.075 506.425 195.727 506.349 195.343 506.349ZM205.105 505.521H206.101V512.001H205.105V509.133H201.637V512.001H200.641V505.521H201.637V508.173H205.105V505.521ZM214.185 505.521H215.001V512.001H214.149L214.041 511.017C213.737 511.377 213.365 511.657 212.925 511.857C212.493 512.049 212.017 512.145 211.497 512.145C210.545 512.145 209.749 511.825 209.109 511.185C208.469 510.537 208.149 509.729 208.149 508.761C208.149 507.793 208.469 506.989 209.109 506.349C209.749 505.701 210.545 505.377 211.497 505.377C212.025 505.377 212.505 505.477 212.937 505.677C213.377 505.877 213.749 506.157 214.053 506.517L214.185 505.521ZM209.865 510.477C210.321 510.933 210.893 511.161 211.581 511.161C212.269 511.161 212.837 510.933 213.285 510.477C213.733 510.021 213.957 509.449 213.957 508.761C213.957 508.073 213.733 507.501 213.285 507.045C212.837 506.589 212.269 506.361 211.581 506.361C210.893 506.361 210.321 506.593 209.865 507.057C209.417 507.513 209.193 508.081 209.193 508.761C209.193 509.441 209.417 510.013 209.865 510.477Z" fill="#050505"/>
</g>
</g>
<defs>
<filter id="filter0_d_1161_107439" x="0" y="0" width="561" height="561" filterUnits="userSpaceOnUse" color-interpolation-filters="sRGB">
<feFlood flood-opacity="0" result="BackgroundImageFix"/>
<feColorMatrix in="SourceAlpha" type="matrix" values="0 0 0 0 0 0 0 0 0 0 0 0 0 0 0 0 0 0 127 0" result="hardAlpha"/>
<feOffset dy="4"/>
<feGaussianBlur stdDeviation="2"/>
<feComposite in2="hardAlpha" operator="out"/>
<feColorMatrix type="matrix" values="0 0 0 0 0 0 0 0 0 0 0 0 0 0 0 0 0 0 0.15 0"/>
<feBlend mode="normal" in2="BackgroundImageFix" result="effect1_dropShadow_1161_107439"/>
<feBlend mode="normal" in="SourceGraphic" in2="effect1_dropShadow_1161_107439" result="shape"/>
</filter>
<filter id="filter1_d_1161_107439" x="34" y="409.001" width="232" height="136" filterUnits="userSpaceOnUse" color-interpolation-filters="sRGB">
<feFlood flood-opacity="0" result="BackgroundImageFix"/>
<feColorMatrix in="SourceAlpha" type="matrix" values="0 0 0 0 0 0 0 0 0 0 0 0 0 0 0 0 0 0 127 0" result="hardAlpha"/>
<feOffset dx="2" dy="4"/>
<feGaussianBlur stdDeviation="2"/>
<feComposite in2="hardAlpha" operator="out"/>
<feColorMatrix type="matrix" values="0 0 0 0 0 0 0 0 0 0 0 0 0 0 0 0 0 0 0.06 0"/>
<feBlend mode="normal" in2="BackgroundImageFix" result="effect1_dropShadow_1161_107439"/>
<feBlend mode="normal" in="SourceGraphic" in2="effect1_dropShadow_1161_107439" result="shape"/>
</filter>
</defs>
</svg>
